<svg width="7" height="6" viewBox="0 0 7 6" fill="none" xmlns="http://www.w3.org/2000/svg">
<path d="M1.33268 4.56683C1.25012 4.57588 0.977108 4.63363 1.38237 4.55689C2.24819 4.39294 3.106 4.18452 3.96359 3.98318C4.63231 3.82618 5.30661 3.67781 5.97066 3.50073C6.05181 3.47909 6.15103 3.46344 6.0348 3.45465C5.92245 3.44615 5.67044 3.44611 5.58623 3.44562C4.85476 3.44135 4.12184 3.43187 3.3926 3.49802C2.61135 3.56888 1.84429 3.70409 1.09236 3.92897C1.05472 3.94023 1.01709 3.95172 0.980325 3.96556C0.972899 3.96836 0.952553 3.97945 0.960448 3.97866C0.98876 3.97583 1.01627 3.96727 1.04357 3.95924C1.31861 3.87829 1.583 3.76082 1.84585 3.64799C2.30658 3.45023 2.76613 3.25279 3.23178 3.06661C3.65238 2.89844 3.79788 2.84501 4.20301 2.67766C4.31215 2.63258 4.42156 2.58805 4.52917 2.53943C4.57931 2.51678 4.63159 2.49651 4.67598 2.46399C4.77584 2.39085 4.42636 2.45765 4.3051 2.48251C3.77567 2.59107 3.25938 2.78007 2.74571 2.94419C2.34291 3.07289 1.9396 3.20071 1.54409 3.35075C1.40268 3.4044 1.31808 3.43949 1.18903 3.49711C1.13996 3.51902 1.0898 3.54764 1.15198 3.50886C1.92996 3.02367 2.68855 2.50406 3.42015 1.95127C3.62651 1.79535 3.85097 1.63414 4.02322 1.4372C4.03727 1.42113 4.04882 1.4029 4.05936 1.38434C4.06399 1.37619 4.07601 1.36316 4.06839 1.35769C4.05722 1.34967 4.04065 1.35806 4.02729 1.3613C3.99076 1.37016 3.95477 1.38134 3.91932 1.39383C3.27764 1.6199 2.65739 1.92297 2.05184 2.23135C2.02087 2.24712 1.99009 2.26329 1.95969 2.28014C1.86985 2.3299 1.95135 2.28857 1.95336 2.28736C2.28008 2.09134 2.59513 1.87917 2.9264 1.68972C3.07123 1.60689 3.2178 1.52718 3.36369 1.44623C3.403 1.42441 3.84585 1.18854 3.93558 1.11466C3.9478 1.1046 3.95762 1.07185 3.94236 1.06768C3.87384 1.04894 3.6098 1.13541 3.5882 1.14221C3.27924 1.23955 2.98183 1.37652 2.68969 1.51489C2.10621 1.79128 1.51744 2.08171 0.979421 2.44095C0.669956 2.64759 1.01786 2.51152 1.12804 2.46987C1.95232 2.15823 2.76856 1.82892 3.59859 1.53206C3.90167 1.42366 4.22271 1.32927 4.51652 1.19326C4.54108 1.18189 4.57664 1.16969 4.55266 1.1517" stroke="#333333" stroke-linecap="round" stroke-linejoin="round"/>
</svg>
