<svg width="6" height="8" viewBox="0 0 6 8" fill="none" xmlns="http://www.w3.org/2000/svg">
<path d="M5.26629 5.90435C5.25918 5.94089 5.12864 6.62166 5.1045 6.71514C5.07225 6.83999 5.04807 6.90162 5.01257 6.74088C4.94973 6.45634 4.92204 6.16515 4.8802 5.87677C4.79165 5.26654 4.74903 4.95165 4.66325 4.32322C4.53378 3.3748 4.41449 2.42397 4.23855 1.48269C4.16995 1.11567 4.19441 1.38196 4.19075 1.52498C4.16879 2.38119 4.07687 3.23615 4.01241 4.08972C3.98113 4.504 3.95588 4.8391 3.93703 5.24432C3.93319 5.327 3.93141 5.40977 3.92968 5.49252C3.92896 5.52683 3.90861 5.56839 3.92968 5.59548C3.9491 5.62045 3.93462 5.53239 3.93611 5.50079C3.94014 5.41533 3.94318 5.32982 3.94622 5.24432C3.95088 5.11348 3.97758 4.3 3.97932 4.23129C3.99873 3.46321 4.0084 2.69554 3.91681 1.93129C3.9058 1.83941 3.86452 1.58059 3.8451 1.46614C3.83873 1.42858 3.84951 1.32658 3.82304 1.35399C3.76285 1.41633 3.77886 1.52159 3.75869 1.60587C3.66378 2.00253 3.60527 2.25526 3.49211 2.66854C3.29269 3.39682 3.08461 4.13836 2.79163 4.83617C2.63806 5.20193 2.68525 4.59085 2.68499 4.54752C2.6789 3.52311 2.7174 2.48571 2.55813 1.46982C2.55695 1.46226 2.52948 1.27623 2.5232 1.41466C2.51274 1.64547 2.52232 1.87676 2.51953 2.10779C2.50761 3.09236 2.41027 4.05518 2.29155 5.03105C2.26338 5.26255 2.27192 5.20728 2.25754 5.37026C2.2568 5.37855 2.25442 5.40339 2.25478 5.39508C2.25574 5.37237 2.25758 5.34971 2.25937 5.32705C2.29317 4.90119 2.34254 4.47596 2.40186 4.05295C2.49394 3.39636 2.61871 2.74752 2.8045 2.11055C2.87323 1.87488 3.03423 1.21491 3.11981 1.445C3.16914 1.57765 3.1816 1.90215 3.18691 1.99288C3.20391 2.28304 3.22484 2.94675 3.23747 3.20815C3.27488 3.98238 3.34482 4.74783 3.49395 5.50907C3.54272 5.75806 3.57267 5.89437 3.63735 6.12681C3.65953 6.20653 3.66255 6.29931 3.71641 6.36214C3.75649 6.40891 3.7089 6.23891 3.69802 6.17829C3.65869 5.959 3.62519 5.80933 3.56565 5.5872C3.44859 5.15047 3.30195 4.72177 3.13176 4.30299C3.11449 4.2605 3.09846 4.2174 3.07844 4.17613C3.07319 4.16533 3.06628 4.14083 3.05638 4.14764C3.04284 4.15694 3.05001 4.17996 3.04902 4.19636C3.04633 4.24103 3.04744 4.28586 3.04534 4.33057C3.03503 4.55097 3.00747 4.76799 2.96905 4.98509C2.96727 4.9951 2.93759 5.2227 2.93411 5.05771C2.9328 4.99539 2.96585 4.86129 2.82748 4.87753C2.46321 4.92029 2.41337 5.20379 1.95786 5.0476C1.30167 4.82259 1.13107 4.20308 0.937472 3.6163C0.84707 3.34231 0.731508 2.48086 0.775682 2.76598C0.830753 3.12144 0.857826 3.48075 0.908056 3.83693C0.917225 3.90194 0.921825 4.078 0.962292 4.02629C0.995694 3.98361 0.992039 3.90441 0.997224 3.85255" stroke="#333333" stroke-linecap="round" stroke-linejoin="round"/>
</svg>
