<svg width="4" height="7" viewBox="0 0 4 7" fill="none" xmlns="http://www.w3.org/2000/svg">
<path d="M0.935553 1.09103C0.88829 1.30881 0.862372 1.52957 0.862372 1.75237C0.862372 1.83797 0.854902 1.92474 0.876827 2.00805C0.886372 2.04432 0.88991 2.08389 0.902125 2.11918C0.922737 2.17873 0.947556 2.22501 0.96085 2.28768C0.972664 2.34337 0.991261 2.3972 1.00422 2.45256C1.01739 2.50884 1.0484 2.56182 1.05571 2.6188C1.07625 2.77866 1.14301 2.93228 1.18672 3.08725C1.21122 3.17414 1.24402 3.25847 1.27164 3.34429C1.31061 3.46536 1.33722 3.58453 1.38639 3.70252C1.41906 3.78093 1.43464 3.86764 1.45595 3.94962C1.47884 4.03764 1.51145 4.12252 1.54088 4.20846C1.58896 4.34885 1.63796 4.49228 1.7017 4.62632C1.74062 4.70818 1.78743 4.78523 1.8336 4.86303C1.90091 4.97642 1.93696 5.10419 1.99984 5.2199C2.07121 5.35122 2.11375 5.52237 2.21668 5.63279C2.2499 5.66843 2.28282 5.70225 2.31922 5.73488C2.36487 5.77581 2.4258 5.8061 2.46423 5.85414C2.52008 5.92395 2.54241 5.98798 2.63363 6.02218C2.6562 6.03065 2.70536 6.07764 2.73256 6.06555C2.76401 6.05157 2.76682 6.03187 2.77864 6.00502C2.79657 5.96426 2.84075 5.93005 2.86673 5.89254C2.90722 5.83404 2.90332 5.75317 2.90332 5.68519C2.90332 5.65357 2.90354 5.63093 2.89157 5.60207C2.87791 5.56913 2.87872 5.53164 2.86266 5.49952C2.83467 5.44355 2.84601 5.39188 2.8342 5.33283C2.8255 5.28934 2.8411 5.33839 2.8482 5.35181C2.8532 5.36125 2.8741 5.39246 2.87079 5.39246C2.86253 5.39246 2.83357 5.36493 2.82652 5.35587C2.81236 5.33766 2.81037 5.31272 2.7958 5.2967C2.7609 5.2583 2.76272 5.19616 2.72895 5.15756C2.70481 5.12997 2.70341 5.0813 2.69371 5.04734C2.68462 5.01551 2.67413 4.98429 2.66254 4.95338C2.64259 4.90018 2.59775 4.8253 2.5618 4.78262C2.54435 4.7619 2.54827 4.7272 2.54509 4.70176C2.54144 4.67255 2.52529 4.63418 2.51302 4.60735C2.48655 4.54944 2.46065 4.47053 2.4561 4.40677C2.4543 4.38168 2.44452 4.35143 2.43622 4.32772C2.42203 4.28716 2.41526 4.24684 2.39918 4.20711C2.38648 4.17573 2.37083 4.1477 2.35536 4.11676C2.34255 4.09114 2.32484 4.02319 2.29754 4.01105C2.28017 4.00333 2.26179 3.93624 2.26095 3.91438C2.25986 3.88623 2.23433 3.86598 2.22842 3.83939C2.22142 3.80787 2.20897 3.77937 2.1959 3.74995C2.1803 3.71485 2.18403 3.6722 2.16789 3.63611C2.10559 3.49685 2.09163 3.34363 2.01249 3.21329C1.96329 3.13225 1.95477 3.03034 1.90769 2.94902C1.87819 2.89806 1.87251 2.84209 1.84987 2.78775C1.83123 2.74301 1.82291 2.6954 1.80605 2.65042C1.78359 2.59054 1.77687 2.52292 1.76133 2.4616C1.7451 2.3976 1.71516 2.33575 1.69447 2.27368C1.66075 2.17253 1.62381 2.06594 1.60051 1.96107C1.58067 1.87179 1.52833 1.7842 1.48848 1.70087C1.44961 1.61959 1.42768 1.5238 1.40717 1.43661C1.39628 1.39034 1.38623 1.33253 1.36651 1.28979C1.34827 1.25028 1.31321 1.20945 1.31004 1.16511C1.30337 1.07166 1.24454 0.981532 1.24454 0.887749" stroke="#333333" stroke-linecap="round" stroke-linejoin="round"/>
</svg>
