<svg width="9" height="8" viewBox="0 0 9 8" fill="none" xmlns="http://www.w3.org/2000/svg">
<path d="M8.13112 3.00303C7.8734 2.79439 7.5903 2.62316 7.28367 2.49437C6.59972 2.20713 5.84768 2.12236 5.12482 1.98436C4.87525 1.93672 4.64424 1.89199 4.39888 1.83529C4.39552 1.83451 4.15958 1.75097 4.1188 1.77792C4.08548 1.79994 4.04111 1.94373 4.0393 1.94868C3.92335 2.26546 3.80369 2.57651 3.65803 2.88151C3.41594 3.38845 3.12226 3.86717 2.82548 4.34333C2.55033 4.78479 2.26042 5.21597 1.94324 5.62852C1.84109 5.76138 1.82427 5.77749 1.7255 5.89775C1.67816 5.9554 1.62216 6.01496 1.59224 6.08477C1.57068 6.13508 1.60984 6.13727 1.65232 6.14892C1.80986 6.19213 1.9595 6.24147 2.10767 6.31154C2.21287 6.36129 2.31601 6.41531 2.42118 6.46514C2.56721 6.53432 2.72598 6.62528 2.88556 6.66074C2.95574 6.67633 2.97056 6.6671 3.01837 6.61285C3.15114 6.46221 3.24677 6.26149 3.34362 6.08839C3.76204 5.34056 4.12795 4.56514 4.51723 3.80215C4.84399 3.16171 4.86186 3.13432 5.17903 2.54994C5.30762 2.31301 5.47281 2.0685 5.51286 1.79418C5.51977 1.74687 5.51791 1.59666 5.51647 1.54302C5.51484 1.48179 5.53795 1.38557 5.46227 1.47616C5.34978 1.6108 5.10491 1.95556 5.04531 2.03857C4.57214 2.69763 4.10878 3.36362 3.63996 4.02576C3.19052 4.66053 2.7431 5.31425 2.21428 5.88736C2.01124 6.10742 1.89802 6.20987 1.67536 6.40596C1.66429 6.4157 1.3719 6.66171 1.31849 6.7163C1.25198 6.78428 1.28164 6.77731 1.36502 6.77096C1.66419 6.74817 1.96049 6.68929 2.25945 6.66209C2.45092 6.64467 2.61552 6.63424 2.80515 6.64764C2.95558 6.65826 3.10254 6.6975 3.25237 6.71314C3.29428 6.71751 3.3506 6.72648 3.39196 6.70456C3.45501 6.67114 3.51844 6.54989 3.55413 6.49766C3.74096 6.22427 3.87424 5.93346 3.9887 5.6231C4.12181 5.2622 4.22944 4.8904 4.40294 4.54571C4.42437 4.50314 4.52502 4.30726 4.47658 4.5046C4.32497 5.12224 4.04879 5.71339 3.78723 6.29031C3.69655 6.49032 3.71501 6.44629 3.64132 6.61511C3.62445 6.65376 3.59309 6.73431 3.56633 6.77503C3.54164 6.81259 3.52963 6.81787 3.48321 6.82381C3.35355 6.84042 3.20096 6.82215 3.07529 6.79219C2.80687 6.72821 2.58491 6.53846 2.42479 6.31922C2.33862 6.20123 2.38751 6.04627 2.43834 5.92034C2.4446 5.90483 2.46652 5.84039 2.5043 5.86794C2.53006 5.88673 2.54766 5.91475 2.56799 5.93931C2.71805 6.12064 2.66156 6.071 2.84716 6.27992C3.01376 6.46744 3.0739 6.52183 3.25373 6.69055C3.3723 6.80181 3.49863 6.90396 3.58575 7.04336C3.61579 7.09141 3.62977 7.20498 3.67746 7.11247C3.72162 7.0268 3.74611 6.93309 3.77277 6.84098" stroke="#333333" stroke-linecap="round" stroke-linejoin="round"/>
</svg>
