<svg width="5" height="5" viewBox="0 0 5 5" fill="none" xmlns="http://www.w3.org/2000/svg">
<path d="M1.05128 1.92295C1.20974 2.00049 1.22476 2.21876 1.25809 2.37633C1.26708 2.41882 1.28407 2.46002 1.28593 2.50359C1.29113 2.62576 1.2865 2.74943 1.2865 2.87175C1.2865 3.00008 1.25924 3.12467 1.3149 3.24218C1.32 3.25295 1.32545 3.27135 1.3274 3.28308C1.33146 3.30744 1.36343 3.31906 1.36888 3.34899C1.37786 3.39841 1.38555 3.46321 1.40126 3.51034C1.42933 3.59456 1.45028 3.67997 1.49103 3.76373C1.51251 3.8079 1.55284 3.8389 1.5717 3.88134C1.57914 3.89807 1.59899 3.9024 1.60352 3.91827C1.6099 3.9406 1.61389 3.98271 1.6342 3.99667C1.64463 4.00384 1.61144 4.02072 1.60579 4.01712C1.59044 4.00735 1.57747 3.9754 1.57284 3.95917C1.56651 3.93702 1.55239 3.93091 1.55239 3.90236C1.55239 3.87858 1.54021 3.85075 1.52966 3.82964C1.51311 3.79653 1.46939 3.79433 1.45523 3.76884C1.43951 3.74054 1.53232 3.75859 1.54443 3.766C1.64427 3.82713 1.73077 3.90876 1.82964 3.97167C1.86946 3.99701 1.91614 4.00016 1.95861 4.02564C2.0504 4.08072 2.15603 4.16145 2.26029 4.1887C2.31614 4.2033 2.37615 4.21317 2.433 4.22165C2.50966 4.2331 2.63745 4.26692 2.71423 4.23813C2.78582 4.21128 2.64838 3.97762 2.63185 3.95122C2.57375 3.85842 2.49903 3.77573 2.43414 3.6876C2.36605 3.59514 2.31038 3.50587 2.21256 3.4416C2.14015 3.39401 2.07678 3.3242 2.01485 3.26434C1.94136 3.19329 1.90437 3.1082 1.85918 3.01719C1.79913 2.89626 1.73068 2.7786 1.67283 2.65699C1.62369 2.55369 1.56954 2.45158 1.55295 2.33713C1.54078 2.25316 1.53193 2.17298 1.53193 2.08828C1.53193 1.9565 1.49615 1.83094 1.49103 1.70024C1.48913 1.65203 1.46159 1.61223 1.46035 1.56162C1.45928 1.51812 1.44979 1.46834 1.45466 1.42526C1.45775 1.39801 1.54181 1.49401 1.54614 1.49969C1.6266 1.60518 1.70035 1.71642 1.77964 1.82296C1.92373 2.01659 2.05306 2.22693 2.2137 2.40701C2.33903 2.54751 2.42263 2.71605 2.55118 2.85357C2.63146 2.93945 2.72962 3.01061 2.81593 3.09048C2.9035 3.17152 3.01088 3.31345 3.13636 3.33422C3.25205 3.35336 3.37897 3.34597 3.49543 3.34217C3.56014 3.34006 3.62863 3.35035 3.63633 3.27286C3.65035 3.13165 3.64924 2.97004 3.63689 2.828C3.62919 2.73935 3.58533 2.66477 3.55565 2.58313C3.5431 2.54863 3.51574 2.51994 3.4977 2.48826C3.43926 2.38564 3.38787 2.27907 3.32953 2.17635C3.22182 1.98671 3.10259 1.8298 2.90683 1.72354C2.81664 1.67458 2.7063 1.69059 2.63526 1.76501C2.57266 1.83059 2.54603 2.03951 2.62276 2.10703C2.68852 2.1649 2.70212 2.22852 2.73923 2.30645C2.79589 2.42544 2.83469 2.55252 2.89206 2.67063C2.96334 2.81738 3.06938 2.94515 3.14772 3.08878" stroke="#333333" stroke-linecap="round" stroke-linejoin="round"/>
</svg>
