<svg width="5" height="6" viewBox="0 0 5 6" fill="none" xmlns="http://www.w3.org/2000/svg">
<path d="M0.741379 1.48739C0.745104 1.46318 0.788617 1.18823 0.805011 1.19536C0.82697 1.20492 0.826779 1.23853 0.832281 1.26184C0.847703 1.32717 0.858408 1.39361 0.867506 1.46012C0.926746 1.8932 0.949817 2.3302 0.960113 2.76684C0.968946 3.14143 0.964838 3.46877 0.969203 3.8429C0.972636 4.13707 0.967081 4.44246 1.01295 4.73488C1.014 4.7416 1.0346 4.91186 1.06806 4.84169C1.15458 4.66029 1.17611 4.42916 1.1976 4.23435C1.27205 3.55916 1.24138 2.87752 1.26407 2.19984C1.26474 2.1798 1.30823 1.24953 1.35497 1.25672C1.36825 1.25877 1.36762 1.28096 1.36974 1.29422C1.37848 1.34895 1.38281 1.40432 1.38735 1.45955C1.42264 1.88814 1.43688 2.31841 1.46405 2.74753C1.49438 3.22653 1.51013 3.7229 1.61859 4.19288C1.62455 4.21872 1.6928 4.51001 1.70381 4.32696C1.76571 3.29787 1.72841 2.26383 1.73392 1.23343C1.73405 1.20944 1.72716 0.873034 1.77483 1.13571C1.8954 1.8001 1.95832 2.47666 2.06174 3.14409C2.13266 3.60177 2.19208 4.0699 2.35035 4.50763C2.35985 4.53389 2.36839 4.56058 2.3799 4.58603C2.38364 4.59431 2.38678 4.60931 2.39581 4.60819C2.40506 4.60703 2.40528 4.59175 2.40717 4.58262C2.41646 4.53759 2.43975 4.33019 2.44126 4.31559C2.51183 3.63045 2.47526 2.94482 2.49523 2.25779C2.49694 2.19898 2.48897 2.06308 2.53557 2.20325C2.72175 2.76331 2.7918 3.36637 2.89009 3.94573C2.95567 4.3323 3.0108 4.72588 3.13382 5.09963C3.14579 5.13599 3.15759 5.17254 3.17302 5.20758C3.17874 5.22055 3.18347 5.2382 3.19688 5.2428C3.20534 5.2457 3.21029 5.22979 3.21279 5.22121C3.22256 5.18771 3.23589 5.05857 3.23779 5.03486C3.25953 4.76409 3.24688 4.4885 3.24688 4.21731C3.24688 3.75494 3.25552 3.29158 3.24233 2.82934C3.23659 2.6281 3.23881 2.762 3.2287 2.60776C3.22561 2.5607 3.23921 2.61701 3.24574 2.63844C3.40993 3.17707 3.56832 3.72046 3.69344 4.26957C3.76799 4.59676 3.79631 4.92659 3.85593 5.2553C3.8587 5.27059 3.87796 5.34485 3.88036 5.28257C3.88965 5.04099 3.82754 4.79564 3.76843 4.56444C3.61506 3.96452 3.42781 3.3722 3.24574 2.78048C3.1712 2.53821 3.08213 2.29907 3.0111 2.0561C2.95911 1.87823 2.90896 1.69966 2.85827 1.52148C2.84032 1.45837 2.84845 1.42833 2.89918 1.49818C2.98273 1.61324 3.05277 1.74047 3.11734 1.86691C3.18469 1.99876 3.25287 2.12337 3.28779 2.26801C3.31961 2.39987 3.32455 2.53741 3.35937 2.66799C3.3764 2.73182 3.4102 2.78731 3.42868 2.84979C3.45901 2.95227 3.47099 3.05652 3.51732 3.15431C3.58525 3.29774 3.59704 3.45654 3.64571 3.60542C3.66411 3.6617 3.68977 3.7357 3.71787 3.78722C3.74436 3.83579 3.7379 3.88338 3.75877 3.9321C3.79601 4.01899 3.8172 4.10874 3.86047 4.19288C3.9045 4.27848 3.96346 4.35241 4.00364 4.44172C4.01081 4.45765 4.06731 4.58895 4.06898 4.53717C4.07116 4.46973 4.03432 4.40596 4.03432 4.33662C4.03432 4.30048 4.0353 4.26422 4.03432 4.2281C4.03348 4.19704 4.00912 4.17369 3.99569 4.14629C3.92126 3.99444 3.90039 3.81971 3.83036 3.66564C3.76739 3.5271 3.75044 3.36913 3.70935 3.22363C3.66758 3.07573 3.63732 2.92657 3.59685 2.77821C3.57408 2.6947 3.54853 2.61219 3.52754 2.52822C3.49763 2.40857 3.47794 2.29174 3.45539 2.17143C3.44028 2.09087 3.4233 2.01174 3.42073 1.9294C3.4201 1.90926 3.39228 1.79262 3.40255 1.86691C3.41655 1.96813 3.47388 2.06448 3.5122 2.15836C3.54463 2.23781 3.57101 2.31663 3.60026 2.39641C3.63929 2.50286 3.6442 2.62148 3.67639 2.73162C3.70164 2.81797 3.71992 2.90822 3.73775 2.99637C3.75281 3.07082 3.77792 3.14135 3.79116 3.21567C3.80187 3.27583 3.84234 3.32885 3.86445 3.38498C3.87924 3.42253 3.87664 3.4636 3.88774 3.50202C3.89993 3.54419 3.91717 3.57985 3.92183 3.62417C3.92767 3.67968 3.94392 3.74155 3.97069 3.79063C3.99339 3.83225 3.99384 3.88475 4.00933 3.92926C4.0837 4.14308 4.07889 4.38511 4.17806 4.59171C4.20189 4.64136 4.20386 4.69543 4.22635 4.74511C4.25938 4.81803 4.2253 4.7705 4.21045 4.72238C4.19263 4.66467 4.18772 4.59093 4.18772 4.53035C4.18772 4.50628 4.16266 4.48054 4.1525 4.45877C4.12141 4.39216 4.12636 4.33328 4.12636 4.25878C4.12636 4.21361 4.1471 4.12584 4.08546 4.12584" stroke="#333333" stroke-linecap="round" stroke-linejoin="round"/>
</svg>
