<svg width="4" height="6" viewBox="0 0 4 6" fill="none" xmlns="http://www.w3.org/2000/svg">
<path d="M2.17776 3.5538C2.30229 3.82274 2.40869 4.0995 2.53796 4.36624C2.57744 4.44771 2.60889 4.54773 2.67204 4.61509C2.69014 4.63439 2.70744 4.63238 2.71976 4.66054C2.73519 4.6958 2.75963 4.80899 2.7459 4.77303C2.70546 4.66711 2.65015 4.57037 2.59761 4.47021C2.54693 4.3736 2.52519 4.28068 2.50955 4.17307C2.50449 4.13827 2.49625 4.08827 2.52546 4.06115C2.56445 4.02494 2.54375 3.95907 2.57432 3.91627C2.62747 3.84186 2.74301 4.04637 2.75556 4.07251C2.76397 4.09004 2.77108 4.1082 2.77771 4.12648C2.78348 4.14238 2.78379 4.19047 2.79135 4.17534C2.8027 4.15265 2.79135 4.12459 2.79135 4.09921C2.79135 4.03104 2.79135 3.96286 2.79135 3.89468C2.79135 3.57878 2.81481 3.25183 2.7868 2.9368C2.76452 2.68608 2.752 2.42643 2.68113 2.18344C2.57832 1.83095 2.48092 1.47509 2.14935 1.27214C2.11016 1.24816 1.97261 1.15147 1.91641 1.18636C1.8836 1.20672 1.87382 1.26046 1.86755 1.29373C1.84327 1.4227 1.83449 1.56647 1.84369 1.69711C1.86128 1.94691 1.99147 2.16791 2.14253 2.36127C2.16145 2.38549 2.21221 2.45279 2.21184 2.42206C2.21109 2.35814 2.17537 2.28606 2.14708 2.2323C2.04518 2.0387 1.88547 1.89335 1.71699 1.7579C1.51031 1.59175 1.26807 1.46618 1.06988 1.29032C1.0179 1.2442 0.985393 1.16751 0.943186 1.11306C0.905786 1.06482 0.866886 1.01774 0.82899 0.969893C0.827346 0.967818 0.76682 0.881418 0.786947 0.935805C0.879784 1.18666 1.04843 1.40655 1.18578 1.63348C1.35966 1.92076 1.54294 2.21155 1.67779 2.51978C1.75564 2.69772 1.78967 2.89588 1.88119 3.06747C1.91725 3.13508 1.97449 3.18585 2.01413 3.24927C2.02313 3.26367 2.05843 3.36477 2.03913 3.36915C2.01368 3.37494 1.96769 3.33524 1.95277 3.322C1.85515 3.2353 1.79463 3.10555 1.74483 2.98793C1.61706 2.68615 1.53668 2.34682 1.48008 2.02436C1.44845 1.84415 1.42773 1.67874 1.35963 1.50849" stroke="#333333" stroke-linecap="round" stroke-linejoin="round"/>
</svg>
