<svg width="8" height="4" viewBox="0 0 8 4" fill="none" xmlns="http://www.w3.org/2000/svg">
<path d="M1.78112 1.02587C1.8867 1.03495 1.99216 1.0349 2.09814 1.03553C2.43481 1.03752 2.76788 1.04503 3.10319 1.07871C3.53859 1.12244 3.969 1.20042 4.40707 1.15711C4.70984 1.12718 5.01047 1.09261 5.31496 1.08723C5.46434 1.08459 5.6095 1.05163 5.75811 1.04632C5.93143 1.04013 6.10278 1.02587 6.27682 1.02587C6.34977 1.02587 6.43364 1.03788 6.50351 1.01792C6.56897 0.999212 6.71906 1.00588 6.75349 1.07473C6.76062 1.089 6.78884 1.09148 6.79156 1.10371C6.79547 1.12131 6.78951 1.13727 6.79724 1.15427C6.81142 1.18547 6.82562 1.21882 6.84326 1.24858C6.91154 1.36381 6.92918 1.51456 6.98416 1.63719C7.01017 1.69522 7.03485 1.75635 7.0671 1.80934C7.10102 1.86505 7.13173 1.93608 7.15005 1.99966C7.17765 2.09544 7.22441 2.1753 7.24323 2.27408C7.25349 2.32794 7.27849 2.38073 7.30345 2.42918C7.33605 2.49246 7.34769 2.57328 7.36026 2.6428C7.36948 2.69371 7.38526 2.7437 7.38526 2.79563C7.38526 2.835 7.37826 2.88314 7.39094 2.92119C7.40212 2.95471 7.37627 2.93933 7.33868 2.953C7.22655 2.99378 7.10565 2.97914 6.98756 2.97914C5.61266 2.97914 4.23776 2.97914 2.86286 2.97914C2.65038 2.97914 2.43789 2.97914 2.22541 2.97914C1.92336 2.97914 1.63029 3.02331 1.33172 3.06436C1.32222 3.06567 1.23801 3.08422 1.23116 3.06436C1.21094 3.00571 1.25168 2.92922 1.26752 2.8746C1.32843 2.66456 1.35167 2.44833 1.38058 2.23147C1.3862 2.18934 1.36819 2.16418 1.41751 2.16102C1.48317 2.15681 1.54705 2.13744 1.61182 2.12693C1.72894 2.10792 1.84816 2.09617 1.96634 2.08602C2.32401 2.0553 2.67972 2.03317 3.03785 2.06386C3.50494 2.1039 3.98045 2.0792 4.44911 2.0792C4.79719 2.0792 5.14527 2.0792 5.49335 2.0792C5.54933 2.0792 5.60559 2.07757 5.66152 2.0792C5.75731 2.082 5.85147 2.10224 5.94673 2.11102C6.09054 2.12428 6.23544 2.12011 6.37965 2.12011C6.52775 2.12011 6.67584 2.12011 6.82394 2.12011C6.83688 2.12011 6.87292 2.12697 6.88416 2.11784C6.93026 2.08038 6.79844 1.94279 6.77622 1.92581C6.71157 1.87641 6.63295 1.8514 6.55578 1.82979C6.40235 1.78683 6.24442 1.75971 6.08706 1.73605C5.87048 1.70347 5.65334 1.67451 5.43654 1.64344C5.21528 1.61173 4.99244 1.56378 4.76897 1.5514C4.41435 1.53176 4.0551 1.54028 3.7003 1.53947C3.09275 1.53809 2.48582 1.5463 1.87884 1.57356C1.83781 1.5754 1.57169 1.58923 1.49478 1.59401C1.46702 1.59574 1.43563 1.5887 1.41183 1.6031C1.4009 1.60972 1.49429 1.6698 1.49478 1.67014" stroke="#333333" stroke-linecap="round" stroke-linejoin="round"/>
</svg>
