<svg width="8" height="3" viewBox="0 0 8 3" fill="none" xmlns="http://www.w3.org/2000/svg">
<path d="M1.20227 2.29449C1.50217 2.37446 1.83084 2.33706 2.13892 2.33706C2.30213 2.33706 2.46533 2.33706 2.62854 2.33706C3.25218 2.33706 3.87583 2.33706 4.49948 2.33706C4.65795 2.33706 4.81643 2.33706 4.9749 2.33706C5.09901 2.33706 5.22338 2.33921 5.34743 2.3347C5.38887 2.33319 5.43033 2.33147 5.47161 2.3276C5.50627 2.32436 5.59624 2.33014 5.57332 2.30395C5.54741 2.27434 5.35126 2.29449 5.32851 2.29449C5.20433 2.29449 5.08016 2.29449 4.95598 2.29449C4.66662 2.29449 4.37727 2.29449 4.08792 2.29449C3.85533 2.29449 3.62275 2.29449 3.39016 2.29449C3.23247 2.29449 3.07479 2.29449 2.9171 2.29449C2.78504 2.29449 2.3983 2.33999 2.52092 2.29094C2.74738 2.20035 2.99468 2.2071 3.23523 2.19988C3.63292 2.18793 4.03071 2.18805 4.42852 2.18805C5.06777 2.18805 5.71072 2.20957 6.34913 2.17622C6.7462 2.15548 6.29488 2.14393 6.17765 2.14902C5.55011 2.17631 4.9292 2.27553 4.30434 2.33233C3.60345 2.39605 2.88827 2.39073 2.18386 2.37964C2.01234 2.37694 1.84324 2.36476 1.67414 2.3347C1.65526 2.33134 1.42328 2.30334 1.40569 2.25191C1.38795 2.20008 2.36655 2.09574 2.38728 2.09344C2.95479 2.03049 3.522 1.94031 4.09028 1.88766C4.42853 1.85632 4.77043 1.86874 5.10972 1.86874C5.32812 1.86874 5.54651 1.86874 5.76491 1.86874C6.28295 1.86874 4.72896 1.84745 4.21091 1.84745C3.73037 1.84745 3.24982 1.84745 2.76927 1.84745C2.60686 1.84745 2.44444 1.84745 2.28202 1.84745C2.25448 1.84745 2.19547 1.85905 2.17204 1.83562C2.14927 1.81286 2.16024 1.76791 2.18505 1.75166C2.26722 1.69782 2.41411 1.69689 2.50318 1.68425C2.70372 1.65578 2.90386 1.62581 3.10396 1.59436C3.5337 1.52683 3.95405 1.48556 4.38831 1.48556C4.69159 1.48556 5.03729 1.53551 5.33206 1.45363C5.37128 1.44274 5.40879 1.44299 5.44914 1.44299C5.49797 1.44299 5.30661 1.46212 5.28239 1.46427C4.9429 1.49445 4.61095 1.59223 4.27241 1.62984C3.86473 1.67514 3.44853 1.61329 3.04365 1.61329C2.96021 1.61329 2.88529 1.57071 2.80948 1.57071C2.78149 1.57071 3.0082 1.5382 3.0602 1.5305C3.11619 1.52221 3.17755 1.52814 3.23405 1.52814C3.32861 1.52814 3.34908 1.52167 3.39489 1.61329" stroke="#333333" stroke-linecap="round" stroke-linejoin="round"/>
</svg>
