<svg width="3" height="6" viewBox="0 0 3 6" fill="none" xmlns="http://www.w3.org/2000/svg">
<path d="M1.64255 1.40363C1.68277 2.46436 1.64283 3.52685 1.66278 4.58796C1.66311 4.60542 1.65266 4.82165 1.69219 4.85271C1.74269 4.89239 1.72884 4.72896 1.73632 4.66518C1.79731 4.14533 1.8194 3.60136 1.78412 3.07853C1.77419 2.93139 1.74372 2.7864 1.70782 2.64372C1.69304 2.58495 1.66862 2.41628 1.62049 2.36334C1.61616 2.35858 1.6129 2.37441 1.61222 2.38081C1.60265 2.47009 1.60946 2.56037 1.60946 2.65016C1.60946 2.95781 1.60969 3.26551 1.60211 3.5731C1.59289 3.94672 1.55851 5.06619 1.54327 4.69276C1.5142 3.98037 1.37449 3.28166 1.26198 2.57845" stroke="#333333" stroke-linecap="round" stroke-linejoin="round"/>
</svg>
