<svg width="2" height="3" viewBox="0 0 2 3" fill="none" xmlns="http://www.w3.org/2000/svg">
<path d="M1.13398 1.57038C1.17004 1.43194 1.19056 1.29891 1.21484 1.1593C1.21719 1.1458 1.23616 1.02833 1.22343 1.02287C1.20772 1.01614 1.2151 1.05603 1.21078 1.07256C1.18704 1.16337 1.16243 1.25385 1.13986 1.34496C1.11642 1.43955 1.0918 1.53396 1.07074 1.6291C1.06526 1.65388 1.05745 1.68972 1.06216 1.63633C1.07265 1.51747 1.10061 1.39981 1.11772 1.28172C1.12765 1.21319 1.14081 1.14354 1.14934 1.07528C1.16179 0.975694 1.15025 0.86884 1.15025 0.768546C1.15025 0.694948 1.15356 0.731077 1.14934 0.778484C1.14403 0.838224 1.12407 0.907025 1.10914 0.965503C1.05765 1.16715 0.976527 1.35629 0.934768 1.56044C0.922157 1.62209 0.919326 1.59752 0.926636 1.55366C0.932917 1.51598 0.938833 1.47849 0.938833 1.44028C0.938833 1.36598 0.971358 1.29204 0.971358 1.21667C0.971358 1.1791 0.981824 1.1277 0.989428 1.09063C0.995566 1.06071 0.991109 1.02638 1.0075 0.999384C1.01379 0.989014 1.01738 0.975521 1.02421 0.965955C1.03964 0.944361 1.02905 1.01894 1.02828 1.04546C1.02518 1.15141 0.972017 1.24157 0.953289 1.3427C0.94354 1.39535 0.935948 1.44897 0.922571 1.50081C0.905442 1.56718 0.886108 1.63949 0.87559 1.7068C0.872958 1.72365 0.842976 1.85064 0.841258 1.7845C0.840231 1.74494 0.841054 1.70666 0.853907 1.66886C0.861816 1.64559 0.872509 1.62413 0.873783 1.59929C0.875425 1.56728 0.896072 1.54112 0.898177 1.51165C0.900331 1.4815 0.906866 1.44852 0.920764 1.42131C0.935971 1.39152 0.9377 1.35749 0.938833 1.32463C0.940019 1.29025 0.954165 1.26159 0.955096 1.22435C0.956397 1.1723 0.995752 1.12459 0.995752 1.07437" stroke="#333333" stroke-linecap="round" stroke-linejoin="round"/>
</svg>
