<svg width="6" height="3" viewBox="0 0 6 3" fill="none" xmlns="http://www.w3.org/2000/svg">
<path d="M5.04404 2.00662C5.0089 1.85366 4.99579 1.70028 4.88269 1.57937C4.8648 1.56025 4.84844 1.54652 4.83951 1.52086C4.82814 1.48817 4.79602 1.48011 4.77872 1.44984C4.7482 1.39642 4.77557 1.40135 4.82701 1.40325C4.86571 1.40468 4.91482 1.41361 4.94746 1.4345C4.96826 1.44781 4.98909 1.46217 5.00995 1.47484C5.03852 1.49218 5.102 1.52811 5.02472 1.49529C4.94548 1.46164 4.89734 1.38282 4.82019 1.347C4.79622 1.33587 4.76476 1.32567 4.74293 1.31235C4.66158 1.26271 4.57942 1.23687 4.49181 1.20099C4.45278 1.18501 4.40909 1.17009 4.37363 1.14645C4.3326 1.11909 4.30779 1.11978 4.26001 1.10555C4.03248 1.03777 3.82148 0.931207 3.60437 0.839655C3.54232 0.813489 3.47153 0.795348 3.40723 0.774887C3.30501 0.742362 3.20066 0.705339 3.09702 0.678303C2.96202 0.643086 2.83131 0.62151 2.69421 0.597627C2.41996 0.549854 2.14811 0.554448 1.87097 0.554448C1.74426 0.554448 1.62232 0.553616 1.49657 0.56922C1.38429 0.583153 1.2827 0.60006 1.175 0.635124C1.11848 0.653527 1.04752 0.653288 1.01479 0.707846" stroke="#333333" stroke-linecap="round" stroke-linejoin="round"/>
</svg>
