<svg width="6" height="8" viewBox="0 0 6 8" fill="none" xmlns="http://www.w3.org/2000/svg">
<path d="M4.72999 6.09218C4.63601 5.55875 4.5716 5.14134 4.44478 4.61729C4.32746 4.1325 4.16735 3.66555 3.97833 3.20489C3.82181 2.8234 3.65248 2.44878 3.45053 2.08906C3.34547 1.90192 3.24004 1.71277 3.11931 1.53512C3.10512 1.51425 3.08268 1.46899 3.04942 1.46467C2.97457 1.45495 2.87095 1.55773 2.83012 1.60387C2.73605 1.71017 2.64687 1.86801 2.579 1.98452C2.39602 2.29865 2.21984 2.61695 2.0387 2.93218C1.74527 3.44282 1.53757 4.00061 1.33591 4.55252C1.14882 5.06456 0.996251 5.58887 0.858105 6.11604C0.849021 6.15071 0.801405 6.30786 0.809813 6.3683C0.821669 6.45351 0.971427 6.38924 1.00753 6.37966C1.32999 6.29403 1.63912 6.22583 1.97564 6.22285C2.39713 6.21912 2.79536 6.29195 3.18919 6.43988C3.32196 6.48976 3.4564 6.56179 3.59768 6.58646C3.65028 6.59565 3.70094 6.59062 3.72551 6.53533C3.74345 6.49497 3.75393 6.42632 3.75846 6.38761C3.78298 6.17825 3.79156 5.96252 3.7738 5.75243C3.72495 5.17437 3.49183 4.63118 3.28804 4.0946C3.12273 3.65933 2.96323 3.22533 2.85853 2.77083C2.79781 2.50723 2.77415 2.23912 2.72218 1.97429C2.71735 1.94972 2.72621 1.91536 2.7057 1.901C2.70187 1.89832 2.70144 1.90947 2.70059 1.91407C2.69012 1.97015 2.68431 2.027 2.67559 2.08338C2.61819 2.45447 2.55557 2.82319 2.45742 3.18614C2.28541 3.82221 2.04424 4.44043 1.88701 5.08032C1.87355 5.1351 1.82997 5.24611 1.88928 5.29224C1.98376 5.36572 2.11739 5.41999 2.22676 5.46268C2.46282 5.55483 2.71604 5.60265 2.96534 5.64335C2.99413 5.64805 3.12686 5.69055 3.14033 5.64051C3.19875 5.4235 3.17603 5.16208 3.15737 4.94226C3.13316 4.65704 3.12058 4.3327 3.01079 4.06392C3.00717 4.05505 2.99614 4.00579 2.9767 4.02301C2.91939 4.07378 2.90541 4.18907 2.88694 4.25595C2.81425 4.51907 2.73672 4.78185 2.67559 5.04794C2.64703 5.17223 2.63747 5.29799 2.61423 5.42291C2.60856 5.45338 2.58147 5.45532 2.57219 5.42745" stroke="#333333" stroke-linecap="round" stroke-linejoin="round"/>
</svg>
