<svg width="8" height="6" viewBox="0 0 8 6" fill="none" xmlns="http://www.w3.org/2000/svg">
<path d="M6.55251 4.63245C6.32021 3.8449 6.07945 3.05711 5.7936 2.28704C5.75606 2.18592 5.71927 2.08382 5.66892 1.98844C5.66077 1.97301 5.63045 1.94789 5.62284 1.96359C5.60418 2.0021 5.61965 2.04911 5.61877 2.09189C5.61702 2.17788 5.61742 2.2647 5.61742 2.35073C5.61742 2.52158 5.62606 2.69558 5.61561 2.86616C5.61469 2.88124 5.60822 2.9184 5.59754 2.90772C5.55012 2.8603 5.54248 2.7337 5.52707 2.67372C5.43683 2.32256 5.32359 1.97881 5.12954 1.66906C5.05969 1.55755 4.97489 1.41098 4.86618 1.33116C4.83576 1.30883 4.83295 1.32267 4.82778 1.35556C4.81285 1.45065 4.82077 1.55249 4.82056 1.64828C4.82021 1.80352 4.81814 1.9592 4.8314 2.11402C4.85205 2.35523 4.89514 2.59465 4.93259 2.83364C4.96539 3.04301 4.97499 3.24853 4.98725 3.45929C4.99209 3.54259 5.01844 3.61508 5.03603 3.69691C5.07067 3.85804 5.09885 4.02965 5.11373 4.19336C5.11665 4.2255 5.14462 4.25007 5.14581 4.281C5.14608 4.28816 5.14469 4.29609 5.14626 4.30314C5.14742 4.30835 5.16199 4.31533 5.15665 4.31533C5.11654 4.31533 5.11615 4.26147 5.10876 4.23402C5.09532 4.18409 5.07106 4.13809 5.05636 4.08811C5.03113 4.00234 4.99657 3.92039 4.96511 3.83649C4.92274 3.72352 4.91325 3.60777 4.88199 3.49317C4.8492 3.37294 4.81963 3.24891 4.77945 3.13088C4.69672 2.88785 4.65042 2.6301 4.55268 2.39184C4.49437 2.24972 4.47846 2.09359 4.41038 1.95366C4.37434 1.87957 4.33712 1.79111 4.2595 1.75399C4.15564 1.70432 4.04458 1.72146 3.93063 1.72146C3.77894 1.72146 3.62461 1.7193 3.47619 1.7558C3.41031 1.772 3.36451 1.80662 3.30995 1.84434C3.2349 1.89622 3.1518 1.93282 3.07505 1.98166C3.00002 2.02941 2.93926 2.0934 2.87267 2.15152C2.79236 2.22161 2.70398 2.27749 2.61608 2.33718C2.41669 2.47259 2.26084 2.65875 2.12595 2.85668C2.08006 2.92401 2.03815 2.99297 2.00172 3.06583C1.97226 3.12476 1.98215 3.04067 1.98546 3.02066C2.00536 2.90015 2.05524 2.79763 2.12188 2.69767C2.14424 2.66414 2.17861 2.63827 2.20726 2.61048C2.28659 2.53352 2.3722 2.4675 2.45888 2.39907C2.5471 2.32942 2.62584 2.24869 2.71004 2.17501C2.78033 2.11351 2.84685 2.06987 2.93682 2.04265C3.08954 1.99643 3.24658 1.94226 3.40481 1.92068C3.56365 1.89902 3.75577 1.84281 3.91166 1.91029C4.07456 1.9808 4.18604 2.09507 4.24956 2.26445C4.25635 2.28257 4.26478 2.30351 4.26718 2.32272C4.2712 2.35487 4.26325 2.29466 4.2586 2.28568C4.24043 2.25064 4.21272 2.16562 4.17819 2.1461C4.10382 2.10406 3.9847 2.1042 3.90263 2.10363C3.75074 2.10258 3.59836 2.09825 3.44773 2.12035C3.36864 2.13195 3.28436 2.13877 3.21147 2.1741C3.14064 2.20843 3.07522 2.25545 3.01271 2.30285C2.80233 2.46236 2.67326 2.73572 2.56052 2.96826C2.55224 2.98532 2.52289 3.04366 2.52935 3.03692C2.6126 2.95004 2.75523 2.91864 2.86725 2.89778C3.01511 2.87026 3.1655 2.86879 3.31537 2.86797C3.56411 2.86661 3.8129 2.86797 4.06164 2.86797C4.31454 2.86797 4.56724 2.85984 4.8201 2.85984C4.89595 2.85984 4.66855 2.85326 4.59288 2.84809C4.19582 2.821 3.79425 2.82223 3.39849 2.77853C3.08623 2.74404 2.77384 2.72046 2.46069 2.6945C2.44813 2.69346 2.30933 2.69998 2.30529 2.66288C2.29712 2.58801 2.42571 2.46915 2.46746 2.42888C2.61451 2.28709 2.78933 2.18081 2.97973 2.10815C3.52262 1.90096 4.10362 1.79247 4.6751 1.70068C5.18873 1.61818 5.70213 1.53726 6.21461 1.44771C7.60266 1.20518 5.7434 1.53021 6.40479 1.41519C6.4128 1.41379 6.43686 1.41067 6.42874 1.41067C6.35816 1.41067 6.28846 1.42631 6.21823 1.43326C5.4865 1.50559 4.7542 1.52372 4.01918 1.52631C3.71879 1.52737 2.94142 1.52313 2.63325 1.51909C2.44546 1.51662 2.25768 1.51311 2.06993 1.50824C2.05555 1.50787 1.57754 1.50036 1.46461 1.47391C1.45538 1.47175 1.44723 1.45034 1.45602 1.44681C1.50598 1.42674 1.56098 1.4224 1.61413 1.41383C1.97113 1.35625 2.3373 1.35415 2.69739 1.33749C3.36624 1.30654 3.69493 1.29202 4.3905 1.24985C5.16076 1.20315 5.93559 1.16174 6.70249 1.07187C6.8503 1.05454 7.01504 1.03594 6.7829 1.02669C6.56129 1.01786 6.04484 1.02427 5.87762 1.02669C5.35169 1.0343 5.06508 1.04227 4.54274 1.06283C4.37811 1.06931 4.21358 1.07811 4.04899 1.08542C4.02487 1.08649 3.70125 1.10636 3.93244 1.0818C4.6115 1.00967 5.29097 0.934099 5.97068 0.868585C6.0553 0.860429 6.06268 0.846639 6.05651 0.908338" stroke="#333333" stroke-linecap="round" stroke-linejoin="round"/>
</svg>
