<svg width="7" height="12" viewBox="0 0 7 12" fill="none" xmlns="http://www.w3.org/2000/svg">
<path d="M5.86485 5.73241C5.86485 5.80357 5.871 5.87834 5.85106 5.94752C5.77875 6.19851 5.68281 6.4322 5.63688 6.69213C5.60141 6.89283 5.61332 7.09672 5.57437 7.29608C5.53857 7.47927 5.53392 7.65237 5.53392 7.83845C5.53392 8.28245 5.53392 8.72646 5.53392 9.17046C5.53392 9.49741 5.53392 9.82436 5.53392 10.1513C5.53392 10.3223 5.53392 10.4933 5.53392 10.6643C5.53392 10.6873 5.52728 10.7522 5.51737 10.7314C5.4978 10.6903 5.5013 10.6371 5.50082 10.5935C5.49877 10.4048 5.50182 10.216 5.50082 10.0272C5.49933 9.74306 5.47463 9.46428 5.44199 9.18241C5.39399 8.76789 5.24307 8.36789 5.01913 8.01954C4.90541 7.84264 4.8584 7.63752 4.73967 7.46155C4.68174 7.37569 4.58374 7.26946 4.55858 7.16463C4.55069 7.13176 4.54194 7.05653 4.54111 7.13889C4.5382 7.4275 4.4852 7.71273 4.47125 8.00116C4.45268 8.38499 4.44183 8.76589 4.44183 9.15024C4.44183 9.28622 4.4689 9.41339 4.49055 9.54736C4.5244 9.75679 4.54866 9.99279 4.67257 10.1725C4.72978 10.2554 4.76148 10.3528 4.84815 10.4115C4.86022 10.4196 4.78541 10.2368 4.76357 10.2037C4.71091 10.1238 4.63621 10.0681 4.58983 9.98309C4.53205 9.87716 4.46149 9.75587 4.35083 9.69628C4.2482 9.64102 4.19202 9.54818 4.0778 9.50507C3.87765 9.42955 3.79485 9.15703 3.62185 9.03809C3.59916 9.02249 3.56216 8.93318 3.55198 8.90571C3.51978 8.81875 3.47887 8.75511 3.42513 8.68601C3.37897 8.62666 3.30973 8.52949 3.27988 8.45895C3.24995 8.38819 3.18468 8.33639 3.14383 8.27326C3.07299 8.16378 2.95636 8.08382 2.89011 7.97542C2.85235 7.91362 2.88644 8.10957 2.88644 8.13997C2.88644 8.20465 2.85074 8.00637 2.80003 7.96623C2.75418 7.92993 2.65478 7.63825 2.65478 7.80076C2.65478 7.8662 2.68387 7.95972 2.62904 7.87062C2.6128 7.84422 2.59296 7.77282 2.58768 7.74376C2.58395 7.72328 2.56757 7.70382 2.55918 7.68493C2.54775 7.65922 2.56277 7.62819 2.55183 7.6022C2.53799 7.56933 2.50586 7.49475 2.50586 7.46155C2.50586 7.42087 2.47647 7.3183 2.45622 7.28413C2.43825 7.25381 2.42793 7.20691 2.42405 7.17198C2.41948 7.13088 2.39668 7.09984 2.39095 7.06259C2.37923 6.98639 2.37097 6.91172 2.35878 6.83553C2.35299 6.79932 2.36451 6.75973 2.34959 6.72522C2.32887 6.67732 2.29562 6.62497 2.29075 6.57262C2.28503 6.51104 2.23877 6.39999 2.20802 6.34464C2.17087 6.27778 2.1525 6.18253 2.12896 6.10931C2.10829 6.04501 2.10991 5.97493 2.08852 5.91075C2.06531 5.84112 2.03995 5.77135 2.01773 5.70024C1.96562 5.53346 1.95045 5.33606 1.87525 5.17626C1.79725 5.0105 1.76126 4.78159 1.76126 4.5962C1.76126 4.46449 1.716 4.33356 1.69507 4.20276C1.67615 4.08453 1.65814 3.96588 1.64175 3.84792C1.62242 3.70873 1.61027 3.57463 1.57005 3.43977C1.53983 3.33845 1.55577 3.20697 1.53788 3.09964C1.52665 3.03225 1.49901 2.9613 1.49651 2.89373C1.49398 2.82529 1.50159 2.75596 1.49283 2.68781C1.48315 2.61252 1.44346 2.54617 1.43216 2.4727C1.41956 2.39079 1.43032 2.29881 1.43032 2.21623C1.43032 1.94076 1.43032 1.66528 1.43032 1.38981C1.43032 1.26047 1.44504 1.12974 1.47261 1.00372C1.48419 0.95076 1.50292 0.890693 1.52593 0.841929C1.59323 0.699256 1.62742 0.969124 1.63808 1.0221C1.70786 1.36906 1.80314 1.71764 1.8348 2.07007C1.87363 2.50229 1.97922 2.92233 2.03428 3.3506C2.07722 3.68457 2.17134 4.00748 2.29443 4.32042C2.38817 4.55874 2.4357 4.81795 2.51597 5.06227C2.56268 5.20441 2.58584 5.35803 2.65111 5.4934C2.69347 5.58128 2.72688 5.66421 2.75498 5.75907C2.81533 5.96273 2.91854 6.14528 2.99859 6.34097C3.05586 6.48095 3.09116 6.6223 3.15486 6.76015C3.28769 7.04757 3.38331 7.35208 3.51246 7.63989C3.57028 7.76875 3.65352 7.88957 3.73768 8.003C3.80494 8.09365 3.89669 8.15396 3.96565 8.24017C3.96615 8.24079 4.00879 8.28807 4.0107 8.28521C4.02253 8.26747 4.00933 8.18642 4.00794 8.17306C3.99184 8.01814 3.9561 7.86651 3.92429 7.71435C3.85722 7.39359 3.89579 7.04296 3.89579 6.71603C3.89579 6.54659 3.88756 6.3725 3.86178 6.20492C3.85045 6.13132 3.81077 6.06847 3.79651 5.99716" stroke="#333333" stroke-linecap="round" stroke-linejoin="round"/>
</svg>
