<svg width="17" height="7" viewBox="0 0 17 7" fill="none" xmlns="http://www.w3.org/2000/svg">
<path d="M8.76141 4.00523C8.76141 4.1574 8.76141 4.30957 8.76141 4.46173C8.76141 4.57172 8.7347 4.64733 8.71411 4.7503C8.70239 4.80891 8.69755 4.86109 8.69755 4.9206C8.69755 5.02526 8.6187 5.14172 8.63487 5.23873C8.64278 5.28616 8.86303 5.26343 8.90097 5.25883C9.06898 5.23847 9.21804 5.1181 9.38348 5.09563C9.58667 5.06804 9.78244 5.04227 9.98427 4.99629C10.3042 4.9234 10.5805 4.76656 10.8902 4.67579C11.1009 4.61402 11.2674 4.49429 11.4673 4.4097C11.7422 4.29338 11.9981 4.13696 12.2549 3.98395C12.6112 3.77171 12.9641 3.53013 13.2957 3.28146C13.5655 3.07911 13.8741 2.94035 14.1353 2.72325C14.356 2.53986 14.6103 2.3611 14.7752 2.1201C14.8721 1.9784 14.9889 1.84761 15.0826 1.70381C15.1854 1.54627 15.2694 1.37613 15.3712 1.21774C15.4459 1.10155 15.5316 0.955853 15.5711 0.822742C15.5812 0.788605 15.6073 0.635673 15.6633 0.722217C15.7535 0.861597 15.7224 1.13621 15.7224 1.29698C15.7224 1.3414 15.7383 1.42342 15.7106 1.459C15.6188 1.57704 15.5456 1.71352 15.4623 1.84336C15.333 2.04482 15.1627 2.19655 14.9774 2.3448C14.692 2.57314 14.3258 2.69514 14.0502 2.93139C13.9398 3.02604 13.7873 3.12995 13.6623 3.2034C13.5451 3.27224 13.4405 3.34585 13.3181 3.4009C13.2324 3.4395 13.1521 3.51141 13.0686 3.55819C12.9209 3.6409 12.7493 3.68128 12.6003 3.75924C12.2806 3.92643 11.9548 4.04052 11.621 4.17553C11.4695 4.23683 11.3118 4.28339 11.1716 4.37185C10.9255 4.52721 10.6874 4.68438 10.4325 4.82599C9.75209 5.20399 8.96626 5.42593 8.20557 5.56396C7.95692 5.60907 7.72285 5.66566 7.46997 5.66566C7.12582 5.66566 6.78167 5.66566 6.43752 5.66566C5.27031 5.66566 4.10976 5.62309 2.94281 5.62309C2.64167 5.62309 2.33372 5.64119 2.03573 5.58997C1.72848 5.53717 1.43305 5.41505 1.1452 5.29904C1.10142 5.2814 0.915254 5.26532 0.948877 5.21389C0.985978 5.15715 1.05469 5.12672 1.11208 5.09563C1.4445 4.91557 1.81292 4.81613 2.17528 4.716C2.66615 4.58036 3.15624 4.4262 3.65713 4.33164C4.56863 4.15957 5.4937 4.06489 6.39731 3.85031C7.11158 3.68069 7.80624 3.44145 8.50833 3.22942C9.06629 3.06091 9.63249 2.92265 10.1924 2.76109C11.0246 2.52096 11.8603 2.30852 12.7055 2.1201C13.196 2.01077 13.7168 1.8801 14.1779 1.67306C14.5605 1.50129 14.9613 1.38693 15.3641 1.27333C15.588 1.21018 15.8428 1.12011 16.0205 0.961111C16.0568 0.928612 16.0418 1.03935 16.0418 1.06282C16.0418 1.14348 15.9899 1.21067 15.9436 1.27333C15.6996 1.60349 15.3846 1.88178 14.9774 1.99947C14.4999 2.13746 14.0366 2.25724 13.5795 2.45597C13.0445 2.6886 12.4694 2.80659 11.9262 3.02246C11.1013 3.35021 10.2235 3.53244 9.37875 3.79236" stroke="#333333" stroke-linecap="round" stroke-linejoin="round"/>
</svg>
