<svg width="5" height="6" viewBox="0 0 5 6" fill="none" xmlns="http://www.w3.org/2000/svg">
<path d="M4.46364 2.97195C4.44371 2.59332 4.45314 2.20707 4.39904 1.83131C4.36022 1.5617 4.24839 1.34151 4.02004 1.18397C3.67887 0.948614 3.21625 0.915745 2.8139 0.941843C2.55846 0.958413 2.34864 1.03677 2.12952 1.16636C1.83273 1.34188 1.54216 1.55622 1.29697 1.79924C0.959728 2.1335 0.729163 2.54529 0.682608 3.02119C0.66845 3.16592 0.672257 3.31461 0.674477 3.45982C0.676611 3.59935 0.674239 3.74963 0.728685 3.88129C0.804225 4.06396 0.977992 4.09875 1.16055 4.12026C1.46345 4.15595 1.78786 4.14959 2.09022 4.11032C2.51183 4.05557 2.9318 3.86909 3.27151 3.61657C3.39764 3.52282 3.48336 3.45196 3.5823 3.32837C3.76259 3.10315 3.85486 2.83631 3.90981 2.55545C3.97219 2.23661 3.98914 1.90354 3.98661 1.57924C3.98531 1.41365 3.987 1.24671 3.81947 1.15597C3.70774 1.09545 3.4739 1.05138 3.35598 1.05478C2.93758 1.06683 2.54819 1.28379 2.21942 1.52278C1.73473 1.8751 1.29556 2.33285 1.03225 2.87799C0.849768 3.25579 0.748943 3.72812 0.990692 4.10535C1.16718 4.38075 1.38578 4.49521 1.69314 4.59503C2.19792 4.75898 2.77284 4.75921 3.28642 4.63434C3.62366 4.55233 3.98722 4.38979 4.15872 4.06921C4.30347 3.79863 4.2657 3.47355 4.1655 3.1951C4.05409 2.88555 3.85515 2.55057 3.56514 2.37701C3.33059 2.23664 3.03162 2.25343 2.79312 2.37927C2.43257 2.56951 2.19219 2.93807 2.01116 3.28771C1.94456 3.41635 1.88459 3.54885 1.83454 3.68479C1.78794 3.81134 1.70444 4.10652 1.7207 4.26301C1.77187 4.75537 2.5893 4.34081 2.77324 4.22868C3.10679 4.02535 3.39122 3.74001 3.53306 3.36857C3.6766 2.9927 3.6723 2.56026 3.56514 2.17734C3.48952 1.90716 3.39497 1.70554 3.2042 1.50019C3.03954 1.32294 2.7734 1.17267 2.5266 1.29149C2.44493 1.3308 2.37582 1.39425 2.31247 1.45908C2.10095 1.67557 1.93627 1.95277 1.79298 2.21438C1.70421 2.37645 1.61892 2.54091 1.54633 2.71084C1.46 2.91292 1.34363 3.24587 1.33943 3.48241C1.33727 3.60452 1.38802 3.78636 1.49844 3.86367C1.56039 3.90705 1.63808 3.9256 1.71257 3.93866C1.93299 3.97731 2.16778 3.94865 2.3843 3.90885C2.609 3.86755 2.9428 3.80602 3.07139 3.57998C3.14651 3.44793 3.11739 3.24806 3.07365 3.11379C3.00124 2.89153 2.86932 2.68135 2.71994 2.50304C2.63386 2.4003 2.4938 2.24215 2.34364 2.23381C2.22081 2.22699 2.16784 2.37976 2.13359 2.46871C2.0459 2.69639 1.98688 2.94317 1.95244 3.18426C1.93773 3.28721 1.91383 3.43894 1.95515 3.5461C2.01368 3.69793 2.20341 3.63242 2.30615 3.57908C2.84626 3.29869 3.18163 2.69167 3.15903 2.09016C3.15368 1.94775 3.11067 1.74549 3.05603 1.60861C3.03275 1.55028 2.97395 1.4227 2.88573 1.45953C2.80133 1.49477 2.79283 1.6447 2.78047 1.71341C2.74274 1.92325 2.71137 2.13608 2.68877 2.3481C2.67854 2.44409 2.67245 2.51829 2.67386 2.61236C2.67496 2.68561 2.68896 2.73915 2.69374 2.61056C2.70506 2.30592 2.69974 1.97471 2.61152 1.67998C2.57545 1.55948 2.59161 1.73273 2.59165 1.73329C2.60145 1.88488 2.607 2.02953 2.5808 2.1805C2.53212 2.46105 2.44071 2.73586 2.37391 3.0126" stroke="#333333" stroke-linecap="round" stroke-linejoin="round"/>
</svg>
