<svg width="8" height="5" viewBox="0 0 8 5" fill="none" xmlns="http://www.w3.org/2000/svg">
<path d="M0.764938 1.84532C0.882928 2.00168 1.02663 2.2709 1.2399 2.31403C1.39197 2.34479 1.54884 2.3619 1.70351 2.37028C1.93446 2.3828 2.16658 2.3771 2.39778 2.3771C2.56548 2.3771 2.72477 2.37652 2.8841 2.31801C3.03616 2.26218 3.18284 2.19309 3.33634 2.14075C3.41636 2.11347 3.50715 2.1125 3.58405 2.08394C3.83562 1.9905 4.07766 1.87635 4.32775 1.77941C4.53359 1.69963 4.7391 1.62816 4.93055 1.51466C5.05353 1.44175 5.15877 1.34919 5.2862 1.28229C5.36496 1.24094 5.44663 1.19421 5.53505 1.17719C5.64443 1.15612 5.70367 1.3451 5.74753 1.41353C6.01932 1.83756 6.3188 2.2472 6.61111 2.65719C6.71144 2.79792 6.83437 2.93387 6.90768 3.09182C6.93716 3.15533 6.98267 3.25151 6.98267 3.32362C6.98267 3.36752 6.92227 3.3816 6.89063 3.39123C6.67611 3.45652 6.46047 3.50802 6.24977 3.58667C5.73068 3.78043 5.18257 3.81383 4.63511 3.87131C3.82367 3.95651 3.0222 4.12259 2.21199 4.21447C2.07519 4.22998 1.92808 4.23623 1.78986 4.2281C1.69742 4.22266 1.6414 4.12868 1.60011 4.05652C1.50104 3.88344 1.45501 3.67125 1.42682 3.47531C1.41213 3.3732 1.40305 3.27117 1.3808 3.17022C1.37757 3.15555 1.37529 3.11934 1.36603 3.10546C1.31657 3.03127 1.47564 2.9959 1.51545 2.99126C1.86623 2.95039 2.22906 2.98578 2.58185 2.9799C2.83658 2.97565 3.05245 2.89157 3.28521 2.79639C3.54188 2.69143 3.79978 2.58006 4.05107 2.46289C4.21435 2.38675 4.38357 2.32336 4.54535 2.24415C4.67017 2.18304 4.79197 2.11755 4.91918 2.06121C5.00176 2.02464 5.0506 1.99079 5.11349 1.92031C5.15397 1.87495 5.21109 1.78632 5.26916 1.76237C5.34531 1.73096 5.46663 1.92605 5.49755 1.96917C5.70855 2.26342 5.8292 2.61396 5.97479 2.9424C6.01115 3.02443 6.04629 3.10678 6.07819 3.19068C6.08889 3.21882 6.13992 3.29749 6.08274 3.29749C6.012 3.29749 5.93975 3.26782 5.87139 3.25317C5.76205 3.22974 5.65293 3.23859 5.54187 3.23442C5.34191 3.22692 5.14336 3.20682 4.94305 3.20545C4.68416 3.20368 4.41558 3.18981 4.16015 3.23954C3.93602 3.28317 3.71754 3.36652 3.49883 3.431C3.1623 3.53022 2.83294 3.65087 2.49152 3.73325C2.22215 3.79825 1.95051 3.84275 1.67624 3.8804C1.56774 3.89529 1.45936 3.91002 1.35126 3.92756C1.34521 3.92854 1.3286 3.93459 1.33308 3.9304C1.35446 3.91035 1.38668 3.90654 1.41262 3.8929C1.63989 3.77339 1.86128 3.68629 2.11257 3.62587C2.54019 3.52307 2.98365 3.48755 3.40679 3.36794C3.56364 3.3236 3.71274 3.25677 3.8704 3.21567C4.07773 3.16163 4.27038 3.07928 4.47149 3.0066C4.61558 2.95452 4.75496 2.91027 4.90612 2.8924C5.24385 2.85249 5.59903 2.84285 5.90889 2.69412" stroke="#333333" stroke-linecap="round" stroke-linejoin="round"/>
</svg>
