<svg width="6" height="5" viewBox="0 0 6 5" fill="none" xmlns="http://www.w3.org/2000/svg">
<path d="M1.01439 3.12231C1.32754 3.08948 1.63632 3.03071 1.95182 3.02232C2.28766 3.0134 2.62991 3.00817 2.96538 3.02914C3.352 3.0533 3.73603 3.07454 4.12325 3.08709C4.23444 3.09069 4.3592 3.11569 4.47095 3.09732C4.96526 3.01606 5.04747 2.45753 5.05387 2.04398C5.056 1.90634 5.05157 1.76859 5.05444 1.63094C5.05656 1.52909 5.09234 1.38924 5.05444 1.29176C5.03655 1.24578 4.99366 1.21906 4.95615 1.19064C4.87107 1.12617 4.79762 1.05984 4.73116 0.975878C4.69602 0.931471 4.66578 0.878622 4.62435 0.839524C4.51767 0.73885 4.3073 0.763821 4.17723 0.761689C3.81395 0.755734 3.4503 0.759984 3.08696 0.759984C2.91092 0.759984 2.73396 0.755273 2.55802 0.763393C2.43493 0.769075 2.25208 0.77055 2.14953 0.853728C2.02195 0.957214 2.03577 1.21167 2.01204 1.35767C1.97889 1.56165 1.91241 1.76779 1.89671 1.97353C1.88125 2.176 1.90081 2.3748 2.07113 2.50872C2.16833 2.58515 2.28199 2.59667 2.40179 2.59849C2.81039 2.60468 3.22382 2.57773 3.63124 2.55076C3.87815 2.53442 4.10602 2.50434 4.34085 2.42521C4.52106 2.36448 4.726 2.29475 4.85445 2.14568C4.8646 2.1339 4.94112 2.02799 4.88343 2.00876C4.70419 1.94901 4.22165 2.01234 4.14711 2.02353C3.53553 2.11536 2.80357 2.28319 2.23134 2.50872C1.73479 2.70443 1.03421 3.02884 0.850761 3.59728C0.729321 3.97359 1.12518 4.09375 1.41549 4.03248C1.72795 3.96653 2.01719 3.77145 2.23362 3.5416C2.44221 3.32008 2.49591 3.02632 2.53587 2.73598C2.56898 2.49534 2.5789 2.25142 2.57507 2.00876C2.57168 1.79437 2.56913 1.55041 2.42849 1.37358C2.3401 1.26245 2.23286 1.23947 2.11431 1.33381C1.89081 1.51165 1.72452 1.86388 1.75979 2.15193C1.80235 2.4996 2.08727 2.72423 2.39099 2.84961C2.7406 2.99392 3.03218 3.02663 3.40853 3.00585C3.69695 2.98991 3.94095 2.93862 4.18973 2.79563C4.45895 2.64088 4.62166 2.32938 4.61697 2.02126C4.61312 1.76885 4.4541 1.61529 4.20109 1.61901C3.99333 1.62207 3.78027 1.70595 3.61988 1.83718C3.53421 1.90727 3.35908 2.12876 3.47671 2.24965C3.58112 2.35696 3.81625 2.2807 3.92327 2.24226C4.17334 2.15246 4.44029 1.98017 4.49141 1.69855C4.60927 1.04922 3.64973 0.94121 3.22218 1.05769C3.0453 1.10588 2.78084 1.22169 2.71483 1.41619C2.61878 1.69922 3.11924 1.80341 3.28297 1.83661C3.46074 1.87266 3.74794 1.92969 3.92554 1.83718C4.07389 1.75991 4.04038 1.56641 3.95508 1.45993C3.87713 1.36263 3.75401 1.28009 3.63636 1.2395C3.52347 1.20054 3.46824 1.28842 3.42898 1.38323C3.39879 1.45616 3.36629 1.56203 3.44035 1.62469C3.5739 1.7377 3.84052 1.72434 3.99599 1.68265C4.12516 1.648 4.17747 1.55175 4.14711 1.42471C4.12269 1.32251 4.05844 1.27809 3.99031 1.20995" stroke="#333333" stroke-linecap="round" stroke-linejoin="round"/>
</svg>
