<svg width="5" height="5" viewBox="0 0 5 5" fill="none" xmlns="http://www.w3.org/2000/svg">
<path d="M3.50423 1.48519C2.83805 1.84084 3.47002 1.5042 2.78042 1.86925C2.45302 2.04257 2.10784 2.20446 1.80776 2.42432C1.66673 2.52765 1.0799 3.04608 1.49358 3.16859C1.63195 3.20957 1.79582 3.2135 1.93616 3.21859C2.21821 3.2288 2.50275 3.2284 2.78496 3.2237C2.9272 3.22133 3.05186 3.2148 3.18096 3.15154C3.30949 3.08856 3.42512 2.99923 3.50877 2.88168C3.66311 2.66481 3.72278 2.37011 3.70933 2.10787C3.7006 1.93762 3.5806 1.50688 3.32186 1.66245C3.17102 1.75313 3.05832 1.95674 2.97699 2.10219C2.81239 2.39657 2.68865 2.71129 2.60145 3.03678C2.55655 3.2044 2.35523 3.88202 2.72474 3.88956C2.8381 3.89187 2.94114 3.84506 3.04176 3.79923C3.29525 3.68376 3.54247 3.53435 3.7633 3.3646C3.90581 3.25505 4.06492 3.1225 4.11441 2.94076C4.155 2.79172 4.12759 2.6203 4.08146 2.47603C4.04558 2.36383 3.94063 2.15446 3.78489 2.20957C3.65761 2.2546 3.58531 2.40473 3.54173 2.52034C3.47006 2.71045 3.44588 2.91578 3.43207 3.11689C3.42475 3.22355 3.36874 3.53286 3.52695 3.57595C3.75952 3.63928 4.0396 3.40059 4.13941 3.21574C4.22929 3.0493 4.25861 2.83236 4.22463 2.64647C4.21828 2.61173 4.20067 2.62033 4.16895 2.62033" stroke="#333333" stroke-linecap="round" stroke-linejoin="round"/>
</svg>
