<svg width="6" height="6" viewBox="0 0 6 6" fill="none" xmlns="http://www.w3.org/2000/svg">
<path d="M0.923511 0.928551C1.27202 1.02702 1.61545 1.13922 1.96094 1.24785C2.56811 1.43875 3.18474 1.60241 3.78751 1.8069C4.01406 1.88376 4.2387 1.96945 4.45621 2.06938C4.5974 2.13424 4.76794 2.20294 4.87777 2.31822C4.95399 2.39822 5.03628 2.52138 4.94652 2.61593C4.86982 2.69672 4.76874 2.75764 4.67892 2.8216C4.39319 3.02504 4.11073 3.23268 3.83012 3.44314C3.55213 3.65163 3.27303 3.85843 2.99382 4.06526C2.73308 4.25839 2.48766 4.4604 2.27 4.70214C2.16151 4.82264 2.06167 4.94941 1.97457 5.08621C1.97422 5.08676 1.89629 5.22547 1.89503 5.20892C1.888 5.11639 1.89915 5.02209 1.89503 4.9294C1.88289 4.65623 1.78019 4.41259 1.66096 4.16923C1.52719 3.89619 1.37769 3.62691 1.19622 3.38235C1.07998 3.2257 0.937125 3.09163 0.820678 2.93522C0.748353 2.83808 0.717188 2.73467 0.703072 2.61593C0.686779 2.47887 0.733041 2.36196 0.809315 2.24891C0.907189 2.10385 1.03356 2.0706 1.20417 2.0654C1.54943 2.05489 1.90367 2.0488 2.24842 2.07051C2.52306 2.08781 2.80252 2.15161 3.02279 2.3239C3.07296 2.36315 3.12095 2.40336 3.17562 2.4364C3.20429 2.45372 3.24177 2.46334 3.25062 2.50003C3.29224 2.67275 3.19611 2.87407 3.12335 3.02158C2.90882 3.45656 2.60549 3.83351 2.32739 4.22774C2.25896 4.32475 2.2 4.42282 2.14047 4.52488C2.09894 4.59608 2.06471 4.47408 2.04502 4.4408C1.82719 4.07247 1.57697 3.72472 1.32632 3.37837C1.19177 3.19245 1.05645 3.00721 0.918398 2.82387C0.897706 2.79639 0.819682 2.71727 0.811587 2.67274C0.80672 2.64597 0.807424 2.59587 0.837154 2.58411C0.885216 2.5651 0.959209 2.57483 1.0076 2.57673C1.15362 2.58245 1.29298 2.60799 1.43484 2.64206C1.76421 2.72118 2.09483 2.75529 2.43249 2.78069C2.62438 2.79512 2.86238 2.78841 3.037 2.69774C3.07781 2.67655 3.08446 2.65684 3.13301 2.65684C3.18323 2.65684 3.19188 2.65361 3.23244 2.62275C3.40467 2.49167 3.62856 2.4644 3.83751 2.43924C3.90394 2.43124 4.03421 2.39861 4.10169 2.4256C4.12948 2.43672 4.1206 2.50018 4.1176 2.52162C4.10528 2.60958 4.0109 2.64282 3.9392 2.67388C3.58948 2.82539 3.2173 2.9435 2.85689 3.06703C2.52874 3.17951 2.18606 3.24237 1.84049 3.27043C1.80416 3.27338 1.65486 3.25464 1.63937 3.30111" stroke="#333333" stroke-linecap="round" stroke-linejoin="round"/>
</svg>
