<svg width="7" height="7" viewBox="0 0 7 7" fill="none" xmlns="http://www.w3.org/2000/svg">
<path d="M1.15277 2.55897C1.15277 2.73048 1.15013 2.90222 1.15277 3.07371C1.15404 3.15667 1.1923 3.24257 1.21981 3.31915C1.26968 3.45797 1.32018 3.59179 1.38684 3.72366C1.45037 3.84933 1.51638 3.97278 1.58001 4.09864C1.64663 4.23039 1.68514 4.35789 1.73 4.49974C1.75804 4.58841 1.79833 4.6726 1.80954 4.76563C1.82065 4.85785 1.84817 4.95762 1.84817 5.0497C1.84817 5.05489 1.81797 4.96794 1.80954 4.93948C1.79923 4.90468 1.82166 4.85368 1.79704 4.82358C1.77758 4.7998 1.7616 4.78742 1.74591 4.75995C1.73259 4.73664 1.73233 4.7101 1.72318 4.68609C1.70882 4.64839 1.69664 4.61289 1.68682 4.5736C1.68379 4.56146 1.66372 4.51172 1.65614 4.55088C1.64948 4.58531 1.68528 4.66457 1.69705 4.702C1.70713 4.73409 1.72545 4.7397 1.72545 4.7787C1.72545 4.84151 1.76636 4.88895 1.76636 4.95085C1.76636 5.01688 1.72545 4.92183 1.72545 4.9054C1.72545 4.87621 1.69892 4.85272 1.69023 4.82415C1.67803 4.78406 1.67863 4.74457 1.66296 4.70427C1.63795 4.63997 1.61072 4.56077 1.60217 4.49236C1.59706 4.45151 1.58509 4.41446 1.56694 4.37816C1.54658 4.33744 1.55998 4.29312 1.54081 4.25317C1.53062 4.23195 1.51531 4.19543 1.4999 4.17874C1.47218 4.14871 1.48377 4.10204 1.46922 4.06568C1.44114 3.99548 1.41235 3.91838 1.39821 3.84411C1.38407 3.7699 1.34063 3.69846 1.31867 3.62708C1.29155 3.53896 1.24757 3.45971 1.21867 3.37142C1.19276 3.29223 1.19421 3.21288 1.16299 3.13393C1.14683 3.09304 1.14939 3.04996 1.13004 3.00894C1.11405 2.97504 1.08865 2.93842 1.0755 2.90554C1.05019 2.84226 1.03272 2.79525 0.989144 2.74078C0.966708 2.71273 0.942151 2.68528 0.930057 2.65101C0.924202 2.63442 0.966455 2.65447 0.98119 2.66408C1.04881 2.70818 1.11418 2.75191 1.18458 2.79191C1.31955 2.8686 1.44866 2.95267 1.5766 3.03962C1.6625 3.098 1.73867 3.16296 1.81636 3.23279C1.97693 3.37713 2.14542 3.53167 2.25269 3.72253C2.31987 3.84206 2.34575 3.99277 2.37257 4.12534C2.40249 4.27324 2.42598 4.42182 2.45949 4.56906C2.51088 4.79484 2.57992 4.99773 2.67652 5.20878C2.70978 5.28143 2.75257 5.35167 2.77538 5.42865C2.77769 5.43645 2.77942 5.47403 2.77254 5.40593C2.75879 5.27002 2.75288 5.1326 2.74584 4.9963C2.70008 4.11134 2.76113 3.20955 2.55437 2.34024C2.55226 2.33135 2.52605 2.22213 2.5129 2.19707C2.47342 2.12187 2.53274 2.36619 2.55267 2.44876C2.66835 2.92812 2.82143 3.39938 2.95605 3.87365C3.06958 4.27367 3.16809 4.68564 3.34352 5.06448C3.36337 5.10733 3.39837 5.17179 3.42533 5.2156C3.44805 5.25252 3.44351 5.23679 3.44351 5.19572C3.44351 4.41774 3.44351 3.63977 3.44351 2.86179C3.44351 2.82557 3.44326 2.87004 3.45715 2.94645C3.52118 3.29864 3.60354 3.64752 3.67304 3.99864C3.80167 4.64854 3.88309 5.31713 4.0804 5.95134C4.08553 5.96785 4.12921 6.11136 4.15767 6.15076C4.18616 6.19021 4.17947 6.05512 4.17982 6.00645C4.1835 5.49632 4.17982 4.98602 4.17982 4.47588C4.17982 4.06537 4.17607 3.65465 4.17982 3.24415C4.17983 3.24349 4.17873 3.19055 4.18437 3.22597C4.22267 3.46652 4.25656 3.70722 4.29743 3.94751C4.36908 4.36885 4.4259 4.68187 4.50764 5.10538C4.57395 5.44894 4.63117 5.80848 4.73319 6.14508C4.74312 6.17783 4.74755 6.22284 4.77864 6.23712C4.78475 6.23992 4.79118 6.23016 4.79398 6.22405C4.81554 6.1771 4.82483 6.06867 4.82807 6.03543C4.87649 5.53956 4.87549 5.01892 4.82523 4.52361C4.77474 4.02604 4.62072 3.55572 4.49003 3.07598C4.3032 2.39022 4.55374 3.30181 4.42412 2.82657C4.41827 2.80511 4.41128 2.78396 4.40594 2.76237C4.39536 2.71958 4.4356 2.84541 4.44912 2.88736C4.60665 3.376 4.73682 3.87287 4.89341 4.36169C4.92852 4.47129 5.02846 4.79067 5.03658 4.67587C5.06824 4.22808 5.02143 3.76402 4.99397 3.31801C4.95401 2.66901 4.89877 2.01964 4.88545 1.36929C4.88495 1.34467 4.87373 1.31708 4.88545 1.29543C4.88746 1.29173 4.89099 1.30188 4.89284 1.30566C4.92375 1.36866 4.94691 1.44342 4.9667 1.50735C5.21435 2.30745 5.3527 3.13892 5.53882 3.95433C5.67086 4.53286 5.81357 5.11151 5.98537 5.67977C5.9994 5.72616 5.99879 5.7357 5.99958 5.68489C6.00322 5.44997 6.00203 5.21411 6.00015 4.97925C5.99461 4.29019 5.93893 3.61017 5.86663 2.92543C5.84768 2.74594 5.80976 2.20695 5.80584 2.3874C5.79526 2.87407 5.84001 3.36153 5.90243 3.84354C5.94872 4.20103 5.99821 4.50365 6.06207 4.85654C6.10889 5.11524 6.15098 5.38944 6.23877 5.63943C6.2418 5.64807 6.27433 5.72689 6.29558 5.7417C6.32565 5.76266 6.31991 5.6715 6.32171 5.63489C6.343 5.20307 6.32597 4.77051 6.34785 4.33839" stroke="#333333" stroke-linecap="round" stroke-linejoin="round"/>
</svg>
