<svg width="5" height="7" viewBox="0 0 5 7" fill="none" xmlns="http://www.w3.org/2000/svg">
<path d="M1.76479 1.06707C1.97368 1.54906 2.14662 2.048 2.37373 2.52166C2.49501 2.77459 2.59931 3.03719 2.7044 3.29729C2.77984 3.484 2.80772 3.68036 2.85077 3.87597C2.88484 4.03081 2.89903 4.19013 2.90226 4.34848C2.9077 4.61469 2.85574 4.86673 2.8074 5.12727C2.77323 5.31147 2.74877 5.51634 2.59825 5.64496C2.47536 5.74997 2.32568 5.82341 2.19123 5.91239C2.02099 6.02506 1.83648 6.12173 1.64418 6.19111C1.55209 6.22434 1.44786 6.23429 1.35281 6.20512C1.31595 6.19381 1.28112 6.1491 1.24349 6.1491C1.18541 6.1491 1.10469 6.16512 1.04924 6.1473C1.01929 6.13767 1.04202 6.08393 1.04653 6.06824C1.16322 5.66263 1.38299 5.29142 1.51453 4.89011C1.58539 4.67392 1.63055 4.44694 1.69071 4.22742C1.73969 4.0487 1.79849 3.86337 1.82442 3.67946C1.8382 3.58178 1.8404 3.48275 1.85514 3.38493C1.87052 3.28285 1.89489 3.18625 1.89489 3.08272C1.89489 3.06843 1.89263 3.05088 1.8958 3.03664C1.90422 2.99872 1.90944 3.11344 1.91025 3.15228C1.91469 3.36532 1.91626 3.57706 1.93916 3.78923C1.95491 3.93513 1.9492 4.08336 1.96853 4.22832C1.98235 4.33203 1.99975 4.43215 2.0006 4.53731C2.00166 4.6681 1.9952 4.79976 2.00466 4.93032C2.01026 5.0076 2.00165 5.07386 1.98434 5.14986C1.95177 5.29278 1.89872 5.42972 1.86824 5.57314C1.85681 5.62694 1.84813 5.6814 1.82984 5.73351C1.82078 5.75933 1.79625 5.79168 1.83978 5.78997C2.01015 5.78329 2.15664 5.77723 2.32314 5.83108C2.4109 5.85947 2.58574 5.89872 2.63935 5.98919C2.64583 6.00011 2.64238 6.01283 2.6502 6.02352C2.66598 6.04512 2.70173 6.05738 2.72609 6.06418C2.84329 6.09688 2.97823 6.10226 3.09922 6.11522C3.17422 6.12326 3.24892 6.09247 3.31334 6.05695C3.4459 5.98386 3.56422 5.86246 3.63498 5.72808C3.69744 5.60947 3.7051 5.45725 3.73662 5.32785C3.76308 5.21922 3.77718 5.1086 3.79309 4.99808C3.81119 4.87234 3.83839 4.7491 3.84685 4.62223C3.86433 4.35991 3.87079 4.10164 3.87079 3.83802C3.87079 3.79124 3.87035 3.74597 3.87892 3.69979C3.88728 3.65471 3.90331 3.61277 3.90331 3.56653C3.90331 3.45964 3.91621 3.34707 3.88253 3.24444C3.86005 3.17593 3.84601 3.1151 3.80845 3.0529C3.75462 2.96376 3.69752 2.87732 3.6517 2.78367C3.59123 2.66011 3.52991 2.55123 3.44435 2.44577C3.41742 2.41258 3.38018 2.38698 3.3549 2.35361C3.33844 2.33187 3.32905 2.30554 3.31334 2.28314C3.28862 2.2479 3.25471 2.22073 3.23023 2.18557C3.19491 2.13484 3.15559 2.08878 3.11684 2.04056C3.06206 1.97239 3.02078 1.9005 2.97454 1.82689C2.93796 1.76864 2.89168 1.71511 2.85619 1.65704C2.85127 1.64898 2.81824 1.6273 2.81056 1.63852C2.79668 1.65881 2.79862 1.70633 2.79566 1.72841C2.79029 1.76835 2.78193 1.80817 2.7812 1.84857C2.7756 2.15677 2.7812 2.46547 2.7812 2.77373C2.7812 2.86548 2.78006 2.9501 2.80605 3.03845C2.85009 3.18819 2.90669 3.31245 2.989 3.44591C3.0699 3.5771 3.14349 3.71215 3.22255 3.84434C3.27093 3.92524 3.28493 4.01123 3.32599 4.09461C3.34673 4.1367 3.35581 4.17466 3.37117 4.21793C3.37558 4.23036 3.39076 4.26664 3.38382 4.25542C3.36647 4.22741 3.36198 4.19319 3.3531 4.16146C3.29427 3.95138 3.32557 4.04856 3.26094 3.8073" stroke="#333333" stroke-linecap="round" stroke-linejoin="round"/>
</svg>
