<svg width="11" height="5" viewBox="0 0 11 5" fill="none" xmlns="http://www.w3.org/2000/svg">
<path d="M5.29104 2.98394C5.32137 3.29864 5.26862 3.54561 5.11127 3.81534C5.06368 3.89692 5.05687 3.93564 5.05687 4.03649C5.05687 4.15126 5.24824 4.20559 5.3549 4.21744C5.46686 4.22988 5.5734 4.23518 5.66948 4.29431C5.7088 4.31851 5.79147 4.30377 5.83505 4.30377C5.90355 4.30377 5.94766 4.34262 6.01481 4.34635C6.08224 4.35009 5.99106 4.41413 5.97224 4.42085C5.95699 4.4263 5.80516 4.45232 5.89773 4.47289C6.04108 4.50475 6.19641 4.49536 6.34359 4.49536C6.54576 4.49536 6.7311 4.44256 6.93018 4.4315C7.08572 4.42286 7.24298 4.41021 7.40324 4.41021C7.61319 4.41021 7.81859 4.39983 8.02767 4.3901C8.22804 4.38078 8.43103 4.34621 8.632 4.32506C8.81245 4.30606 8.98343 4.2507 9.16301 4.23873C9.36257 4.22542 9.58596 4.12909 9.76379 4.04122C9.93899 3.95466 10.1436 3.8583 10.2936 3.73374C10.3851 3.65778 10.4928 3.53424 10.3149 3.53742C10.0692 3.54181 9.83062 3.61517 9.58639 3.62257C9.38917 3.62855 9.19908 3.68281 9.00217 3.69708C8.8419 3.70869 8.67696 3.70402 8.51965 3.74083C8.4307 3.76165 8.36287 3.79287 8.27011 3.79287C7.02282 3.79287 5.77553 3.79287 4.52823 3.79287C4.186 3.79287 3.84968 3.74553 3.50998 3.71008C3.36586 3.69505 3.22701 3.67855 3.09014 3.62967C2.8964 3.56047 2.74926 3.44065 2.60999 3.29143C2.48114 3.15338 2.34684 3.03655 2.20789 2.91062C1.987 2.71044 1.7695 2.49786 1.54324 2.30392C1.43219 2.20874 1.27443 2.20622 1.19436 2.0804C1.15404 2.01704 1.13526 1.89664 1.17071 1.82968C1.20286 1.76895 1.29675 1.73386 1.35165 1.71142C1.57222 1.62127 1.80564 1.55991 2.03404 1.49381C2.24214 1.43358 2.55858 1.40582 2.73889 1.27148C2.8551 1.18489 2.97488 1.09395 3.09842 1.01839C3.122 1.00396 3.28651 0.926004 3.17174 0.919048C2.89868 0.902499 2.77058 1.25612 2.72943 1.47253C2.70721 1.5894 2.72177 1.70734 2.71169 1.82495C2.69242 2.04984 2.62869 2.28276 2.51301 2.47777C2.44013 2.60062 2.32902 2.78418 2.21143 2.87041C2.12252 2.93562 2.02698 3.0365 1.982 3.13769C1.90146 3.3189 2.14005 2.77339 2.20316 2.58539C2.28823 2.33195 2.37963 2.05608 2.41367 1.78947C2.41634 1.76853 2.43358 1.67215 2.40421 1.65583C2.29442 1.59484 1.92138 2.43359 1.9276 2.5913C1.93907 2.88197 2.33045 3.00442 2.53548 3.10694C2.89336 3.28588 3.31768 3.41991 3.64243 3.65568C3.70211 3.69901 3.75147 3.75421 3.81037 3.7976C3.86636 3.83885 3.93517 3.85 3.99249 3.88748C4.09573 3.95498 4.13629 4.03956 4.21838 4.12164C4.27554 4.1788 4.31521 4.23848 4.36503 4.30141C4.39255 4.33617 4.42341 4.33259 4.44899 4.35817C4.48357 4.39275 4.49984 4.38892 4.55425 4.38892C4.78116 4.38892 5.00189 4.38564 5.22599 4.3428C5.72896 4.24664 6.20003 4.00104 6.68301 3.83544C6.86902 3.77167 7.05054 3.70942 7.2424 3.66514C7.34447 3.64159 7.46099 3.63271 7.55934 3.59655C7.62139 3.57374 7.66647 3.54395 7.57827 3.53742C7.42469 3.52604 7.26154 3.44219 7.11467 3.40023C6.65906 3.27006 6.20068 3.1755 5.73334 3.09748C5.36758 3.03641 5.00047 2.98197 4.63585 2.91417C4.51467 2.89163 4.32905 2.87252 4.21483 2.80182C4.18154 2.78121 4.16948 2.7337 4.14151 2.7072C4.08801 2.65652 3.95339 2.64239 3.88842 2.62678C3.65375 2.57041 3.41379 2.53947 3.17411 2.51443C2.95369 2.4914 2.67365 2.49943 2.46452 2.421C2.45242 2.41647 2.48071 2.61598 2.48581 2.6327C2.5146 2.72708 2.57465 2.853 2.65374 2.91771C2.76526 3.00896 3.01763 2.96265 3.14336 2.96265C3.45912 2.96265 3.77489 2.96265 4.09065 2.96265C4.26946 2.96265 4.35148 2.97835 4.51404 3.02652C4.57221 3.04375 4.7239 3.16699 4.79196 3.10694C4.86023 3.0467 4.59588 2.49386 4.5578 2.39972C4.46477 2.16973 4.36628 2.08749 4.1486 1.96687C3.84553 1.79892 3.60976 1.62559 3.25689 1.62154C3.05561 1.61922 2.86101 1.56295 2.65611 1.57896C2.63617 1.58052 2.86524 1.7855 2.90446 1.81313C3.20581 2.0254 3.58566 2.16689 3.93573 2.27436C4.22973 2.36461 4.51192 2.43304 4.7896 2.55819C4.90803 2.61157 5.05136 2.61588 5.1775 2.64334C5.32339 2.6751 5.4617 2.68592 5.61035 2.68592" stroke="#333333" stroke-linecap="round" stroke-linejoin="round"/>
</svg>
