<svg width="7" height="8" viewBox="0 0 7 8" fill="none" xmlns="http://www.w3.org/2000/svg">
<path d="M3.04767 6.75131C3.02404 5.81682 2.97518 4.89794 2.78405 3.97992C2.73535 3.746 2.62041 3.29442 2.5352 3.04703C2.48948 2.91428 2.43848 2.74852 2.28693 2.71012C2.20592 2.6896 2.16458 2.68951 2.08637 2.73569C1.85581 2.87184 1.66508 3.13606 1.51596 3.34928C1.40572 3.50691 1.2874 3.70674 1.2228 3.89129C1.16768 4.04874 1.12678 4.26312 1.20803 4.42079C1.28196 4.56427 1.46703 4.61015 1.61538 4.60942C1.70045 4.609 1.76156 4.5976 1.8398 4.5634C2.01132 4.48842 2.02392 4.33353 2.02956 4.15831C2.04337 3.72879 2.00639 3.2609 1.81651 2.86977C1.79099 2.81721 1.64054 2.46988 1.54323 2.65956C1.49584 2.75194 1.4602 2.96499 1.44778 3.04703C1.41893 3.23756 1.38472 3.57744 1.37733 3.76402C1.36676 4.03106 1.30217 4.70961 1.70288 4.76338C1.94978 4.79652 2.23176 4.63839 2.31817 4.40261C2.34832 4.32036 2.36803 4.08627 2.26818 4.02878C2.19421 3.98619 2.26907 4.20479 2.30511 4.28217C2.43844 4.56843 2.77584 4.60389 3.04994 4.49465C3.16 4.45079 3.29844 4.34902 3.35219 4.23785C3.46193 4.01088 3.33758 3.75975 3.22038 3.56858C3.14397 3.44395 3.05451 3.32192 2.93347 3.23622C2.79934 3.14126 2.61704 3.16874 2.47612 3.23679C2.30281 3.32047 2.10634 3.48466 2.00115 3.64244C1.88509 3.81653 1.75933 4.13942 1.81026 4.3583C1.87997 4.65789 2.16679 4.85521 2.44316 4.93099C2.66635 4.99218 2.90269 5.0062 3.13402 4.99973C3.71567 4.98346 4.19683 4.85937 4.70891 4.58101C5.10494 4.36573 5.40966 4.13293 5.53953 3.68846C5.69577 3.15376 5.3619 2.57783 5.03502 2.18573C4.84126 1.9533 4.49111 1.65402 4.2044 1.52669C3.94578 1.41183 3.62289 1.41289 3.53456 1.72951C3.46771 1.96919 3.59887 2.37883 3.88454 2.4198C4.00287 2.43677 4.07008 2.37039 4.1152 2.26925C4.20694 2.0636 4.11812 1.79671 3.93397 1.66758C3.7139 1.51328 3.39736 1.48135 3.14311 1.52555C2.70096 1.60241 2.0251 1.89594 1.95456 2.41867C1.90746 2.76776 2.17232 2.93984 2.45339 3.05044C2.64649 3.12642 2.85478 3.16433 3.0613 3.18452C3.34875 3.21262 4.00311 3.1772 4.30439 3.09589C4.4673 3.05193 4.6834 2.9638 4.51006 2.76523C4.37217 2.60727 3.94658 2.39966 3.76239 2.36299C3.46294 2.30337 3.15305 2.34901 2.92268 2.56752C2.64896 2.82714 2.53555 3.3362 2.88631 3.5862C3.13938 3.76656 3.52835 3.78239 3.81579 3.78675C3.9859 3.78933 4.68108 3.82294 4.41575 3.41632C4.29961 3.23834 3.95252 2.95986 3.77943 2.86068C3.56483 2.73771 3.20114 2.59133 2.96074 2.7516C2.86878 2.8129 2.90393 2.86897 2.99256 2.89875C3.12717 2.94397 3.33919 2.93006 3.46866 2.91636C3.49735 2.91332 3.7952 2.89803 3.82772 2.79023C3.87467 2.6346 3.47776 2.44135 3.39082 2.40389C3.29583 2.36297 3.16083 2.32385 3.06017 2.38571C2.94196 2.45836 2.96601 2.61225 3.06301 2.68342C3.16412 2.75761 3.31602 2.76317 3.43628 2.77319" stroke="#333333" stroke-linecap="round" stroke-linejoin="round"/>
</svg>
