<svg width="7" height="4" viewBox="0 0 7 4" fill="none" xmlns="http://www.w3.org/2000/svg">
<path d="M0.974901 1.12814C1.1456 1.15016 1.31784 1.14913 1.48964 1.15541C1.74536 1.16474 2.00066 1.18244 2.25663 1.18325C2.97877 1.18552 3.70123 1.16904 4.42352 1.16904C4.73921 1.16904 5.05491 1.16904 5.37061 1.16904C5.43502 1.16904 5.55408 1.13347 5.5473 1.22699C5.53418 1.408 5.48418 1.58523 5.46719 1.76616C5.45269 1.92063 5.45506 2.07542 5.45412 2.23033C5.45376 2.29003 5.44912 2.3033 5.39504 2.33259C5.22791 2.42312 5.03292 2.47146 4.84849 2.50985C4.50672 2.58099 4.15675 2.61108 3.80822 2.61894C3.55568 2.62463 3.30197 2.61171 3.04975 2.62803C2.95073 2.63443 2.8531 2.65189 2.75375 2.65189C2.44528 2.65189 2.13526 2.66173 1.82711 2.64678C1.75332 2.64319 1.66332 2.65516 1.59077 2.63939C1.56466 2.63372 1.54605 2.60084 1.53111 2.58201C1.44623 2.47498 1.36007 2.37384 1.26238 2.27805C1.18398 2.20118 1.10808 2.12403 1.02035 2.05761C1.00575 2.04656 0.931378 2.01265 0.972629 1.99285C1.0591 1.95134 1.16601 1.92878 1.25897 1.9099C1.54108 1.85259 1.83222 1.84619 2.11914 1.84399C3.07555 1.83668 4.03314 1.86312 4.98938 1.84399C5.03076 1.84317 5.06645 1.825 5.10869 1.82354C5.13403 1.82267 5.15762 1.8152 5.18142 1.80706C5.28346 1.77215 5.38997 1.75461 5.49503 1.7315" stroke="#333333" stroke-linecap="round" stroke-linejoin="round"/>
</svg>
