<svg width="10" height="6" viewBox="0 0 10 6" fill="none" xmlns="http://www.w3.org/2000/svg">
<path d="M4.46442 3.55819C4.16424 3.84097 3.77297 4.02992 3.41187 4.22284C3.38804 4.23557 2.90684 4.47714 2.91989 4.49485C2.95636 4.54434 3.16729 4.52969 3.21791 4.53269C3.34227 4.54006 3.46712 4.53742 3.59163 4.53742C4.02329 4.53742 4.46617 4.44144 4.86888 4.29262C4.99037 4.24772 5.10614 4.17985 5.21894 4.1164C5.28322 4.08024 4.98308 4.16405 4.94457 4.17672C4.65227 4.27282 4.38624 4.43372 4.0978 4.5386C3.86042 4.62493 3.62604 4.72481 3.40004 4.83781C3.32731 4.87418 3.25659 4.94632 3.17652 4.96317C3.01142 4.99793 2.83872 5.06996 2.68099 5.12874C2.46012 5.21106 2.23864 5.22058 2.01398 5.28958C1.79453 5.35699 1.59096 5.41363 1.36826 5.45279C1.27308 5.46952 1.31454 5.451 1.38482 5.40548C1.50277 5.32908 1.64831 5.30228 1.77745 5.24937C1.95023 5.1786 2.10266 5.15512 2.28363 5.12047C2.84217 5.01351 3.37965 4.83127 3.92277 4.68644C4.18647 4.61612 4.45119 4.55916 4.70804 4.46173C4.96995 4.36239 5.18833 4.17415 5.44365 4.06437C5.71682 3.9469 5.96661 3.77149 6.25257 3.68119C6.47176 3.61197 6.72029 3.47708 6.90658 3.34295C7.03048 3.25374 7.18266 3.21964 7.30631 3.13363C7.39897 3.06916 7.48814 3.00834 7.58186 2.94085C7.67797 2.87166 7.75378 2.77658 7.85151 2.70551C7.96767 2.62102 8.16404 2.55643 8.25361 2.44651C8.32469 2.35927 8.44091 2.31768 8.49959 2.21708C8.57829 2.08217 8.69327 1.96624 8.78343 1.83745C8.94878 1.60123 9.12838 1.36605 9.21155 1.08884" stroke="#333333" stroke-linecap="round" stroke-linejoin="round"/>
</svg>
