<svg width="3" height="6" viewBox="0 0 3 6" fill="none" xmlns="http://www.w3.org/2000/svg">
<path d="M2.2834 4.578C2.25474 4.32004 2.24159 4.07018 2.19363 3.81442C2.09315 3.2785 1.90985 2.76278 1.80503 2.22817C1.74822 1.93846 1.73488 1.63814 1.66072 1.3521C1.64243 1.28158 1.64807 1.34757 1.64481 1.38278C1.60007 1.86638 1.51548 2.34921 1.43119 2.82699C1.39216 3.04824 1.36724 3.17114 1.32438 3.38036C1.31584 3.42206 1.30669 3.46363 1.29824 3.50535C1.29299 3.53131 1.29139 3.60807 1.28234 3.58319C1.27069 3.55115 1.2812 3.51501 1.2812 3.48092C1.2812 3.30397 1.27641 3.12827 1.25847 2.95198C1.20492 2.4255 1.11663 1.89956 1.03349 1.3771C1.00325 1.18704 0.96799 0.997496 0.942588 0.806683C0.939847 0.786098 0.937862 0.765418 0.93577 0.744756C0.933051 0.717902 0.933498 0.703797 0.933498 0.733393C0.933498 1.35961 0.942475 1.98564 0.894864 2.61053C0.891964 2.64859 0.892591 2.65101 0.892591 2.61564C0.892591 2.55708 0.891088 2.49788 0.897137 2.43952C0.906479 2.34939 0.979697 2.36279 1.05622 2.34862" stroke="#333333" stroke-linecap="round" stroke-linejoin="round"/>
</svg>
