<svg width="8" height="5" viewBox="0 0 8 5" fill="none" xmlns="http://www.w3.org/2000/svg">
<path d="M1.30992 2.68257C1.55535 2.58089 1.79827 2.43879 2.02407 2.30021C2.30537 2.12757 2.56267 1.93145 2.88424 1.83661C3.28955 1.71707 3.72371 1.67894 4.1404 1.61674C4.40351 1.57746 4.66635 1.5373 4.9233 1.46675C5.16785 1.3996 5.40694 1.31133 5.64711 1.2304C5.95038 1.12821 6.25018 1.0335 6.56636 0.982123C6.6156 0.974121 6.64644 0.95243 6.65726 1.01508C6.73413 1.45981 6.50703 1.87868 6.48682 2.31782C6.48027 2.4601 6.50672 2.63246 6.42603 2.76097C6.36934 2.85125 6.29637 2.90702 6.19593 2.94278C5.81494 3.07844 5.41618 3.08475 5.02556 3.17003C4.68846 3.24363 4.34437 3.28806 4.00973 3.37172C3.54403 3.48815 3.13697 3.71819 2.69959 3.90634C2.4542 4.01191 2.20482 4.10565 1.95078 4.18814C1.84772 4.22161 1.743 4.25047 1.64058 4.28586C1.62157 4.29243 1.58245 4.32161 1.57808 4.28586C1.55883 4.1283 1.60087 3.95701 1.60535 3.79897C1.60743 3.72571 1.58203 3.61581 1.62865 3.55126C1.68766 3.46955 1.79621 3.42083 1.88488 3.38138C2.03428 3.31492 2.17366 3.24437 2.31667 3.16549C2.49533 3.06694 2.68611 2.98349 2.85754 2.8729C2.98175 2.79276 3.09953 2.70251 3.2274 2.62803C3.39176 2.53229 3.56906 2.47037 3.74668 2.40475C3.99474 2.3131 4.23008 2.18561 4.47333 2.08148C4.65958 2.00174 4.84667 1.95738 5.04261 1.90649C5.23756 1.85585 5.43408 1.8161 5.63461 1.79456C5.7601 1.78109 5.88594 1.78465 6.01186 1.7815C6.08159 1.77975 6.11233 1.77774 6.18059 1.77241C6.18639 1.77195 6.26398 1.76153 6.28229 1.76957C6.34043 1.79509 6.11541 2.05362 6.09367 2.07693C5.89313 2.29195 5.64587 2.4111 5.36304 2.47917C4.94844 2.57897 4.51207 2.6102 4.10745 2.74904C3.97972 2.79287 3.85155 2.8554 3.7302 2.91437C3.70906 2.92464 3.66197 2.95866 3.64157 2.94846" stroke="#333333" stroke-linecap="round" stroke-linejoin="round"/>
</svg>
