<svg width="3" height="8" viewBox="0 0 3 8" fill="none" xmlns="http://www.w3.org/2000/svg">
<path d="M2.31301 2.02544C2.15714 2.59999 1.95516 3.15506 1.74609 3.71222C1.62306 4.04009 1.55055 4.22606 1.44207 4.54974C1.41147 4.64105 1.3834 4.73319 1.35533 4.8253C1.34183 4.86962 1.33088 4.91469 1.31739 4.95902C1.314 4.97014 1.31109 5.00129 1.30474 4.99154C1.29529 4.97703 1.30474 4.95691 1.30474 4.93959C1.30474 4.90812 1.30474 4.87665 1.30474 4.84518C1.30474 4.66614 1.30474 4.4871 1.30474 4.30806C1.30474 3.92032 1.30474 3.53258 1.30474 3.14484C1.30474 2.96882 1.30474 2.79279 1.30474 2.61676C1.30474 2.52107 1.29887 2.80902 1.27944 2.90271C1.20906 3.2421 1.07375 3.56519 0.993945 3.9024C0.975248 3.98141 0.963699 4.06023 0.963227 4.14137C0.963184 4.14878 0.960927 4.15735 0.965034 4.16351C0.97785 4.18273 0.978854 4.1194 0.98491 4.0971C1.11398 3.62188 1.26538 3.15321 1.39735 2.6791C1.4551 2.4716 1.4511 2.25907 1.4511 2.04622C1.4511 1.99382 1.4511 1.94142 1.4511 1.88902C1.4511 1.85928 1.46177 1.80783 1.4493 1.7815C1.44273 1.76764 1.39125 1.88029 1.38425 1.89715C1.36205 1.95058 1.34977 2.00997 1.33365 2.06564C1.32292 2.10272 1.31508 2.13535 1.30158 2.17135C1.28713 2.20986 1.29257 2.25376 1.28035 2.29287C1.25581 2.37138 1.26644 2.45918 1.24963 2.53952C1.20673 2.74446 1.18974 2.95429 1.15793 3.1611C1.13203 3.32943 1.10777 3.49774 1.08474 3.6666C1.07755 3.71935 1.06893 3.76513 1.06893 3.81928C1.06893 3.91331 1.03736 4.00215 1.02647 4.0953C1.01112 4.22661 1.00584 4.36006 0.987621 4.49102C0.94987 4.76235 0.879462 5.03284 0.867007 5.30685C0.85408 5.59125 0.861269 5.8804 0.804216 6.16063C0.761627 6.36982 0.749555 6.59093 0.657401 6.78493C0.648216 6.80427 0.597862 6.9812 0.544467 6.91594C0.515302 6.88029 0.501305 6.82409 0.53227 6.78584C0.551169 6.76249 0.540402 6.70753 0.540402 6.67832C0.540402 6.61508 0.540402 6.55184 0.540402 6.48859C0.540402 6.35559 0.549257 6.22195 0.568409 6.09061C0.584792 5.97827 0.572927 5.85848 0.572927 5.74504C0.572927 5.69103 0.589189 5.63989 0.589189 5.58738C0.589189 5.53668 0.587982 5.48583 0.589189 5.43515C0.590776 5.36851 0.605452 5.30441 0.605452 5.23729C0.605452 5.1741 0.59858 5.10662 0.607259 5.04394C0.624369 4.92037 0.641891 4.79702 0.661919 4.67352C0.703939 4.41439 0.723556 4.14879 0.806023 3.89834C0.851982 3.75876 0.885427 3.61612 0.930702 3.47642C0.973606 3.34403 1.01378 3.21037 1.04047 3.07392C1.05383 3.00565 1.05558 2.93685 1.06171 2.86793C1.06682 2.81037 1.08524 2.74948 1.09694 2.69265C1.11031 2.6277 1.11347 2.56114 1.13037 2.4966C1.15832 2.38989 1.19073 2.28349 1.22343 2.17813C1.26592 2.04119 1.3087 1.90466 1.33907 1.76434C1.35521 1.6898 1.37557 1.61736 1.39735 1.54434C1.41214 1.49474 1.43584 1.4476 1.44568 1.39662C1.46707 1.28578 1.51255 1.17375 1.5812 1.08221" stroke="#333333" stroke-linecap="round" stroke-linejoin="round"/>
</svg>
