<svg width="5" height="7" viewBox="0 0 5 7" fill="none" xmlns="http://www.w3.org/2000/svg">
<path d="M3.76851 2.29334C3.72949 2.07591 3.67334 1.86703 3.60679 1.65639C3.60316 1.64489 3.52389 1.31746 3.47308 1.33294C3.45116 1.33962 3.38969 1.42868 3.38905 1.42962C3.33416 1.51051 3.2474 1.65833 3.20203 1.73409C3.09777 1.90818 3.03617 2.01421 2.92738 2.18582C2.85702 2.29681 2.78009 2.43971 2.68615 2.53637C2.65915 2.56416 2.66231 2.53688 2.65995 2.51198C2.65519 2.46179 2.6555 2.39023 2.65634 2.34258C2.65839 2.22504 2.66772 2.10867 2.69112 1.99338C2.71404 1.88048 2.75249 1.76971 2.78734 1.66C2.79756 1.62782 2.79658 1.5923 2.81083 1.56152C2.81643 1.54942 2.8312 1.51302 2.8298 1.52629C2.82435 1.57814 2.78762 1.62633 2.76159 1.66949C2.72208 1.73499 2.68904 1.8028 2.6473 1.8669C2.62777 1.89689 2.61598 1.93063 2.5958 1.96041C2.56732 2.00245 2.53302 2.04008 2.50546 2.08283C2.34531 2.33121 2.25525 2.61676 2.18743 2.90228C2.15869 3.02333 2.15852 3.14241 2.15852 3.26638C2.15852 3.55028 2.13611 3.83389 2.14316 4.1179C2.14374 4.14114 2.14061 4.19087 2.16304 4.18476C2.19085 4.17717 2.27334 4.09623 2.27778 4.09215C2.37888 3.99928 2.47499 3.90543 2.54973 3.78949C2.63057 3.66407 2.69797 3.52558 2.76656 3.39286C2.81074 3.30739 2.83741 3.01475 2.82438 3.11008C2.80197 3.27415 2.7704 3.42675 2.71597 3.5844C2.54885 4.0684 2.34257 4.53808 2.13774 5.00692C2.0865 5.12422 2.03981 5.23834 2.00313 5.36063C1.98048 5.43612 1.95738 5.51132 1.92001 5.58107C1.90975 5.60022 1.88505 5.65595 1.88251 5.63438C1.87455 5.56667 1.88206 5.49369 1.88206 5.42568C1.88206 5.28575 1.87666 5.14885 1.89787 5.01098C1.91464 4.90199 1.90707 4.78986 1.92272 4.68031C1.93754 4.57657 1.9639 4.47373 1.97602 4.36952C2.0044 4.12548 2.05282 3.88365 2.05282 3.6377C2.05282 3.33685 2.02509 3.02026 2.08082 2.72249C2.09964 2.62197 2.13416 2.5186 2.17117 2.42344C2.18633 2.38446 2.20523 2.35337 2.20731 2.3096C2.20871 2.28024 2.18574 2.36428 2.17433 2.39136C2.16236 2.41981 2.15442 2.46307 2.13323 2.48578C2.10792 2.51289 2.08356 2.54215 2.06095 2.57161C2.02292 2.62115 1.9975 2.68669 1.97557 2.74372C1.9707 2.75639 1.93443 2.83768 1.93266 2.83452C1.91891 2.81008 1.93579 2.76029 1.9304 2.73333C1.92927 2.7277 1.90347 2.79607 1.89652 2.8038C1.88365 2.81809 1.88415 2.81902 1.88025 2.83994C1.87412 2.87291 1.85879 2.89986 1.85044 2.93119C1.82296 3.03422 1.76912 3.13294 1.75196 3.24018C1.74635 3.27523 1.72949 3.30943 1.71944 3.34362C1.7036 3.39746 1.69752 3.45426 1.68149 3.50851C1.65839 3.58669 1.65167 3.66358 1.62638 3.74115C1.54652 3.98606 1.53995 4.24912 1.47008 4.496C1.43268 4.62816 1.40008 4.75276 1.39328 4.89037C1.38992 4.95845 1.38168 5.0278 1.37612 5.09591C1.36925 5.18003 1.36979 5.26356 1.36979 5.34798C1.36979 5.42057 1.39377 5.48082 1.40638 5.55261C1.4245 5.65574 1.43055 5.761 1.45156 5.86341C1.45644 5.88722 1.49601 6.07306 1.53964 6.06262C1.58817 6.05102 1.64248 5.97844 1.67697 5.94879C1.83041 5.81688 1.99673 5.70113 2.14226 5.55984C2.41062 5.29931 2.62926 4.96244 2.7765 4.61887" stroke="#333333" stroke-linecap="round" stroke-linejoin="round"/>
</svg>
