<svg width="5" height="9" viewBox="0 0 5 9" fill="none" xmlns="http://www.w3.org/2000/svg">
<path d="M1.47173 1.44956C1.57354 1.45555 1.65379 1.56769 1.72172 1.63818C1.79606 1.71534 1.83454 1.82476 1.89727 1.91203C1.9364 1.96647 1.96127 2.03007 2.00408 2.0819C2.0385 2.12357 2.08474 2.15601 2.11487 2.20121C2.14638 2.24848 2.18073 2.28926 2.21657 2.33359C2.27935 2.41124 2.3172 2.50584 2.36712 2.59152C2.40035 2.64856 2.44628 2.69575 2.47393 2.75628C2.49461 2.80154 2.50673 2.84789 2.52961 2.89264C2.64821 3.1246 2.70423 3.38182 2.80005 3.62327C2.96306 4.03406 3.06492 4.46397 3.21195 4.88056C3.28078 5.07558 3.36056 5.26611 3.43807 5.45779C3.52335 5.6687 3.63311 5.86837 3.7193 6.07877C3.78841 6.2475 3.83587 6.42206 3.89656 6.59351C3.96433 6.78497 4.06351 6.96528 4.13972 7.15369C4.20882 7.32452 4.27929 7.49337 4.35675 7.66048C4.38631 7.72424 4.37607 7.72849 4.37607 7.66729C4.37607 7.54287 4.37607 7.41845 4.37607 7.29402C4.37607 7.16427 4.36422 7.03954 4.35562 6.91053C4.35325 6.87502 4.33149 6.84652 4.32153 6.81281C4.30933 6.77153 4.30315 6.72369 4.29653 6.681C4.28125 6.58256 4.3029 6.48009 4.28914 6.38102C4.26256 6.18959 4.21693 5.99163 4.14086 5.81231C4.11231 5.74501 4.07201 5.68436 4.04371 5.61687C4.01774 5.55496 3.98438 5.49778 3.96246 5.43393C3.94383 5.37965 3.90625 5.32448 3.89769 5.26747C3.88735 5.1985 3.86321 5.14045 3.84656 5.07203C3.82036 4.96429 3.79492 4.85364 3.75736 4.74932C3.6957 4.57805 3.59582 4.42219 3.5534 4.24368C3.52575 4.12732 3.46219 4.01964 3.43296 3.90166C3.39949 3.76662 3.31203 3.6509 3.27842 3.51646C3.25685 3.43015 3.22724 3.35268 3.19434 3.26932C3.14771 3.15119 3.09311 3.02712 3.03071 2.91764C2.96865 2.80874 2.93827 2.67992 2.88413 2.56652C2.84894 2.49283 2.82726 2.41283 2.783 2.34381C2.74821 2.28957 2.73658 2.23109 2.70801 2.17394C2.5431 1.84413 2.38313 1.51339 2.21827 1.18367" stroke="#333333" stroke-linecap="round" stroke-linejoin="round"/>
</svg>
