<svg width="8" height="8" viewBox="0 0 8 8" fill="none" xmlns="http://www.w3.org/2000/svg">
<path d="M1.92312 2.85975C1.92758 2.69912 1.93894 2.54253 1.9746 2.38541C1.97691 2.37525 1.98885 2.34742 1.98931 2.35783C1.99217 2.42212 1.98931 2.48653 1.98931 2.55088C1.98931 2.85666 1.98711 3.16253 1.98931 3.4683C1.99088 3.68617 1.96873 3.94503 2.0555 4.15223C2.08695 4.22735 2.14745 4.29722 2.16397 4.16327C2.21874 3.71901 2.19567 3.24445 2.17316 2.79908C2.16047 2.54799 2.12131 2.32156 2.02792 2.08941C1.96276 1.92745 1.93722 2.14426 1.91944 2.22178C1.72101 3.0874 1.61603 3.97223 1.42304 4.83984C1.2763 5.49952 1.15669 5.93912 0.985472 6.57725C0.934934 6.76561 0.86631 6.95051 0.83839 7.14352C0.824446 7.23991 0.90426 6.95873 0.917447 6.86223C0.992661 6.3118 1.05024 5.75466 1.08291 5.2002C1.13176 4.37117 1.11233 1.87853 1.11233 2.70899C1.11233 3.18255 1.10589 3.65391 1.06821 4.1265C1.0356 4.53549 1.0019 4.76831 0.957894 5.1671C0.946103 5.27396 0.934182 5.38083 0.924801 5.48793C0.91947 5.54878 0.914488 5.60977 0.91377 5.67086C0.913565 5.68824 0.907213 5.71327 0.922043 5.72234C0.933395 5.72927 0.941039 5.70304 0.946863 5.69108C0.975523 5.63223 0.999164 5.57106 1.025 5.51091C1.07398 5.39687 1.40923 4.61132 1.41293 4.60267C1.75092 3.81241 2.09303 3.02512 2.36988 2.21075C2.45779 1.95218 2.50126 1.80776 2.57396 1.56543C2.60266 1.46977 2.61214 1.3855 2.61349 1.53325C2.62038 2.2882 2.58063 3.04909 2.50685 3.80016C2.45829 4.29459 2.37397 4.78494 2.34231 5.28109C2.33862 5.33889 2.2961 5.42117 2.34323 5.45483C2.35215 5.46121 2.35877 5.43848 2.36253 5.42817C2.38162 5.37581 2.39574 5.32175 2.41125 5.26822C2.59402 4.63752 2.76783 4.00397 2.94534 3.37178C3.36154 1.88952 2.88835 3.57258 3.18343 2.5187C3.22029 2.38706 3.26222 2.21904 3.23399 2.47734C3.16735 3.0872 3.05982 3.69173 2.93431 4.29196C2.80645 4.90349 2.62995 5.51211 2.53719 6.13049C2.53648 6.13523 2.49262 6.43757 2.52616 6.44672C2.5511 6.45352 2.55711 6.40458 2.56661 6.38053C2.60005 6.29584 2.65599 6.1154 2.67692 6.04408C2.9382 5.15348 3.07734 4.23711 3.22664 3.32306C3.23402 3.27786 3.22903 3.15187 3.25605 3.18885C3.2684 3.20573 3.26095 3.23045 3.26157 3.25136C3.2634 3.31262 3.26246 3.37393 3.26341 3.43521C3.27451 4.15589 3.29976 4.88535 3.45002 5.59272C3.47154 5.69406 3.46068 5.83891 3.55298 5.88597C3.61779 5.91901 3.63923 5.76587 3.66145 5.6966C3.85156 5.10406 3.93416 4.47463 4.02732 3.86175C4.0608 3.64147 4.13531 3.12166 4.17164 2.8763C4.19082 2.74678 4.20037 2.61511 4.23323 2.48837C4.27853 2.31365 4.23967 2.84932 4.23967 3.02981C4.23967 3.66483 4.25845 4.29626 4.3463 4.92625C4.38776 5.22354 4.42512 5.41316 4.4943 5.692C4.49901 5.71097 4.54068 5.88886 4.57428 5.94112C4.58674 5.96051 4.60962 5.90752 4.61473 5.88505C4.63897 5.77838 4.66889 5.56155 4.68183 5.47965C4.79612 4.75647 4.93047 4.03672 5.04678 3.31387C5.14305 2.71552 5.09191 3.01388 5.16445 2.54536C5.17751 2.461 5.18723 2.3056 5.20306 2.47734C5.28548 3.37166 5.33067 4.26516 5.45493 5.15607C5.52283 5.64283 5.57946 5.97783 5.6921 6.43936C5.70129 6.47699 5.77496 6.79787 5.84378 6.88796C5.87581 6.92989 5.91382 6.80355 5.92468 6.75191C5.97184 6.52766 6.01395 6.19935 6.04234 5.99076C6.15453 5.16666 6.26451 4.34117 6.3457 3.51335C6.36242 3.34288 6.37098 3.17166 6.38891 3.00132C6.4007 2.88923 6.4089 3.0087 6.41924 3.07394C6.53026 3.77394 6.63437 4.47347 6.79154 5.16526C6.84861 5.41642 6.91505 5.68966 7.00389 5.93561C7.09261 6.1812 7.11861 6.00022 7.14454 5.84C7.27587 5.02873 7.34318 4.20228 7.40929 3.38373C7.44486 2.94336 7.43222 3.06577 7.44974 2.74576C7.45332 2.68028 7.44974 2.87691 7.44974 2.94248C7.44974 3.50446 7.44974 4.06644 7.44974 4.62841C7.44974 4.79388 7.44974 4.95935 7.44974 5.12482C7.44974 5.16343 7.46195 5.27727 7.44974 5.24064C7.37606 5.01962 7.31516 4.8031 7.22544 4.58429C6.99653 4.02604 6.76079 3.46866 6.50473 2.92226C6.42503 2.75217 6.32971 2.5605 6.23999 2.39276C6.20385 2.3252 6.18496 2.24084 6.12416 2.1942C6.08821 2.16663 6.0797 2.27479 6.07084 2.31922C6.00138 2.66739 5.95576 3.02244 5.90537 3.37362C5.84998 3.7597 5.80044 4.14612 5.75737 4.53373C5.75221 4.58015 5.74803 4.6461 5.74634 4.56315C5.74483 4.48925 5.74542 4.16801 5.74542 4.15223C5.74542 3.38863 5.74542 2.62503 5.74542 1.86143C5.74542 1.19218 5.76034 3.20068 5.72704 3.8691C5.7241 3.92797 5.75552 4.22658 5.61581 4.14028C5.33037 3.96398 5.03676 3.90137 4.71952 3.80291" stroke="#333333" stroke-linecap="round" stroke-linejoin="round"/>
</svg>
