<svg width="7" height="8" viewBox="0 0 7 8" fill="none" xmlns="http://www.w3.org/2000/svg">
<path d="M6.45387 6.85619C6.451 6.72273 6.44503 6.59079 6.38456 6.46986C6.36426 6.42926 6.35484 6.38145 6.34934 6.33691C6.34797 6.32582 6.31618 6.20408 6.3357 6.19374C6.40107 6.15913 6.43742 6.3526 6.44592 6.38577C6.46154 6.44669 6.51099 6.44786 6.49308 6.36873C6.48211 6.32028 6.45523 6.27233 6.45387 6.22215C6.45328 6.20007 6.45623 6.17703 6.45331 6.15511C6.4472 6.10929 6.45305 6.04742 6.42263 6.01193C6.39674 5.98173 6.38073 5.94413 6.37206 5.90512C6.36437 5.87053 6.36533 5.80982 6.34706 5.78013C6.32569 5.74541 6.33116 5.71031 6.33116 5.66991C6.33116 5.62606 6.31693 5.58588 6.30275 5.54492C6.27795 5.47327 6.2081 5.41601 6.16299 5.358C6.14636 5.33663 6.12179 5.28282 6.11697 5.25631C6.11038 5.22009 6.05979 5.16871 6.03686 5.13813C5.98054 5.06304 5.95448 4.98081 5.90619 4.90179C5.86909 4.84108 5.821 4.78808 5.7829 4.73305C5.75963 4.69944 5.72726 4.65906 5.69711 4.63192C5.68658 4.62244 5.67426 4.61153 5.6687 4.5984C5.65652 4.56959 5.62668 4.56294 5.60734 4.53931C5.55672 4.47744 5.5164 4.41627 5.4744 4.34842C5.45148 4.31139 5.44607 4.29483 5.41645 4.26433C5.39842 4.24577 5.39233 4.21874 5.37782 4.20241C5.36827 4.19167 5.35002 4.19316 5.34145 4.18138C5.33454 4.17188 5.33988 4.16405 5.32839 4.15639C5.26175 4.11196 5.2159 4.03027 5.17385 3.9672C5.11346 3.87661 5.0441 3.77212 4.95285 3.70642C4.93159 3.69111 4.93251 3.67136 4.91876 3.65074C4.90458 3.62947 4.88196 3.61981 4.86535 3.60188C4.84819 3.58335 4.84799 3.55638 4.82786 3.53768C4.79595 3.50805 4.77454 3.46851 4.75172 3.43201C4.6936 3.339 4.6242 3.25604 4.56197 3.16441C4.5119 3.09071 4.45532 3.01929 4.41539 2.93943C4.39292 2.89449 4.36063 2.86139 4.33471 2.81671C4.30011 2.75705 4.24855 2.70925 4.21199 2.64968C4.18274 2.60201 4.13245 2.55301 4.09154 2.51503C4.01622 2.44508 3.91224 2.37999 3.85122 2.2997C3.77936 2.20515 3.67141 2.15227 3.58704 2.0679C3.51777 1.99863 3.43852 1.92662 3.35637 1.87132C3.21428 1.77568 3.09235 1.65906 2.9422 1.57419C2.88712 1.54305 2.84112 1.49743 2.78425 1.46681C2.71994 1.43218 2.65565 1.38144 2.59847 1.33613C2.54593 1.2945 2.49367 1.25297 2.43712 1.21796C2.39163 1.1898 2.34327 1.17425 2.29679 1.14978C2.18568 1.09131 2.10032 0.998437 1.99851 0.928778C1.95894 0.901698 1.89947 0.870072 1.86671 0.837307C1.81756 0.78816 1.75325 0.782351 1.69626 0.748677C1.59742 0.690267 1.48523 0.642775 1.37924 0.597552C1.36118 0.589846 1.32463 0.566781 1.30538 0.564031C1.27339 0.559461 1.36518 0.792199 1.37015 0.802082C1.42524 0.911649 1.4679 1.02126 1.51389 1.13501C1.57046 1.27495 1.65597 1.41021 1.74171 1.53385C1.79719 1.61384 1.85274 1.69361 1.90988 1.77247C2.02274 1.92821 2.15438 2.0439 2.30758 2.1588C2.45482 2.26923 2.57423 2.4045 2.70983 2.52809C2.87714 2.6806 3.05583 2.82094 3.23081 2.96443C3.33973 3.05374 3.41265 3.17441 3.49613 3.28599C3.59534 3.41861 3.70126 3.55463 3.82338 3.66722C3.87831 3.71785 3.94 3.76029 3.98473 3.82118C4.05127 3.91175 4.11258 4.00603 4.18017 4.09616C4.23543 4.16984 4.26614 4.25738 4.31653 4.33421C4.37674 4.42603 4.43617 4.5174 4.48811 4.61431C4.54304 4.71681 4.61011 4.81503 4.65741 4.9211C4.69955 5.01559 4.76575 5.09766 4.80229 5.19438C4.85928 5.34525 4.90391 5.49651 4.96819 5.64435C4.99997 5.71745 5.03358 5.7974 5.05284 5.87444" stroke="#333333" stroke-linecap="round" stroke-linejoin="round"/>
</svg>
