<svg width="8" height="7" viewBox="0 0 8 7" fill="none" xmlns="http://www.w3.org/2000/svg">
<path d="M2.99959 5.72074C3.28793 5.67577 3.52681 5.54373 3.78742 5.41221C4.229 5.18936 4.66438 4.95517 5.11011 4.74047C5.18646 4.7037 5.26351 4.6684 5.34049 4.63296C5.39417 4.60825 5.45242 4.59185 5.50176 4.55933C5.51176 4.55274 5.47895 4.55052 5.46698 4.55029C5.39026 4.54887 5.3671 4.54964 5.27634 4.55978C4.9213 4.59943 4.56678 4.6731 4.22018 4.75764C3.52354 4.92755 2.8476 5.15872 2.1946 5.45512C1.8861 5.59515 1.58354 5.75107 1.28706 5.91499C1.25873 5.93065 1.22968 5.94516 1.20259 5.96287C1.19797 5.96589 1.18911 5.97262 1.1931 5.97642C1.2254 6.00718 1.28292 5.97204 1.32591 5.96016C1.65412 5.86949 1.96867 5.71835 2.28043 5.58522C2.85845 5.33839 3.43616 5.09109 4.0169 4.8507C4.35302 4.71157 4.69212 4.58072 5.02879 4.44323C5.21633 4.36664 4.64696 4.57968 4.46141 4.66097C4.06003 4.83682 3.66728 5.03028 3.28825 5.25048C3.08432 5.36896 2.91638 5.47529 2.72674 5.61007C2.67286 5.64836 2.618 5.68581 2.56864 5.72978C2.54731 5.74877 2.5224 5.76966 2.51624 5.79754C2.51296 5.81234 2.53127 5.82851 2.54605 5.83187C2.61896 5.84845 2.92728 5.82561 2.95081 5.82374C3.38062 5.78946 3.80964 5.73101 4.23283 5.64846C4.24157 5.64676 4.47676 5.60186 4.25768 5.63446C3.87343 5.69164 3.49137 5.76464 3.11162 5.84632C2.93978 5.88329 2.76849 5.92283 2.59755 5.96378C2.46671 5.99512 2.33582 6.02659 2.20634 6.06316C2.14746 6.07979 2.08571 6.09237 2.03288 6.12324C1.9528 6.17003 2.21765 6.15071 2.31024 6.14537C2.67981 6.12409 2.9849 6.08733 3.35918 6.03741C3.95081 5.9585 4.54184 5.8644 5.12817 5.75236C5.21271 5.73621 5.29708 5.71898 5.3807 5.69861C5.41586 5.69004 5.45638 5.68885 5.48414 5.66563C5.49498 5.65657 5.46324 5.64517 5.44981 5.64078C5.40609 5.62652 5.36077 5.61669 5.31519 5.61052C4.8195 5.5434 4.30661 5.54909 3.8091 5.57754C3.03049 5.62208 2.27519 5.75926 1.51474 5.92222C1.29277 5.96978 1.27595 5.97279 1.46911 5.85717C1.90252 5.59773 2.33548 5.33868 2.76153 5.06708C3.3142 4.71476 3.85955 4.35138 4.36293 3.93006C4.55598 3.76848 4.82265 3.51935 4.99988 3.32473C5.04298 3.2774 5.08308 3.22705 5.11869 3.17385C5.13344 3.15182 5.16611 3.12162 5.14986 3.10067C5.12998 3.07503 5.08559 3.08786 5.05319 3.08938C4.84706 3.09904 4.55496 3.15978 4.37242 3.20186C4.0281 3.28124 3.77255 3.35098 3.44772 3.48149C3.36204 3.51591 3.12215 3.6139 3.03754 3.71368C2.92376 3.84786 3.39266 3.76038 3.56517 3.72587C4.469 3.54511 5.36967 3.24926 6.20692 2.86396C6.31903 2.81237 6.42949 2.75597 6.53353 2.68959C6.64015 2.62157 6.73819 2.55734 6.56153 2.51161C6.46947 2.48777 6.3734 2.47754 6.2783 2.47728C5.91935 2.47626 5.42927 2.54195 5.09294 2.62364C4.41659 2.7879 3.76722 3.05784 3.20559 3.47245C3.11657 3.53816 2.80131 3.76733 2.77508 3.95039C2.75148 4.11507 3.03278 4.07953 3.07368 4.07733C3.45245 4.05695 3.82492 3.91549 4.16056 3.74756C4.27838 3.68861 4.52054 3.5445 4.63398 3.4476C4.69313 3.39708 4.71246 3.34603 4.60597 3.38255C4.51391 3.41413 4.42545 3.45578 4.33809 3.49865C3.96997 3.67929 3.62782 3.87737 3.27786 4.09359C3.16582 4.16282 2.5603 4.51837 2.43402 4.71563C2.40719 4.75754 2.4142 4.84586 2.46112 4.86244C2.58877 4.90757 2.73266 4.88357 2.86723 4.86877C3.10383 4.84274 3.3384 4.79671 3.56968 4.74047C3.96499 4.64435 4.79256 4.38355 5.1869 4.22188C5.31379 4.16986 5.45025 4.12338 5.551 4.03034C5.58199 4.00173 5.56554 3.92728 5.52932 3.90567C5.42995 3.84637 5.30748 3.83805 5.19368 3.81713C4.75108 3.73574 4.27952 3.72286 3.84524 3.86049C3.7632 3.88649 3.68239 3.92402 3.61531 3.97794C3.58282 4.00406 3.5409 4.05279 3.55975 4.08997C3.6124 4.19387 4.02105 4.23432 4.03859 4.23634C4.17859 4.2524 4.3197 4.25725 4.46051 4.26299C4.57083 4.26749 4.91506 4.28679 5.05861 4.2395C5.16957 4.20294 5.15347 4.13379 5.15709 4.03983C5.16096 3.939 5.1589 3.82995 5.13992 3.73039C5.11747 3.61261 5.06685 3.4765 4.93302 3.4458C4.86406 3.42998 4.77987 3.45817 4.72252 3.49368C4.69759 3.50911 4.67634 3.53043 4.65747 3.55286C4.64549 3.56708 4.62031 3.58708 4.63126 3.6021C4.64212 3.61699 4.66936 3.60021 4.68547 3.59126C4.81958 3.51675 5.003 3.3549 5.10107 3.26465C5.33582 3.04863 5.6379 2.77431 5.62328 2.41765C5.60818 2.04925 5.32137 1.739 4.99988 1.6C4.77676 1.50353 4.56851 1.48207 4.33673 1.54986C4.19791 1.59046 4.06809 1.66462 4.05395 1.82406C4.03287 2.06164 4.33877 2.23727 4.52375 2.29026C4.76275 2.35872 5.04058 2.33881 5.27634 2.2767C5.52239 2.21189 5.87419 2.04909 6.07863 1.89092C6.25404 1.75521 6.47634 1.49134 6.35148 1.24946C6.2679 1.08756 6.13791 1.09069 5.9684 1.12161C5.64938 1.17982 5.3219 1.35667 5.05093 1.51508C4.86303 1.62492 4.67805 1.74084 4.50297 1.87014C4.24604 2.05989 3.89596 2.36474 3.70972 2.6399C3.64722 2.73225 3.59825 2.83709 3.57511 2.94618C3.52997 3.15889 3.61716 3.22863 3.82898 3.21993C3.96802 3.21422 4.10527 3.17701 4.23735 3.1332C4.51827 3.04001 4.99018 2.81152 5.2384 2.64351C5.26293 2.62691 5.60599 2.39768 5.55281 2.24508C5.51566 2.13851 5.2185 2.1395 5.17787 2.14118C4.86672 2.15407 4.55058 2.24924 4.25994 2.3544C4.16507 2.38873 3.89484 2.52357 3.99115 2.49354C4.08649 2.46381 4.1784 2.41175 4.26807 2.36886C4.30478 2.3513 4.35555 2.32861 4.39004 2.30562" stroke="#333333" stroke-linecap="round" stroke-linejoin="round"/>
</svg>
