<svg width="9" height="10" viewBox="0 0 9 10" fill="none" xmlns="http://www.w3.org/2000/svg">
<path d="M3.56467 8.8557C3.86787 8.731 4.12952 8.53655 4.40553 8.36136C4.84946 8.07959 5.29154 7.82656 5.77148 7.61156C6.39499 7.33225 6.96348 7.08456 7.37515 6.51998C7.4397 6.43145 7.50781 6.28304 7.59039 6.20422C7.69642 6.10301 7.41181 6.43807 7.30655 6.54009C6.52249 7.30006 5.62663 7.98229 4.68463 8.53521C4.59891 8.58553 4.51321 8.636 4.42564 8.68304C4.37003 8.71291 4.31414 8.74289 4.25534 8.76582C4.23456 8.77393 4.19065 8.79753 4.18911 8.77528C4.18652 8.73797 4.22698 8.71059 4.24942 8.68067C4.37439 8.51405 4.51202 8.3573 4.64206 8.19461C5.43077 7.20783 6.27758 6.26615 7.05347 5.26993C7.11548 5.19031 7.17573 5.10924 7.23323 5.02631C7.29799 4.9329 7.34732 4.86668 7.22613 4.95653C6.66447 5.37294 6.13621 5.83873 5.58108 6.26453C5.1854 6.56803 4.78836 6.87093 4.35941 7.12668C4.14039 7.25726 3.90304 7.35926 3.68767 7.49566C3.63301 7.53028 3.80406 7.43695 3.85442 7.39632C4.09911 7.19893 4.29237 6.94294 4.4895 6.70093C4.80618 6.31215 5.12308 5.92257 5.42615 5.52302C5.60949 5.28131 5.72005 5.12816 5.88383 4.88557C5.90171 4.85909 6.03665 4.66595 6.05887 4.59464C6.0858 4.50817 5.87621 4.63498 5.8046 4.69044C5.42314 4.98583 5.10006 5.34852 4.71893 5.64601C4.18598 6.06201 3.62394 6.44184 3.07151 6.83102C2.77869 7.03731 2.55387 7.19563 2.27323 7.39632C2.12809 7.50011 2.13855 7.50578 2.21409 7.41998C2.88141 6.66204 3.47328 5.8223 4.08503 5.01921C4.30178 4.73468 4.52087 4.45176 4.73667 4.16653C5.03088 3.77766 4.66127 4.20624 4.60421 4.27651C3.78406 5.2866 2.90086 6.256 2.12658 7.30171C2.06926 7.37912 1.89547 7.60767 1.96574 7.54179C2.17912 7.34175 2.3606 7.02572 2.5204 6.78963C3.13053 5.88817 3.6031 4.91094 4.03063 3.91226C4.04785 3.87205 4.27672 3.44375 4.23405 3.34222C4.21173 3.28912 4.12635 3.38959 4.08503 3.42974C3.95808 3.55311 3.71144 3.8391 3.61434 3.9501C3.09488 4.54391 1.52207 6.31244 2.03552 5.71342C2.14962 5.5803 2.24096 5.41616 2.34182 5.27466C2.79198 4.64314 3.29593 4.0544 3.79647 3.46285C4.17399 3.01669 4.55483 2.57312 4.92471 2.12055C5.26186 1.70805 4.94027 2.07994 4.91288 2.11228C4.73103 2.32702 4.55968 2.55391 4.36296 2.75563C4.19277 2.93015 3.9904 3.07058 3.80475 3.22751C3.68351 3.32998 3.73875 3.28912 3.82012 3.17192C4.12182 2.73742 4.41405 2.29781 4.72366 1.86865C4.72463 1.8673 5.20483 1.20813 5.17188 1.19336C5.12788 1.17364 5.08829 1.24272 5.05244 1.27496C4.9432 1.37319 4.84104 1.47907 4.73785 1.58363C4.40421 1.92173 4.23662 2.12111 3.88044 2.45051C3.25702 3.02706 2.57452 3.5338 1.89951 4.04708C1.74293 4.16615 1.58517 4.28368 1.42882 4.40305C1.35179 4.46187 1.2768 4.52332 1.19939 4.58163C1.18567 4.59197 1.16068 4.62525 1.15563 4.60883C1.14159 4.56321 1.42291 4.20743 1.43355 4.19136C1.6452 3.8718 1.84184 3.54621 2.0296 3.21213C2.14407 3.00847 2.25771 2.80429 2.37848 2.60425C2.41081 2.55071 2.51995 2.36054 2.48374 2.56878C2.37029 3.22111 2.11662 3.8613 1.92553 4.49412C1.91099 4.54226 1.84448 4.67629 1.95036 4.63958C2.36549 4.49567 2.75724 4.21609 3.14247 4.0116C3.46618 3.83976 3.79034 3.67826 4.12998 3.54091C4.29107 3.47576 4.27437 3.44938 4.15126 3.54564C3.95651 3.69792 3.78349 3.8775 3.59424 4.03643C3.33596 4.25333 3.02086 4.42447 2.7794 4.6585C2.66867 4.76583 2.80992 4.89964 2.88347 4.98137" stroke="#333333" stroke-linecap="round" stroke-linejoin="round"/>
</svg>
