<svg width="4" height="8" viewBox="0 0 4 8" fill="none" xmlns="http://www.w3.org/2000/svg">
<path d="M3.15261 4.24248C3.15261 3.44609 3.15261 2.6497 3.15261 1.85331C3.15261 1.80334 3.16431 1.65623 3.14802 1.70347C3.07069 1.92773 3.03281 2.25319 2.98531 2.4683C2.75106 3.52904 2.49238 4.58218 2.19474 5.62689C2.17013 5.71327 2.14624 5.79986 2.1212 5.88612C2.11315 5.91386 2.11857 5.95153 2.09546 5.96886C2.07612 5.98337 2.10253 5.92101 2.10649 5.89715C2.14834 5.64532 2.16763 5.5567 2.2021 5.28125C2.29489 4.53969 2.30873 3.79738 2.30873 3.05111C2.30873 2.78569 2.34187 2.49067 2.30505 2.22561C2.30409 2.21869 2.29186 2.20662 2.28851 2.21274C2.18163 2.40791 2.1048 2.69005 2.03939 2.88565C1.64986 4.05034 1.32937 5.23428 0.996021 6.41562C0.979455 6.47433 0.937338 6.64473 0.926157 6.58476C0.892411 6.40376 0.966244 6.1402 0.994183 5.96978C1.1599 4.95892 1.26509 3.9457 1.3196 2.92242C1.34573 2.43208 1.34902 1.94233 1.34902 1.45159C1.34902 1.43472 1.34896 1.38437 1.34626 1.40103C1.32359 1.54083 1.30442 1.67868 1.27364 1.81746C1.20357 2.13339 1.11245 2.44475 1.03095 2.75787C0.989124 2.91858 1.00154 2.5234 1.00154 2.52162C1.00032 2.13002 1.00154 1.7384 1.00154 1.3468" stroke="#333333" stroke-linecap="round" stroke-linejoin="round"/>
</svg>
