<svg width="7" height="6" viewBox="0 0 7 6" fill="none" xmlns="http://www.w3.org/2000/svg">
<path d="M5.56152 2.11759C5.43991 1.99091 5.4048 1.93911 5.2444 1.84384C4.93823 1.66198 4.58498 1.55741 4.2447 1.46302C3.74276 1.32379 3.2265 1.2391 2.72913 1.08311C2.62513 1.0505 2.60889 1.04091 2.51772 1.00812C2.4747 0.992656 2.43134 0.971326 2.38626 0.993668C2.28191 1.04538 2.20116 1.17752 2.14639 1.27194C2.00946 1.50802 1.91356 1.76894 1.83017 2.02769C1.68715 2.47148 1.6235 2.93307 1.53112 3.38877C1.47096 3.68559 1.41759 3.98869 1.28673 4.26424C1.27745 4.28378 1.10023 4.57959 1.12456 4.59581C1.16003 4.61946 1.31339 4.60514 1.33778 4.6053C1.51219 4.60644 1.68755 4.60198 1.86179 4.61117C2.06506 4.62189 2.19599 4.64145 2.40749 4.66628C2.9169 4.72609 3.42512 4.78567 3.93843 4.79955C4.18573 4.80623 4.34587 4.8027 4.57989 4.77967C4.61055 4.77665 4.78508 4.7691 4.82519 4.72411C4.83863 4.70902 4.82121 4.6671 4.81796 4.65815C4.78416 4.56531 4.74582 4.48311 4.72897 4.38395C4.69356 4.17561 4.70061 3.95858 4.6996 3.74836C4.69812 3.43758 4.6996 3.12675 4.6996 2.81597C4.6996 2.64826 4.70078 2.4207 4.69644 2.25085C4.69216 2.08324 4.70175 1.85632 4.59751 1.70922C4.53717 1.62407 4.41936 1.55956 4.32285 1.53304C4.01273 1.44781 3.64907 1.47622 3.33355 1.47883C3.02563 1.48139 2.73546 1.48352 2.42872 1.51407C2.10057 1.54674 1.74474 1.60072 1.45885 1.78059C1.3291 1.86222 1.23808 1.98245 1.23117 2.13656C1.22654 2.23993 1.27363 2.30278 1.31248 2.39315C1.37114 2.52959 1.40106 2.63081 1.42903 2.78345C1.49278 3.13131 1.50965 3.48812 1.51441 3.84096C1.51727 4.05311 1.51392 4.20805 1.50131 4.41647C1.49163 4.57648 1.46579 4.73157 1.44981 4.89035C1.44495 4.93866 1.45573 4.92767 1.47872 4.88673C1.5898 4.68897 1.67707 4.47191 1.76286 4.26288C2.10235 3.43576 2.30197 2.57796 2.4233 1.69341C2.42623 1.67204 2.48258 1.19798 2.50145 1.10028C2.50656 1.07381 2.50503 1.00753 2.52675 1.02348C2.55457 1.0439 2.53738 1.09197 2.53714 1.12648C2.53648 1.22114 2.5316 1.31581 2.52404 1.41017C2.46353 2.165 2.32134 2.90514 2.19743 3.65078C2.16503 3.84579 2.14862 3.96492 2.1229 4.15492C2.11577 4.20759 2.10675 4.26007 2.10212 4.31303C2.09805 4.35957 2.09363 4.40272 2.13464 4.34465C2.27074 4.15194 2.38481 3.9278 2.49423 3.7208C2.7264 3.28155 2.9354 2.83084 3.14292 2.37959C3.24062 2.16715 3.3331 1.95229 3.43293 1.74084C3.53513 1.5244 3.49154 1.73467 3.46952 1.84926C3.31948 2.63026 3.07921 3.38999 2.91073 4.16666C2.89099 4.25764 2.86975 4.37131 2.86194 4.46842C2.85702 4.5296 2.86219 4.52627 2.89717 4.46707C3.0999 4.12399 3.27874 3.76377 3.45462 3.40684C3.56645 3.17987 3.67588 2.95171 3.78393 2.72291C3.93089 2.41174 4.05987 2.09187 4.2176 1.78601C4.30688 1.61288 4.26484 1.79871 4.25464 1.87275C4.20577 2.22743 4.12526 2.57694 4.03645 2.92349C3.98408 3.12786 3.89891 3.42751 3.83859 3.63361C3.78356 3.82167 3.73406 4.01974 3.65971 4.2019C3.6376 4.25605 3.63784 4.23674 3.63938 4.1879C3.6457 3.98649 3.67249 3.78285 3.70217 3.58392C3.76732 3.14727 3.86292 2.71422 3.9434 2.28021" stroke="#333333" stroke-linecap="round" stroke-linejoin="round"/>
</svg>
