<svg width="7" height="6" viewBox="0 0 7 6" fill="none" xmlns="http://www.w3.org/2000/svg">
<path d="M1.24364 2.69862C1.26292 2.74441 1.27432 2.77663 1.27432 2.82532C1.27432 2.84281 1.2719 2.86076 1.27887 2.87702C1.28649 2.8948 1.20241 2.83434 1.21069 2.8702C1.21639 2.89489 1.19881 2.9674 1.21864 2.9844C1.24719 3.00887 1.24557 3.01291 1.25614 3.0486C1.27279 3.1048 1.29477 3.17831 1.29477 3.23608C1.29477 3.31923 1.32484 3.38696 1.33795 3.46561C1.3549 3.56727 1.3981 3.65817 1.42772 3.75593C1.47966 3.92733 1.5153 4.09967 1.57089 4.26953C1.65791 4.53542 1.77481 4.79849 1.8686 5.05641C1.92371 5.20797 1.8721 4.73065 1.91291 4.57462C1.94255 4.46128 1.94683 4.34649 1.9487 4.22919C1.95033 4.12782 1.97351 3.98798 1.93336 3.89115C1.91646 3.85038 1.89707 3.80979 1.87769 3.77014C1.86661 3.74747 1.84817 3.74142 1.8311 3.72468C1.80619 3.70027 1.79693 3.66103 1.79019 3.6281C1.76936 3.52624 1.75497 3.43963 1.75497 3.3338C1.75497 3.30276 1.74647 3.28409 1.7794 3.27585C1.83313 3.26242 1.88888 3.25863 1.94302 3.24688C2.07831 3.21751 2.20852 3.16983 2.33788 3.12132C2.35211 3.11598 2.47317 3.05176 2.4981 3.08837C2.54808 3.16179 2.47181 3.37023 2.45492 3.43834C2.37338 3.76707 2.26047 4.08605 2.25607 4.42804C2.25568 4.45796 2.27684 4.57885 2.25039 4.6053C2.2344 4.62129 2.24971 4.58991 2.25493 4.58428C2.35118 4.48048 2.46873 4.39781 2.56855 4.29737C2.69148 4.17366 2.83307 4.01616 2.86171 3.83718C2.87311 3.76592 2.88128 3.69403 2.89011 3.62242C2.8938 3.59252 2.891 3.53487 2.91057 3.50879C2.92158 3.49411 2.92264 3.54446 2.92136 3.56276C2.90806 3.75278 2.8493 3.94418 2.81512 4.1309C2.76028 4.4305 2.72649 4.72331 2.72649 5.02743C2.72649 5.06915 2.74429 4.94591 2.75376 4.90528C2.85554 4.4687 2.93888 4.03053 3.01283 3.58833C3.08775 3.1403 3.17179 2.70256 3.29236 2.26456C3.30918 2.20345 3.31288 2.13774 3.34008 2.08048C3.35927 2.04009 3.33761 2.16989 3.33554 2.21457C3.3236 2.47143 3.30157 2.72703 3.27418 2.98269C3.25232 3.18666 3.22055 3.38972 3.21793 3.59515C3.21651 3.70632 3.21887 4.03966 3.21282 3.92865C3.20881 3.8552 3.21701 3.77799 3.23327 3.7065C3.29717 3.42564 3.43803 3.15571 3.54007 2.88838C3.65123 2.59713 3.6926 2.4785 3.79459 2.19184C3.81668 2.12977 3.83727 2.06714 3.8605 2.00549C3.86683 1.98868 3.87761 1.93957 3.88322 1.95663C3.89285 1.9859 3.878 2.01803 3.8747 2.04867C3.86739 2.11652 3.85957 2.18431 3.85141 2.25206C3.8199 2.51371 3.7893 2.74899 3.75482 3.01224C3.69379 3.47831 3.6199 3.9447 3.59234 4.41441C3.57816 4.65595 3.55962 4.91408 3.59234 5.15526C3.61472 5.32027 3.65787 5.14766 3.66733 5.0939C3.71004 4.85129 3.72796 4.60271 3.74914 4.35759C3.75143 4.33117 3.79368 3.63882 3.78721 3.63946C3.74493 3.64369 3.69265 3.83772 3.69006 3.84627C3.60171 4.13721 3.56245 4.44283 3.54575 4.74563C3.53656 4.9123 3.52644 5.0938 3.54461 5.26094C3.55094 5.31918 3.56492 5.30262 3.58665 5.25866C3.61002 5.2114 3.66963 5.05059 3.68324 5.00755C3.75536 4.77938 3.77047 4.54071 3.81277 4.30646C3.87814 3.94446 3.99422 3.59391 4.09798 3.24176C4.14621 3.0781 4.19538 2.91503 4.2332 2.74862C4.24198 2.70999 4.23834 2.71954 4.23149 2.78555C4.21884 2.90758 4.20892 3.00652 4.19968 3.13325C4.17509 3.47059 4.14867 3.8189 4.17468 4.15704C4.17788 4.19859 4.20763 4.49903 4.2832 4.50872C4.29306 4.50998 4.29862 4.49514 4.30251 4.48599C4.31703 4.45182 4.32592 4.41552 4.33774 4.38032C4.39469 4.21073 4.4556 4.0323 4.51102 3.86388C4.65455 3.4277 4.80505 2.98799 4.91099 2.54068C4.91835 2.50962 4.93146 2.47803 4.92747 2.44637C4.92567 2.43214 4.90908 2.46891 4.9036 2.48216C4.85635 2.59649 4.82254 2.74246 4.79679 2.8577C4.70451 3.27084 4.64383 3.69053 4.55647 4.10477C4.5233 4.26206 4.48202 4.41865 4.45932 4.57803C4.45757 4.59029 4.44646 4.76894 4.45705 4.75529C4.50289 4.6962 4.53301 4.62634 4.56727 4.55985C4.64659 4.40592 4.7497 4.19268 4.81611 4.03943C5.08324 3.42306 5.30588 2.78179 5.45811 2.12707C5.491 1.98562 5.5171 1.84259 5.54049 1.69926C5.55613 1.60345 5.56929 1.50699 5.57515 1.41008C5.57709 1.37791 5.5906 1.33194 5.56378 1.31406C5.54336 1.30045 5.5302 1.35112 5.52061 1.37372C5.48766 1.45128 5.46271 1.53206 5.43709 1.61234C5.33123 1.94398 5.26836 2.18273 5.19052 2.535C5.08118 3.02979 5.0171 3.40135 4.94224 3.90422C4.89924 4.19309 4.84546 4.57841 4.83031 4.88369C4.8251 4.98877 4.80809 5.22928 4.94167 5.29162C4.97483 5.30709 5.04191 5.30717 5.07291 5.2848C5.11324 5.2557 5.13738 5.18264 5.15018 5.1439C5.18429 5.04068 5.23237 4.84119 5.25358 4.74393C5.30865 4.49144 5.35581 4.23355 5.37857 3.9758C5.37963 3.96382 5.38581 3.87385 5.38084 3.85081C5.37834 3.83922 5.35417 3.85604 5.34903 3.86672C5.25546 4.0609 5.24736 4.30661 5.23313 4.51667C5.22899 4.57767 5.22116 4.77404 5.22176 4.84847C5.22198 4.87566 5.22071 4.94724 5.23994 4.92801C5.29606 4.87189 5.31944 4.73996 5.33766 4.66553C5.34624 4.6305 5.35114 4.59556 5.35471 4.55985" stroke="#333333" stroke-linecap="round" stroke-linejoin="round"/>
</svg>
