<svg width="7" height="4" viewBox="0 0 7 4" fill="none" xmlns="http://www.w3.org/2000/svg">
<path d="M1.46268 1.05875C1.55607 1.10808 1.62677 1.17244 1.71152 1.23261C1.80722 1.30054 1.91922 1.35449 2.02514 1.40418C2.12866 1.45276 2.22353 1.4991 2.31375 1.57008C2.40416 1.64121 2.49342 1.70408 2.59441 1.75984C2.72026 1.82932 2.83521 1.89972 2.95234 1.98141C3.08845 2.07634 3.2354 2.13149 3.38697 2.1939C3.66031 2.30645 3.98361 2.41413 4.27895 2.42968C4.3733 2.43464 4.46752 2.45488 4.55507 2.4899C4.58971 2.50376 4.48045 2.49047 4.44314 2.49047C4.33825 2.49047 4.23379 2.49177 4.12953 2.47797C3.96675 2.45643 3.75703 2.41668 3.61479 2.32684C3.56743 2.29693 3.50948 2.27025 3.47276 2.22799C3.4308 2.17969 3.39017 2.13202 3.32959 2.10641C3.27199 2.08206 3.21027 2.0901 3.15233 2.07118C3.10687 2.05634 3.06636 2.02467 3.03359 1.98937C2.95912 1.90917 3.1913 1.94475 3.22732 1.96096C3.26717 1.9789 3.31921 2.01322 3.35231 2.04277C3.39101 2.07732 3.41478 2.12115 3.45174 2.15811C3.49922 2.20558 3.52363 2.22458 3.59093 2.22458C3.60118 2.22458 3.68314 2.19166 3.66479 2.17856C3.64635 2.16539 3.60707 2.17477 3.58525 2.17345C3.53026 2.17011 3.49169 2.05382 3.47276 2.00755C3.45119 1.95483 3.43901 1.91482 3.4364 1.8587C3.43626 1.85579 3.40189 1.73091 3.42163 1.73655C3.42446 1.73736 3.47321 1.82528 3.4773 1.83654C3.49324 1.88036 3.54548 1.93614 3.57446 1.97403C3.65426 2.07839 3.7775 2.12453 3.87955 2.20413C3.93628 2.24838 3.99952 2.30457 4.07044 2.32457C4.20975 2.36386 4.33142 2.43506 4.47496 2.46547C4.72136 2.51767 4.95062 2.54319 5.20048 2.55353C5.40032 2.5618 5.60058 2.59699 5.79873 2.62341" stroke="#333333" stroke-linecap="round" stroke-linejoin="round"/>
</svg>
