<svg width="6" height="6" viewBox="0 0 6 6" fill="none" xmlns="http://www.w3.org/2000/svg">
<path d="M2.77594 4.58691C3.0398 4.4113 3.30695 4.23985 3.56338 4.05342C3.8551 3.84135 4.1734 3.61042 4.38378 3.312C4.56301 3.05776 4.59822 2.76424 4.60479 2.46206C4.60823 2.30361 4.61111 2.14323 4.60649 1.98482C4.60175 1.82212 4.59218 1.65675 4.50195 1.51497C4.33057 1.24565 3.95488 1.19267 3.66451 1.16783C3.54429 1.15755 3.33262 1.1519 3.21227 1.17806C2.98106 1.22832 2.83658 1.36979 2.71856 1.56667C2.53306 1.87612 2.44642 2.23491 2.25552 2.5416C2.0343 2.89703 1.71222 3.13562 1.3999 3.4029C1.23883 3.54075 1.12253 3.70449 1.00334 3.87787C0.993502 3.89218 0.814951 4.10463 0.827218 4.12671C0.845379 4.1594 1.00366 4.12585 1.02323 4.12217C1.12937 4.10217 1.2309 4.06435 1.33514 4.03694C1.50394 3.99256 1.67503 3.9624 1.8476 3.93695C2.22159 3.88181 2.59756 3.8412 2.97138 3.78469C3.10631 3.76429 3.24297 3.7458 3.3759 3.71424C3.43562 3.70006 3.48081 3.67957 3.52589 3.63697C3.81204 3.36664 3.99572 2.97178 4.0588 2.58819C4.09985 2.33859 4.13536 2.08857 4.17925 1.83938C4.20389 1.6995 4.26959 1.49894 4.22641 1.35589C4.19839 1.2631 4.05136 1.3298 4.00313 1.35646C3.8108 1.46273 3.65519 1.63017 3.50771 1.78881C3.26874 2.04586 3.04164 2.31465 2.8123 2.58023C2.61378 2.81013 2.41211 3.0388 2.21973 3.27393C2.09057 3.43179 1.97985 3.60784 1.82374 3.74151C1.77121 3.78649 1.68378 3.84952 1.62716 3.88923C1.62133 3.89332 1.47229 3.97762 1.47035 3.99888C1.46979 4.00506 1.48286 3.99741 1.48853 3.9949C1.53937 3.97245 1.62392 3.92388 1.66579 3.89945C1.8394 3.79818 2.0075 3.68932 2.18678 3.59777C2.58291 3.39549 3.00068 3.24215 3.40771 3.06429C3.4563 3.04306 3.54699 3.01757 3.57759 2.96657C3.61106 2.91078 3.60505 2.83038 3.60429 2.76885C3.60394 2.74082 3.60463 2.71159 3.57702 2.69613C3.53653 2.67346 3.44523 2.75304 3.4293 2.76431C3.26053 2.88372 3.0991 3.01376 2.93445 3.13871C2.88132 3.17904 2.7965 3.24373 2.73617 3.28473C2.71952 3.29604 2.67548 3.32172 2.67822 3.30177C2.685 3.25241 2.72109 3.20651 2.74526 3.16542" stroke="#333333" stroke-linecap="round" stroke-linejoin="round"/>
</svg>
