<svg width="6" height="8" viewBox="0 0 6 8" fill="none" xmlns="http://www.w3.org/2000/svg">
<path d="M1.66488 0.569427C1.62067 0.679599 1.58103 0.790089 1.54444 0.902926C1.53243 0.939962 1.49602 0.892162 1.48478 0.878496C1.4512 0.837653 1.42587 0.78863 1.3899 0.750096C1.38094 0.740492 1.37854 0.721371 1.37854 0.741006C1.37854 0.808065 1.41497 0.838031 1.43876 0.891563C1.45465 0.927302 1.45892 0.968941 1.47626 1.00519C1.57917 1.22037 1.68846 1.43859 1.81942 1.63867C1.87019 1.71624 1.90828 1.7922 1.94327 1.87842C1.9734 1.95268 2.03182 2.02669 2.07394 2.09545C2.12726 2.18249 2.18743 2.27543 2.22677 2.36987C2.24949 2.42439 2.2768 2.46792 2.30802 2.51758C2.34038 2.56907 2.35188 2.63101 2.38074 2.68462C2.4426 2.79949 2.47188 2.92768 2.53016 3.04425C2.59937 3.18267 2.68388 3.32132 2.73299 3.46865C2.75909 3.54696 2.79732 3.61319 2.83809 3.68454C2.86057 3.72388 2.86871 3.76813 2.88923 3.8084C2.95559 3.93867 3.05481 4.04807 3.11762 4.17996C3.18609 4.32374 3.25349 4.46387 3.33067 4.60323C3.41077 4.74785 3.47084 4.90445 3.55566 5.04581C3.67406 5.24315 3.75214 5.46066 3.92949 5.61338C4.01462 5.68668 4.06267 5.766 4.1238 5.85768C4.19203 5.96003 4.27408 6.05336 4.34537 6.15425C4.37605 6.19766 4.39101 6.2515 4.41809 6.29742C4.46387 6.37504 4.51883 6.436 4.58683 6.494C4.63975 6.53914 4.68165 6.58222 4.7425 6.61899C4.85469 6.68677 4.97458 6.73949 5.11236 6.71444C5.17444 6.70315 5.22907 6.62883 5.25212 6.57581C5.28951 6.48983 5.29446 6.38688 5.29871 6.29515C5.30607 6.13642 5.30322 5.97552 5.28167 5.81791C5.22691 5.41747 5.01245 5.04338 4.85443 4.67709C4.71606 4.35635 4.5701 4.04514 4.39423 3.74306C4.24581 3.48812 4.0885 3.23703 3.92949 2.98857C3.79451 2.77766 3.63005 2.58952 3.48748 2.38407C3.26997 2.07063 3.04173 1.76718 2.78526 1.48413C2.70019 1.39025 2.60851 1.30432 2.53073 1.20461C2.4715 1.12867 2.58079 1.39135 2.61936 1.47959C2.66159 1.57619 2.71687 1.71407 2.81821 1.76366C2.84071 1.77467 2.84224 1.79873 2.84832 1.82104C2.8668 1.88879 2.88904 1.95468 2.91025 2.0216C2.96149 2.1833 2.97307 2.34275 2.97388 2.51133C2.9742 2.57745 2.9659 2.65008 2.98411 2.71473C3.01099 2.81018 3.06865 2.89741 3.09433 2.99312C3.09971 3.0132 3.09059 3.03771 3.09887 3.05675C3.10784 3.07737 3.17363 2.96018 3.17841 2.95221" stroke="#333333" stroke-linecap="round" stroke-linejoin="round"/>
</svg>
