<svg width="18" height="12" viewBox="0 0 18 12" fill="none" xmlns="http://www.w3.org/2000/svg">
<path d="M9.73233 3.13017C9.71086 5.66389 9.47241 8.16226 9.04499 10.66C8.97788 11.0522 9.00783 10.684 9.00783 10.5362C9.00783 9.74767 9.00783 8.95919 9.00783 8.1707C9.00783 7.03882 9.0361 3.64948 9.13168 4.77732C9.25178 6.19452 9.17503 7.64102 9.17503 9.06239C9.17503 10.6126 9.23076 5.96223 9.23076 4.41198C9.23076 4.32778 9.19559 4.5767 9.18122 4.65967C8.98617 5.78563 8.68922 6.88676 8.37622 7.98493C8.22428 8.51804 7.8302 10.0397 7.69507 9.50205C7.43131 8.45274 7.39636 7.2684 7.31734 6.19536C7.28312 5.7308 7.22244 4.3418 7.17491 4.80519C7.11977 5.34285 7.16872 5.90969 7.16872 6.44924C7.16872 6.90128 7.16872 7.35332 7.16872 7.80536C7.16872 7.8518 7.16872 7.99112 7.16872 7.94468C7.16872 7.81155 7.16872 7.67841 7.16872 7.54528C7.16872 6.32802 7.14646 5.08031 6.9458 3.87634C6.92074 3.72602 6.75137 4.12054 6.7074 4.26646C6.39281 5.31031 6.27627 6.41511 6.09126 7.48645C5.9864 8.09365 5.86448 8.6988 5.78474 9.31009C5.73241 9.71126 5.77545 8.50097 5.77545 8.09639C5.77545 6.46472 5.77545 1.56971 5.77545 3.20138C5.77545 4.73074 5.73902 6.20866 5.50918 7.72176C5.48438 7.88506 5.44583 8.15242 5.31413 7.81155C4.95125 6.87233 4.85459 5.78072 4.71038 4.78971C4.68461 4.61265 4.66255 4.09391 4.60511 4.26336C4.42102 4.80641 4.42797 5.47102 4.35122 6.03436C4.29019 6.48237 4.22104 6.92865 4.17165 7.37809C4.14324 7.63664 4.15926 6.85797 4.15926 6.59786C4.15926 5.95802 4.16282 5.31807 4.15926 4.67824C4.15757 4.37345 4.14423 4.26778 4.06638 4.66586C3.73052 6.3833 3.55482 8.14975 3.33569 9.88597C3.28167 10.314 3.3233 9.02319 3.3233 8.59178C3.3233 7.67532 3.3233 6.75886 3.3233 5.8424C3.3233 5.83059 3.34706 5.03459 3.29853 5.40894C3.19003 6.24595 3.06099 7.0722 2.88365 7.89824C2.77486 8.40498 2.65691 8.90972 2.54307 9.41535C2.51424 9.54343 2.44282 9.92388 2.43161 9.79308C2.37592 9.14334 2.43161 8.46352 2.43161 7.81155C2.43161 6.97972 2.43161 4.48422 2.43161 5.31605C2.43161 6.85931 2.14074 8.36604 2.04769 9.90145C1.99337 10.7977 2.0415 8.10568 2.0415 7.2078C2.0415 6.84142 2.0415 6.47504 2.0415 6.10867C2.0415 5.75613 1.96716 6.81015 1.91146 7.15826C1.76275 8.08769 1.59153 9.01881 1.39131 9.9386C1.19767 10.8281 1.26127 9.36986 1.26127 9.19862C1.26127 8.71334 1.30956 7.26689 1.21792 7.74343C1.1403 8.14705 1.04568 9.37426 1.03834 8.96332C1.02653 8.30167 1.21381 7.76349 1.33557 7.1242C1.37015 6.94268 1.36535 6.7484 1.42846 6.57309C1.43829 6.54578 1.58038 6.24738 1.58946 6.25418C1.66302 6.30936 1.59565 7.1098 1.59565 7.14897C1.59565 7.73979 1.58728 8.33196 1.65448 8.91997C1.67206 9.07383 1.67574 9.59998 1.84954 9.6971C2.21048 9.89881 3.28695 8.83913 3.42548 8.72801C5.22906 7.28118 7.00075 5.79483 8.80349 4.34696C10.1647 3.25372 11.5409 2.10237 13.0669 1.23842C13.6159 0.927563 13.5593 1.32442 13.5716 1.81121C13.5922 2.62997 13.5778 3.45062 13.5778 4.26955C13.5778 5.11987 13.6387 5.99764 13.5592 6.84555C13.4962 7.5171 13.1547 7.18663 12.8935 6.79601C12.2742 5.86995 11.8147 4.8276 11.3671 3.81132C11.2524 3.55082 11.1308 3.25197 11.0049 2.99084C10.9595 2.89673 10.9337 2.69463 10.8346 2.72767C10.711 2.76886 10.7672 4.51289 10.7664 4.52653C10.6941 5.86981 10.4615 7.17539 10.172 8.48651C10.0995 8.81487 10.0294 9.14381 9.95216 9.47108C9.90311 9.67882 9.92712 9.51715 9.94597 9.3751C10.0902 8.28805 10.2404 7.204 10.3701 6.11486C10.4403 5.52544 10.5026 4.93209 10.5807 4.34386C10.6318 3.9584 10.6572 5.11918 10.655 5.50801C10.6482 6.67644 10.5766 7.84172 10.4259 9.00047C10.3949 9.23862 10.2967 9.94743 10.3701 9.71878C10.6931 8.71307 10.6786 7.50551 10.7541 6.46782C10.8454 5.21223 10.8949 3.95546 10.9027 2.69671C10.9039 2.49443 10.9027 2.29214 10.9027 2.08986C10.9027 2.05271 10.9027 2.16417 10.9027 2.20132C10.9027 2.95678 10.9027 3.71225 10.9027 4.46771C10.9027 5.54306 10.8976 6.61855 10.9027 7.69389C10.9032 7.80893 10.8635 8.09943 10.9584 8.03447C11.1673 7.89155 11.1717 6.82365 11.1813 6.7217C11.1951 6.57666 11.4679 4.10648 11.4724 4.10855C11.5453 4.14245 11.5243 4.26146 11.5374 4.34076C11.5636 4.49954 11.5788 4.66013 11.59 4.82067C11.6191 5.23723 11.6244 5.80645 11.6272 6.22013C11.6315 6.87648 11.6228 7.53292 11.6272 8.18928C11.6272 8.19195 11.638 8.63372 11.6705 8.34409C11.776 7.40328 11.905 6.46504 12.0049 5.52349C12.0471 5.12533 12.0606 4.72346 12.1257 4.32838C12.1313 4.29415 12.149 4.20212 12.1659 4.2324C12.2124 4.31544 12.2111 4.41738 12.2278 4.51105C12.4078 5.51897 12.5084 6.54048 12.6706 7.55147C12.7069 7.77815 12.7309 8.00804 12.7913 8.22953C12.8373 8.39818 12.8591 8.11384 12.8594 8.11188C12.9824 7.37411 12.9985 6.6192 13.0173 5.87336C13.0363 5.12466 12.9706 4.30733 13.1319 3.56982C13.2263 3.13838 13.3177 4.43606 13.3517 4.8764C13.4469 6.10905 13.4484 7.33839 13.4725 8.5732C13.4782 8.86523 13.4813 9.13043 13.5251 9.41535C13.536 9.48639 13.5517 9.66743 13.6025 9.6166C13.707 9.51215 13.6516 9.32453 13.6583 9.17695C13.6765 8.77084 13.6856 8.03072 13.6954 7.66603C13.7231 6.63288 13.7929 5.61555 13.9307 4.59155C13.992 4.13658 14.0162 3.72087 14.1165 4.48938C14.2435 5.4631 14.3401 6.44064 14.4602 7.41524C14.466 7.46242 14.5456 8.10854 14.5716 8.26978C14.5941 8.4091 14.5987 8.38337 14.6088 8.24811C14.6674 7.46273 14.6366 6.66624 14.6366 5.87955C14.6366 5.77976 14.5228 4.7476 14.6459 4.60394C14.7059 4.53397 14.7074 4.77895 14.7202 4.87021C14.7952 5.40522 14.7995 5.94727 14.8038 6.4864C14.808 7.00197 14.7563 7.54525 14.8162 8.05924C14.8582 8.41978 15.0384 7.36512 15.0949 7.00655C15.2539 5.9957 15.3681 4.97855 15.5159 3.96613C15.5834 3.50419 15.6412 2.97904 15.7327 3.89801C15.8481 5.05797 15.8887 6.22317 15.9866 7.38428C15.9925 7.45529 16.0287 7.8656 16.0732 7.99113C16.0886 8.03431 16.1464 7.92491 16.1537 7.87966C16.3052 6.94266 16.2706 5.97442 16.3705 5.03121C16.3992 4.75979 16.4305 4.48806 16.4819 4.22001C16.5091 4.07828 16.489 3.88992 16.6058 3.80513C16.6788 3.7521 16.694 3.96673 16.708 4.05592C16.7834 4.53943 16.7936 5.5973 16.8008 6.01888C16.8122 6.67836 16.8101 7.3378 16.8101 7.99732C16.8101 8.19028 16.8325 7.98419 16.838 7.90134C16.926 6.56445 16.8469 5.22572 16.9742 3.88873C17.0598 2.98979 17.0331 4.28008 17.0331 4.28813C17.0331 5.06836 17.0331 5.84859 17.0331 6.62882C17.0331 6.66492 17.0871 7.20227 17.0207 7.26043C16.9632 7.31072 16.7382 7.06588 16.6987 7.03132" stroke="#333333" stroke-linecap="round" stroke-linejoin="round"/>
</svg>
