<svg width="2" height="3" viewBox="0 0 2 3" fill="none" xmlns="http://www.w3.org/2000/svg">
<path d="M0.722458 1.83339C0.882094 1.71567 1.04617 1.60132 1.19551 1.47032C1.19805 1.46809 1.25588 1.40246 1.22863 1.43839C1.20172 1.47385 1.16829 1.50821 1.14703 1.54719C1.09809 1.6369 0.987597 1.68824 0.940064 1.77899C0.917862 1.82137 0.828598 1.97405 0.883297 1.83339C0.925708 1.72433 1.02187 1.599 1.09617 1.51408C1.10719 1.50149 1.14927 1.43626 1.14466 1.48924C1.13132 1.64271 1.01889 1.80444 0.940064 1.93037C0.89856 1.99667 0.807608 2.09505 0.807608 2.1799C0.807608 2.2542 0.811116 2.02431 0.850183 1.96112C0.901826 1.87758 0.962467 1.80158 1.00984 1.71631C1.04004 1.66195 1.23079 1.39766 1.17778 1.56848C1.10299 1.80946 0.879994 2.00483 0.830078 2.25441C0.811469 2.34746 0.850773 2.05312 0.914046 1.9824C1.00155 1.8846 1.0848 1.75805 1.14821 1.6418C1.1675 1.60643 1.20024 1.5809 1.24046 1.57084C1.25467 1.56729 1.18907 1.73492 1.18132 1.75534C1.14995 1.83806 1.12051 1.92007 1.07252 1.99423C1.02015 2.07517 0.807619 2.46494 0.722458 2.323" stroke="#333333" stroke-linecap="round" stroke-linejoin="round"/>
</svg>
