<svg width="7" height="7" viewBox="0 0 7 7" fill="none" xmlns="http://www.w3.org/2000/svg">
<path d="M1.90012 0.695862C1.86434 1.03519 1.85936 1.20109 1.75347 1.55446C1.70029 1.73196 1.64867 1.91388 1.55479 2.07364C1.34678 2.42761 1.25201 2.29702 1.13495 1.97666C1.01862 1.65828 1.01386 1.34603 0.946912 1.02109C0.941717 0.995873 0.921769 0.926832 0.913799 0.951313C0.852652 1.13912 0.889751 1.34561 0.875954 1.54263C0.823298 2.29456 0.708241 3.03602 0.609859 3.78256C0.584656 3.97381 0.559006 4.16641 0.559006 4.35969C0.559006 4.4139 0.565721 4.25136 0.573197 4.19767C0.618632 3.87136 0.676058 3.54683 0.715115 3.21962C0.742818 2.98753 0.73038 2.72125 0.790804 2.49466C0.832145 2.33963 0.793169 2.81555 0.793169 2.976C0.793169 3.49872 0.793169 4.02145 0.793169 4.54418C0.793169 5.01933 0.740764 5.54095 0.831014 6.01302C0.862223 6.17627 0.929523 6.0207 0.958739 5.94325C1.26224 5.13862 1.25042 4.26202 1.40933 3.42777C1.41407 3.40287 1.40676 3.34311 1.42943 3.35444C1.43582 3.35764 1.43167 3.36859 1.4318 3.37573C1.43377 3.4853 1.4318 3.59491 1.4318 3.7045C1.4318 4.42825 1.4279 5.15211 1.43298 5.87584C1.43338 5.93325 1.41221 6.81146 1.51222 6.2732C1.72022 5.15372 1.8403 4.01817 1.95452 2.88612C1.99435 2.49135 2.06849 1.30725 2.08935 1.70347C2.12366 2.35546 2.08997 3.0163 2.09171 3.66903C2.09225 3.87355 2.09304 4.17862 2.10117 4.39044C2.10518 4.49496 2.085 4.78532 2.15794 4.88478C2.1969 4.93792 2.21575 4.76485 2.2289 4.70029C2.32367 4.23503 2.38849 3.762 2.4607 3.29294C2.51442 2.94395 2.55749 2.65548 2.60498 2.30899C2.62025 2.19752 2.63414 2.08586 2.64874 1.9743C2.65858 1.899 2.66632 1.8234 2.6783 1.74841C2.68171 1.72707 2.67887 1.6712 2.69486 1.68573C2.71628 1.70521 2.70315 1.74314 2.70432 1.77207C2.70749 1.85085 2.70718 1.92975 2.70787 2.0086C2.71117 2.38858 2.70905 2.76867 2.70905 3.14866C2.70905 4.04127 2.69117 4.93629 2.72206 5.82853C2.7249 5.91059 2.72832 5.99269 2.73507 6.07452C2.73894 6.1214 2.74229 6.25098 2.76818 6.21171C2.83298 6.1134 2.83585 5.75545 2.84624 5.67597C2.95654 4.83213 3.08541 3.99108 3.20576 3.14866C3.24495 2.87433 3.32406 2.05278 3.34531 2.32909C3.39423 2.96503 3.28903 3.61326 3.37961 4.24734C3.39534 4.35743 3.4171 4.38206 3.46121 4.25325C3.63769 3.73792 3.74064 3.19201 3.82665 2.6555C3.8542 2.48364 3.89886 1.96465 3.90115 2.13869C3.90912 2.74397 3.90115 3.3499 3.90115 3.95522C3.90115 4.45682 3.88495 4.96168 3.90352 5.46309C3.90644 5.54196 3.91726 5.74334 3.97448 5.68898C4.00559 5.65942 4.03666 5.55947 4.04307 5.5376C4.12075 5.2727 4.16297 4.99588 4.20628 4.72394C4.27464 4.29471 4.32241 3.86733 4.32691 3.4325C4.32924 3.20707 4.3692 2.92974 4.32217 2.70635C4.28662 2.53747 4.30482 2.77685 4.31626 2.83408C4.33778 2.94169 4.32334 3.05376 4.32809 3.16285C4.33264 3.26752 4.36688 3.34273 4.3884 3.43959C4.40568 3.51734 4.39168 3.60933 4.40141 3.68913C4.42159 3.85457 4.42908 4.03247 4.43334 4.19885C4.44011 4.46262 4.43334 4.72733 4.43334 4.99122C4.43334 5.01596 4.45815 5.27384 4.47119 5.17098C4.49951 4.94756 4.47592 4.71042 4.47592 4.48505C4.47592 3.97572 4.47592 3.4664 4.47592 2.95707C4.47592 2.81516 4.47592 2.67324 4.47592 2.53132C4.47592 2.5164 4.487 2.43133 4.45463 2.44144C4.41346 2.45431 4.4122 2.70084 4.40851 2.72528C4.37724 2.93241 4.33976 3.13577 4.31508 3.3438C4.24118 3.96669 4.04681 4.57791 3.84912 5.17098C3.79181 5.3429 3.7369 5.52004 3.69892 5.69726C3.68323 5.77048 3.66792 5.84445 3.6457 5.91605C3.6379 5.9412 3.62665 5.99593 3.61141 5.93142C3.57331 5.77026 3.56396 5.59539 3.55346 5.43116C3.53042 5.07085 3.53926 4.70868 3.53926 4.34786C3.53926 4.15788 3.54345 3.97107 3.50142 3.78492C3.47501 3.66798 3.54508 3.81808 3.55937 3.84524C3.59725 3.91721 3.61186 3.98855 3.63861 4.06403C3.70498 4.25129 3.87124 4.45144 4.00286 4.59622C4.0632 4.66259 4.10772 4.74054 4.17553 4.80081C4.29383 4.90597 4.46501 4.97813 4.55161 5.11421C4.64702 5.26415 4.8748 5.34628 5.01757 5.44772C5.10056 5.50669 5.19499 5.52707 5.28485 5.57071C5.36089 5.60765 5.32614 5.592 5.25883 5.592C4.99535 5.592 4.74819 5.48289 4.64622 5.21947C4.62502 5.1647 4.57569 5.11502 4.5658 5.05745C4.55255 4.98039 4.56203 4.90772 4.5386 4.83156C4.47311 4.61871 4.47592 4.39556 4.47592 4.1752C4.47592 4.11593 4.46409 3.93854 4.46409 3.9978C4.46409 4.06526 4.47672 4.14494 4.49011 4.21068C4.51941 4.35451 4.57962 4.48157 4.62493 4.6175C4.67263 4.7606 4.78696 4.86813 4.83781 5.00541C4.86751 5.08561 4.89677 5.16977 4.97026 5.22065C5.0291 5.26138 5.1147 5.29809 5.17841 5.33182C5.26799 5.37925 5.33028 5.4217 5.43386 5.4217C5.49956 5.4217 5.70401 5.42488 5.72952 5.49503C5.75553 5.56655 5.73409 5.69738 5.72952 5.76822C5.71545 5.98628 5.64673 6.20363 5.64673 6.42222" stroke="#333333" stroke-linecap="round" stroke-linejoin="round"/>
</svg>
