<svg width="4" height="5" viewBox="0 0 4 5" fill="none" xmlns="http://www.w3.org/2000/svg">
<path d="M1.41037 0.74173C1.44423 0.780292 1.4574 0.81805 1.4723 0.867857C1.5048 0.97649 1.52925 1.08643 1.574 1.19113C1.60612 1.2663 1.65247 1.33016 1.66717 1.411C1.69153 1.54499 1.74075 1.6922 1.79898 1.81552C1.85687 1.93811 1.93588 2.05992 1.9751 2.18935C1.98164 2.21094 2.00535 2.25977 2.0143 2.21946C2.01966 2.19539 2.01041 2.09557 2.03419 2.08368C2.08282 2.05937 2.14428 2.12733 2.17566 2.15242C2.21439 2.18341 2.25665 2.23366 2.26997 2.28026C2.27249 2.28908 2.29395 2.30497 2.30008 2.31434C2.31078 2.3307 2.30648 2.34271 2.31258 2.35979C2.32904 2.4059 2.34942 2.45519 2.36712 2.50069C2.36947 2.50674 2.41203 2.58819 2.40007 2.58819C2.38584 2.58819 2.39212 2.51292 2.39212 2.50069C2.39212 2.45626 2.40359 2.39511 2.39155 2.35298C2.38969 2.34646 2.36508 2.33908 2.37394 2.32912C2.39323 2.30741 2.39957 2.37236 2.40007 2.3757C2.41609 2.48247 2.432 2.58874 2.44268 2.69557C2.44529 2.72161 2.44266 2.74839 2.44325 2.77454C2.4441 2.81187 2.46453 2.84117 2.47166 2.8768C2.4829 2.93303 2.50154 2.99258 2.50518 3.04895C2.52804 3.40326 2.58557 3.78844 2.39894 4.11194C2.37074 4.16081 2.32337 4.07283 2.31031 4.05399C2.23978 3.95224 2.18158 3.9266 2.06373 3.88355C1.96488 3.84744 1.87768 3.79722 1.795 3.73242C1.73477 3.68522 1.70545 3.5953 1.67569 3.52789C1.62513 3.41337 1.55917 3.30691 1.50355 3.19496C1.46317 3.11369 1.43184 3.02923 1.38537 2.95066C1.28486 2.7807 1.1987 2.60269 1.1138 2.42456C1.0865 2.36728 1.08312 2.31215 1.08312 2.25014C1.08312 2.2229 1.06944 2.14962 1.08994 2.12913C1.11734 2.10172 1.18626 2.13262 1.20584 2.15413C1.26326 2.2172 1.27837 2.29921 1.30015 2.37798C1.34487 2.53964 1.41037 2.70058 1.41037 2.86999C1.41037 2.97432 1.43481 3.04035 1.50695 3.11826C1.58817 3.20597 1.45663 3.29652 1.37174 3.32109C1.16729 3.38027 0.935962 3.35972 0.725761 3.35972C0.677554 3.35972 0.652188 3.36654 0.671788 3.31427C0.693364 3.25674 0.723072 3.20584 0.763826 3.15974C0.857076 3.05426 0.954485 3.00265 1.09335 2.98361C1.23921 2.96362 1.38765 2.97068 1.53423 2.95521C1.61416 2.94677 1.69595 2.93095 1.77625 2.93021C1.78587 2.93012 1.89218 2.93306 1.83989 2.91998" stroke="#333333" stroke-linecap="round" stroke-linejoin="round"/>
</svg>
