<svg width="10" height="12" viewBox="0 0 10 12" fill="none" xmlns="http://www.w3.org/2000/svg">
<path d="M5.96914 1.84796C5.63538 2.2379 5.29078 2.59973 5.07742 3.07555C5.03183 3.17723 4.94043 3.38465 4.96507 3.51904C4.99793 3.69825 5.31975 3.7506 5.45114 3.76385C6.21628 3.84096 7.0259 3.42132 7.53968 2.87923C7.6435 2.76969 8.07306 2.22488 7.71235 2.11051C7.33435 1.99066 6.8094 2.08357 6.44219 2.1791C6.00822 2.29201 5.58116 2.46657 5.19569 2.69592C4.99385 2.81601 4.73105 2.97928 4.67296 3.23166C4.61741 3.47299 4.77453 3.64412 4.99464 3.68343C5.28893 3.73598 5.5818 3.6754 5.85797 3.56516C6.37589 3.35841 6.8658 3.04379 7.26295 2.65216C7.49361 2.42471 7.87724 1.94161 7.6887 1.57359C7.48363 1.17332 6.81575 1.43318 6.56519 1.6138C6.13657 1.92278 5.71587 2.34263 5.56585 2.86267C5.46098 3.22623 5.47086 3.64642 5.94193 3.61838C6.30134 3.59699 6.63605 3.41914 6.85139 3.12995C7.02297 2.89951 7.03482 2.71263 6.7142 2.67581C6.31917 2.63046 5.95585 2.76577 5.64982 3.01168C5.50496 3.12809 5.11968 3.53267 5.51618 3.61483C6.09377 3.73451 7.23738 3.33902 7.20145 2.60249C7.19083 2.38482 6.8405 2.47023 6.72484 2.5067C5.9377 2.7549 5.19677 3.34257 4.7451 4.02639C4.66048 4.15451 4.19839 4.78141 4.54996 4.90155C4.71853 4.95915 4.9409 4.91996 5.10344 4.87198C5.53789 4.74375 5.95435 4.50884 6.33812 4.27475C6.62639 4.0989 6.97988 3.85689 7.23929 3.63375C7.41629 3.48151 7.66087 3.26214 7.71117 3.01523C7.82029 2.47953 6.69814 2.96501 6.59712 3.01405C6.16239 3.22508 5.83153 3.44138 5.44049 3.73428C4.90441 4.13582 4.36293 4.59679 3.97757 5.15227C3.84877 5.33792 3.66565 5.65578 3.80726 5.88787C3.94665 6.11631 4.30127 6.02886 4.50266 5.98485C5.18345 5.83608 5.8519 5.57436 6.34403 5.0683C6.44113 4.96845 7.23936 4.06765 6.68463 4.10681C6.46301 4.12246 6.2508 4.18804 6.04246 4.26174C5.45558 4.46933 4.89459 4.76063 4.37493 5.1026C4.19887 5.21846 4.02793 5.34262 3.86403 5.47513C3.71357 5.59678 3.38008 5.8562 3.32948 6.09838C3.24907 6.4832 4.06738 6.44478 4.20936 6.44608C5.27592 6.45579 6.33909 6.20888 7.27241 5.69037C7.41185 5.6129 7.87919 5.39643 7.83061 5.13808C7.78989 4.92143 7.47649 4.84628 7.31143 4.82941C6.94227 4.79166 6.49349 4.82437 6.13825 4.86843C5.36188 4.96473 4.60075 5.14501 3.93736 5.58038C3.7182 5.72421 3.35019 6.05044 3.21831 6.30416C3.04469 6.63819 3.21124 6.92326 3.57074 6.97827C4.01174 7.04574 4.45983 6.93842 4.86573 6.77249C5.13054 6.66423 5.39339 6.53841 5.62144 6.36566C5.76091 6.26001 6.33028 5.75382 6.12051 5.41481C6.04054 5.28557 5.85378 5.2509 5.70304 5.2315C5.28825 5.17813 4.78891 5.34421 4.41869 5.49523C3.96455 5.68049 3.49355 5.9634 3.22304 6.38931C3.1347 6.5284 3.05113 6.78912 3.06693 6.96171C3.09874 7.30917 3.39565 7.45367 3.70437 7.501C4.42977 7.6122 5.21461 7.48713 5.92656 7.34962C6.23142 7.29073 6.66831 7.2138 6.92589 7.00074C7.18597 6.78561 6.54761 6.83409 6.51315 6.83399C5.99438 6.83235 5.46391 6.84418 4.95443 6.95225C4.60856 7.02561 4.15112 7.16173 3.92553 7.46788C3.48224 8.06949 5.1312 8.18633 5.31395 8.19402C5.88763 8.21818 6.48608 8.16836 7.03351 7.98351C7.17715 7.93501 7.35266 7.8627 7.37411 7.69495C7.42377 7.30676 6.85405 7.13177 6.57228 7.07524C6.14056 6.98863 5.68498 7.03309 5.26428 7.15093C4.95774 7.2368 4.56451 7.37893 4.50029 7.74699C4.38877 8.38618 5.06836 8.8645 5.61316 8.94737C5.91004 8.99252 6.23665 8.94893 6.51552 8.83738C6.65583 8.78125 6.72153 8.70634 6.73785 8.55946C6.76732 8.29426 6.62211 8.1751 6.36887 8.13016C5.38208 7.95504 4.30286 8.34701 3.47849 8.8634C3.35271 8.94219 2.99591 9.19108 2.94394 9.39322C2.84345 9.78399 3.54055 9.88212 3.72093 9.90058C4.49798 9.98008 5.31511 9.85836 6.07321 9.69361C6.42834 9.61644 6.87349 9.51704 7.13404 9.23357C7.59608 8.73087 6.26013 8.5175 6.02827 8.47313C5.28336 8.33056 4.51203 8.29929 3.75641 8.34895C3.52166 8.36438 3.28589 8.38252 3.0551 8.42819C2.86144 8.46651 2.46928 8.55504 2.54893 8.73567C2.62826 8.91556 3.29993 9.05888 3.33657 9.06681C4.09444 9.23097 4.90181 9.31316 5.67702 9.28206C6.4578 9.25073 7.25669 9.10951 8.01274 8.91544C8.16428 8.87654 8.31694 8.83521 8.4586 8.76879C8.66571 8.67168 8.58851 8.62002 8.44441 8.55118C8.24232 8.45464 8.03077 8.43472 7.80814 8.41991C6.88622 8.35858 5.92668 8.42448 5.01829 8.5843C4.69595 8.64101 4.37604 8.71651 4.0639 8.81491C3.79568 8.89946 3.19146 9.12288 3.38979 9.32227C3.5185 9.45165 3.71922 9.48746 3.89715 9.52804C4.48588 9.66232 5.72167 9.75911 6.28372 9.78586C6.80658 9.81075 7.68299 9.8186 8.24454 9.76221C9.07073 9.67924 8.12786 9.54673 8.01511 9.53632C6.98386 9.44116 5.94788 9.52248 4.92368 9.65577C4.4745 9.71423 4.02748 9.78889 3.58138 9.86746C3.57357 9.86884 2.20329 10.0923 1.9446 10.2625C1.74133 10.3962 2.40158 10.4474 2.64354 10.473C3.59896 10.5741 4.56233 10.6012 5.5221 10.6255C5.72705 10.6307 5.93207 10.6329 6.13707 10.6362C6.20898 10.6373 6.79086 10.6446 6.13234 10.6362C4.95309 10.6212 3.77325 10.6006 2.59387 10.609C2.32131 10.6109 1.5254 10.613 1.15341 10.6705C0.83376 10.7199 1.21308 10.7956 1.24566 10.7982C1.48228 10.8169 1.72275 10.7929 1.95761 10.7651C2.00112 10.7599 2.09753 10.7672 2.11017 10.7131C2.16452 10.4801 2.39806 10.428 2.52055 10.2566" stroke="#333333" stroke-linecap="round" stroke-linejoin="round"/>
</svg>
