<svg width="6" height="4" viewBox="0 0 6 4" fill="none" xmlns="http://www.w3.org/2000/svg">
<path d="M1.36494 1.46561C1.81488 1.43926 2.25402 1.33405 2.70575 1.32471C3.27275 1.31299 3.84078 1.32244 4.4079 1.32244C4.53763 1.32244 4.66902 1.31741 4.79878 1.32471C4.87332 1.32891 5.00046 1.3172 5.05956 1.37244C5.08162 1.39306 5.08261 1.41601 5.08626 1.44459C5.09741 1.53196 5.09997 1.62206 5.1033 1.70991C5.11234 1.94837 5.10906 2.18787 5.10217 2.42634C5.09929 2.52571 5.10189 2.63154 5.08512 2.73029C5.07921 2.76509 5.07646 2.78429 5.0391 2.7962C4.83101 2.86255 4.58611 2.84496 4.37154 2.84619C3.51094 2.85115 2.65178 2.87687 1.79104 2.87687C1.73143 2.87687 1.59417 2.90822 1.56038 2.85131C1.40481 2.5893 1.18184 2.37533 1.02803 2.11329C1.00315 2.0709 0.992426 2.04411 1.04678 2.05307C1.13502 2.06762 1.22088 2.06898 1.3104 2.06898C1.69181 2.06898 2.07322 2.06898 2.45463 2.06898C2.9866 2.06898 3.51857 2.06898 4.05054 2.06898C4.11566 2.06898 4.17971 2.06192 4.24427 2.05364C4.35955 2.03886 4.48052 2.04852 4.59652 2.04852" stroke="#333333" stroke-linecap="round" stroke-linejoin="round"/>
</svg>
