<svg width="6" height="5" viewBox="0 0 6 5" fill="none" xmlns="http://www.w3.org/2000/svg">
<path d="M0.910698 2.55985C1.02725 2.65091 1.17426 2.70491 1.30726 2.76665C1.48113 2.84737 1.65662 2.92547 1.82654 3.01436C2.05681 3.13483 2.26165 3.29369 2.4924 3.4132C2.9375 3.64373 3.4249 3.75527 3.89912 3.90975C3.99355 3.94051 4.09674 3.98134 4.19796 3.98134C4.25259 3.98134 4.26256 3.93374 4.27523 3.8893C4.35271 3.61743 4.4509 3.3658 4.56953 3.10868C4.65756 2.91787 4.75102 2.73092 4.84451 2.54281C4.91931 2.39228 5.08542 2.12501 4.95472 1.95762C4.87318 1.85319 4.68672 1.80733 4.57407 1.78036C4.38716 1.73562 4.19517 1.71521 4.00707 1.67582C3.63543 1.59801 3.2683 1.49037 2.91055 1.36335C2.78143 1.3175 2.66136 1.26911 2.53672 1.21336C2.47022 1.18361 2.40883 1.14215 2.34014 1.11791C2.29609 1.10236 2.2792 1.1128 2.24924 1.14859C2.16674 1.24712 2.10369 1.36993 2.03221 1.47641C1.8701 1.71787 1.66829 1.92294 1.49759 2.15704C1.46804 2.19756 1.4416 2.26324 1.40384 2.2968C1.37452 2.32287 1.40602 2.21762 1.41634 2.17977C1.49938 1.87531 1.62924 1.57379 1.66348 1.25824C1.66414 1.25219 1.68325 1.08561 1.66008 1.19972C1.57124 1.63705 1.45884 2.07137 1.35498 2.50531C1.32282 2.63969 1.29063 2.77134 1.25386 2.90414C1.24736 2.92759 1.24029 2.95087 1.23283 2.97403C1.22968 2.98384 1.23103 3.00804 1.22204 3.003C1.21125 2.99696 1.219 2.97843 1.21863 2.96607C1.21749 2.92802 1.21764 2.88994 1.21749 2.85188C1.21701 2.72196 1.21749 2.59205 1.21749 2.46213C1.21749 2.2656 1.21549 2.06892 1.21749 1.8724C1.21792 1.83073 1.21781 1.78901 1.22033 1.74741C1.22161 1.72642 1.21611 1.70163 1.22886 1.68491C1.25537 1.65015 1.25888 1.76728 1.26863 1.80991C1.36378 2.22622 1.48668 2.63329 1.61519 3.0405C1.67489 3.22965 1.72157 3.42387 1.79927 3.60637C1.83434 3.68874 1.86089 3.72978 1.92426 3.64046C1.96058 3.58926 2.077 3.32914 2.09811 3.28025C2.13688 3.19048 2.17212 3.10069 2.20151 3.00755C2.25349 2.84282 2.2971 2.67515 2.34753 2.50986C2.36606 2.4491 2.31794 2.63345 2.30037 2.6945C2.20909 3.01169 2.09427 3.31994 1.97937 3.62909C1.93249 3.75524 1.80299 4.13714 1.85665 4.01372C1.91883 3.87071 1.94346 3.68763 1.98505 3.53933C2.14169 2.98077 2.31 2.42488 2.44922 1.86161C2.52533 1.55368 2.57031 1.24677 2.62478 0.935537C2.66608 0.699558 2.58473 1.41313 2.5549 1.65083C2.48351 2.21954 2.38406 2.78615 2.33048 3.35695C2.32316 3.43497 2.31379 3.51328 2.31628 3.5916C2.31688 3.61049 2.3214 3.64849 2.33957 3.6433C2.3674 3.63535 2.3745 3.59681 2.38786 3.57114C2.41307 3.52272 2.43268 3.47158 2.4549 3.42172C2.57757 3.14645 2.69993 2.87035 2.80772 2.58883C2.89062 2.37231 2.94554 2.14686 3.02645 1.93035C3.04696 1.8755 3.04485 1.91789 3.04634 1.95535C3.0489 2.01989 3.04804 2.21231 3.04804 2.25817C3.04804 2.43524 3.04804 2.61231 3.04804 2.78938C3.04804 2.86714 3.05464 2.87286 3.10202 2.80017C3.21399 2.62838 3.29987 2.44097 3.37813 2.25192C3.43949 2.10371 3.43538 2.10641 3.48154 1.97921C3.48609 1.96665 3.48241 1.94076 3.49574 1.94171C3.5086 1.94263 3.49724 1.96746 3.49744 1.98035C3.498 2.01595 3.49794 2.05155 3.49801 2.08716C3.49803 2.09775 3.49799 2.4503 3.49801 2.45077C3.50076 2.50571 3.51381 2.6302 3.56164 2.60303C3.62148 2.56904 3.76416 2.33745 3.77981 2.31214C3.84706 2.20339 3.95485 2.00686 4.01843 1.89172C4.06154 1.81365 4.10559 1.73611 4.14796 1.65764C4.1729 1.61147 4.14998 1.64327 4.13092 1.67242C3.95814 1.93661 3.80782 2.21584 3.65482 2.49167C3.56944 2.64559 3.47584 2.79923 3.41279 2.96437C3.37024 3.07581 3.34898 3.19041 3.32302 3.30639C3.30514 3.38629 3.27463 3.4662 3.2628 3.54728C3.26275 3.54766 3.26271 3.54878 3.2628 3.54842C3.27795 3.48657 3.31444 3.432 3.34973 3.38025C3.55283 3.08237 3.78917 2.80864 3.99229 2.51042C4.06472 2.40409 4.23206 2.20199 4.2383 2.05534C4.24051 2.00338 4.15884 2.12543 4.13319 2.17067C4.04953 2.31827 3.98767 2.47852 3.93832 2.64053C3.91496 2.71723 3.89405 2.79661 3.88776 2.87687C3.88587 2.90095 3.8863 2.93913 3.91844 2.90358C3.99905 2.81439 4.04452 2.68901 4.10535 2.58655C4.16397 2.48783 4.22816 2.39327 4.28545 2.29396" stroke="#333333" stroke-linecap="round" stroke-linejoin="round"/>
</svg>
