<svg xmlns="http://www.w3.org/2000/svg" width="205.014" height="220.965" viewBox="0 0 205.014 220.965"><g transform="translate(-39.718 -22.714)"><rect width="21" height="186.956" rx="10.5" transform="matrix(0.94, 0.342, -0.342, 0.94, 104.302, 58.359)" fill="#333" stroke="#333" stroke-width="1"/><rect width="21" height="226.4" rx="10.5" transform="matrix(0.937, -0.349, 0.349, 0.937, 112.356, 30.69)" fill="#333" stroke="#333" stroke-width="1"/><rect width="21" height="226.4" rx="10.5" transform="matrix(0.937, -0.349, 0.349, 0.937, 145.356, 30.69)" fill="#333" stroke="#333" stroke-width="1"/><rect width="21" height="141" rx="10.5" transform="matrix(0.94, -0.342, 0.342, 0.94, 112.359, 110.542)" fill="#333" stroke="#333" stroke-width="1"/><rect width="21" height="51" rx="10.5" transform="translate(43.5 240.5) rotate(-90)" fill="#333" stroke="#333" stroke-width="1"/><rect width="21" height="141" rx="10.5" transform="matrix(0.94, 0.342, -0.342, 0.94, 119.584, 102.359)" fill="#333" stroke="#333" stroke-width="1"/><rect width="21" height="51" rx="10.5" transform="translate(157.5 240.5) rotate(-90)" fill="#333" stroke="#333" stroke-width="1"/><rect width="18" height="51" rx="9" transform="translate(115.5 43.5) rotate(-90)" fill="#333" stroke="#333" stroke-width="1"/><path d="M54.283,217.189c0,1.155-.056,2.3-.056,3.455" fill="none" stroke="#333" stroke-linecap="round" stroke-linejoin="round" stroke-width="1"/><path d="M55.732,216.13a46.845,46.845,0,0,1-.687,7.53c-.067.392-.037.024-.037-.124v-2.365c0-1.132.028-4.522.124-3.394.12,1.418.043,2.864.043,4.285,0,1.551.056-3.1.056-4.65,0-.084-.035.165-.05.248a32.217,32.217,0,0,1-.8,3.325c-.152.533-.546,2.055-.681,1.517a19.854,19.854,0,0,1-.378-3.307c-.034-.464-.095-1.853-.143-1.39a16.36,16.36,0,0,0-.006,1.644v1.1a22.431,22.431,0,0,0-.223-3.669c-.025-.15-.194.245-.238.39a27.09,27.09,0,0,0-.616,3.22c-.1.608-.227,1.213-.306,1.824-.052.4-.009-.809-.009-1.214V216.2a29.7,29.7,0,0,1-.266,4.521c-.025.163-.063.43-.195.09a14.146,14.146,0,0,1-.6-3.022c-.026-.177-.048-.7-.105-.527a9.8,9.8,0,0,0-.254,1.771c-.061.448-.13.9-.18,1.344-.028.259-.012-.52-.012-.78,0-.64,0-1.28,0-1.92,0-.3-.015-.41-.093-.012-.336,1.717-.511,3.484-.731,5.22-.054.428-.012-.863-.012-1.294v-2.75c0-.011.024-.807-.025-.433-.108.837-.238,1.663-.415,2.489-.109.507-.227,1.012-.341,1.517-.029.128-.1.509-.111.378-.056-.65,0-1.329,0-1.981v-2.5c0,1.543-.291,3.05-.384,4.585-.054.9-.006-1.795-.006-2.693v-1.1a9.058,9.058,0,0,0-.13,1.049c-.149.93-.32,1.861-.52,2.781-.194.889-.13-.569-.13-.74,0-.486.048-1.932-.043-1.456-.078.4-.172,1.631-.18,1.22a8.569,8.569,0,0,1,.3-1.839,3.581,3.581,0,0,1,.093-.551,2.887,2.887,0,0,1,.161-.319,3.647,3.647,0,0,1,.006.9,15.573,15.573,0,0,0,.059,1.771c.018.154.021.68.2.777.361.2,1.437-.858,1.576-.969,1.8-1.447,3.575-2.933,5.378-4.381a32.955,32.955,0,0,1,4.263-3.109c.549-.31.492.086.5.573.021.819.006,1.64.006,2.459,0,.85.061,1.728-.019,2.576-.063.671-.4.341-.666-.05a19.32,19.32,0,0,1-1.526-2.985c-.115-.26-.236-.559-.362-.82-.045-.094-.071-.3-.17-.263a8.892,8.892,0,0,0-.068,1.8,24.4,24.4,0,0,1-.594,3.96c-.073.328-.143.657-.22.984-.049.208-.025.046-.006-.1.144-1.087.295-2.171.424-3.26.07-.59.132-1.183.21-1.771.051-.386.077.775.074,1.164A28.327,28.327,0,0,1,56.426,222c-.031.239-.129.947-.056.719a14.367,14.367,0,0,0,.384-3.251q.137-1.884.149-3.771c0-.2,0-.4,0-.607v2.378c0,1.075-.005,2.151,0,3.226,0,.115-.039.4.056.34.209-.142.213-1.21.223-1.312.014-.145.287-2.616.291-2.613.073.033.052.152.065.232.026.159.042.319.053.48.029.416.034.985.037,1.4,0,.656,0,1.313,0,1.969,0,0,.011.445.043.155.105-.941.235-1.879.334-2.821.042-.4.056-.8.121-1.195.006-.034.023-.126.04-.1a.874.874,0,0,1,.062.279c.18,1.008.28,2.029.443,3.04a6.474,6.474,0,0,0,.121.679c.046.168.068-.116.068-.118a16.12,16.12,0,0,0,.158-2.239,12.44,12.44,0,0,1,.115-2.3c.094-.432.186.866.22,1.306.1,1.233.1,2.462.121,3.7a6.175,6.175,0,0,0,.053.842c.011.071.027.252.077.2.1-.105.049-.292.056-.44.018-.406.027-1.146.037-1.511a28.729,28.729,0,0,1,.235-3.074c.061-.455.086-.871.186-.1.127.974.224,1.952.344,2.926.006.047.085.694.111.855.022.139.027.113.037-.022.059-.785.028-1.582.028-2.368a4.437,4.437,0,0,1,.009-1.276c.06-.07.062.175.074.266a12.357,12.357,0,0,1,.084,1.616,14.815,14.815,0,0,0,.012,1.573c.042.361.222-.694.279-1.052.159-1.011.273-2.028.421-3.041.067-.462.125-.987.217-.068.116,1.16.156,2.325.254,3.486a4.083,4.083,0,0,0,.087.607c.015.043.073-.066.081-.111.152-.937.117-1.906.217-2.849.029-.271.06-.543.111-.811.027-.142.007-.33.124-.415.073-.053.088.162.1.251.076.483.086,1.541.093,1.963.011.659.009,1.319.009,1.978,0,.193.022-.013.028-.1.088-1.337.009-2.675.136-4.012.086-.9.059.391.059.4v2.341c0,.036.054.573-.012.631s-.282-.194-.322-.229" fill="none" stroke="#333" stroke-linecap="round" stroke-linejoin="round" stroke-width="1"/><path d="M49.1,223.407c.657.275,1.311.565,1.979.81.251.092.508.157.765.226.273.073.545.147.817.225" fill="none" stroke="#333" stroke-linecap="round" stroke-linejoin="round" stroke-width="1"/><path d="M47.769,221.293a5.123,5.123,0,0,0-.162-.637c0-.011-.083-.339-.134-.323-.022.007-.083.1-.084.1-.055.081-.142.228-.187.3-.1.174-.166.28-.275.452a2.154,2.154,0,0,1-.241.35c-.027.028-.024,0-.026-.024,0-.05,0-.122,0-.169a1.932,1.932,0,0,1,.035-.35,3.268,3.268,0,0,1,.1-.333.778.778,0,0,1,.023-.1c.006-.013.02-.049.019-.036a.378.378,0,0,1-.068.143c-.04.066-.073.134-.114.2-.02.03-.031.064-.052.093s-.063.08-.09.123a2.606,2.606,0,0,0-.318.819,1.546,1.546,0,0,0-.029.364c0,.284-.022.568-.015.852,0,.023,0,.073.02.067a.625.625,0,0,0,.115-.093,1.588,1.588,0,0,0,.272-.3c.081-.125.148-.263.217-.4a1.076,1.076,0,0,0,.058-.283,2.412,2.412,0,0,1-.109.474c-.167.484-.373.954-.578,1.423a3.05,3.05,0,0,0-.135.354,1.2,1.2,0,0,1-.083.22c-.01.019-.035.075-.037.053a1.8,1.8,0,0,1,0-.208,2.708,2.708,0,0,1,.016-.415c.017-.109.009-.221.025-.331s.041-.206.053-.31a6.375,6.375,0,0,0,.077-.732,5.031,5.031,0,0,1,.028-.916,1.754,1.754,0,0,1,.09-.3.345.345,0,0,0,.036-.113c0-.03-.022.054-.033.081a.332.332,0,0,1-.041.095,1.054,1.054,0,0,0-.072.086.69.69,0,0,0-.085.172.907.907,0,0,1-.043.091c-.014-.025,0-.075,0-.1,0-.005-.027.063-.034.071a.049.049,0,0,0-.016.036c-.006.033-.021.06-.03.091a3.18,3.18,0,0,0-.1.309.922.922,0,0,1-.033.1c-.016.053-.022.11-.038.165-.023.078-.03.155-.055.232-.08.245-.086.508-.156.755a1.733,1.733,0,0,0-.077.394c0,.068-.012.138-.017.206-.007.084-.006.168-.006.252a1.142,1.142,0,0,0,.037.2c.018.1.024.208.045.31,0,.024.044.21.088.2s.1-.085.137-.114c.153-.132.32-.248.465-.389a2.963,2.963,0,0,0,.634-.941" fill="none" stroke="#333" stroke-linecap="round" stroke-linejoin="round" stroke-width="1"/><path d="M46.313,224.025c-.156.575-.358,1.13-.567,1.687-.123.328-.2.514-.3.838-.031.091-.059.183-.087.275-.014.045-.024.09-.038.134,0,.011-.006.042-.013.033s0-.035,0-.052v-2.323c0-.1-.006.192-.025.286-.07.339-.206.662-.285,1a1.061,1.061,0,0,0-.031.239.043.043,0,0,0,0,.023c.013.019.014-.045.02-.067.129-.475.28-.944.412-1.418a2.326,2.326,0,0,0,.054-.633v-.157a.306.306,0,0,0,0-.107c-.007-.014-.058.1-.065.115a1.642,1.642,0,0,0-.051.169c-.011.037-.018.069-.032.105s-.009.083-.021.122c-.025.078-.014.166-.031.247-.043.2-.06.414-.092.621-.026.168-.05.337-.073.506a1.057,1.057,0,0,0-.016.152,2.4,2.4,0,0,1-.042.276c-.015.132-.021.265-.039.4-.038.271-.108.542-.121.816a5.525,5.525,0,0,1-.063.854,2.663,2.663,0,0,1-.147.624c-.009.019-.06.2-.113.131a.106.106,0,0,1-.012-.13c.019-.024.008-.078.008-.108v-.189a2.753,2.753,0,0,1,.028-.4,2.437,2.437,0,0,0,0-.346c0-.054.016-.1.016-.158s0-.1,0-.152.016-.131.016-.2a1.445,1.445,0,0,1,0-.193c.017-.124.035-.247.055-.37a5.016,5.016,0,0,1,.144-.776c.046-.139.079-.282.125-.422a3.473,3.473,0,0,0,.11-.4,1.97,1.97,0,0,0,.021-.206,1.549,1.549,0,0,1,.035-.175c.013-.065.017-.132.034-.2.028-.107.06-.214.093-.319.042-.137.085-.273.116-.414.016-.074.036-.147.058-.22a1.515,1.515,0,0,0,.048-.147.779.779,0,0,1,.135-.315" fill="none" stroke="#333" stroke-linecap="round" stroke-linejoin="round" stroke-width="1"/><path d="M45.134,225.57c.036-.138.057-.271.081-.411,0-.013.021-.131.009-.136s-.008.033-.013.05c-.024.09-.048.181-.071.272s-.048.189-.069.284c-.005.025-.013.061-.009.007.01-.119.038-.236.056-.354.01-.069.023-.138.032-.207a2.5,2.5,0,0,0,0-.306c0-.074,0-.038,0,.009a1.273,1.273,0,0,1-.04.188c-.051.2-.133.39-.174.594-.013.062-.015.038-.008-.006a.7.7,0,0,0,.012-.114c0-.074.033-.148.033-.223a.706.706,0,0,1,.018-.126.279.279,0,0,1,.018-.092c.006-.01.01-.023.017-.033s0,.053,0,.079a1.928,1.928,0,0,1-.075.3c-.01.052-.017.106-.031.158s-.036.138-.047.206c0,.017-.033.144-.034.078a.326.326,0,0,1,.013-.116.257.257,0,0,0,.02-.07c0-.032.022-.058.024-.087a.248.248,0,0,1,.023-.091.223.223,0,0,0,.018-.1c0-.035.015-.063.016-.1s.041-.1.041-.15" fill="none" stroke="#333" stroke-linecap="round" stroke-linejoin="round" stroke-width="1"/><path d="M64.9,215.7a3.789,3.789,0,0,1-.147.858,2.333,2.333,0,0,1-.2.52c-.208.354-.3.223-.42-.1a6.386,6.386,0,0,1-.188-.956c-.005-.025-.025-.094-.033-.07a2.464,2.464,0,0,0-.038.592c-.053.752-.168,1.493-.266,2.24a4.414,4.414,0,0,0-.051.577c0,.054.007-.109.014-.162.045-.327.1-.651.142-.978a5.351,5.351,0,0,1,.076-.725c.041-.155,0,.321,0,.481v1.568a7.992,7.992,0,0,0,.038,1.469c.031.163.1.008.128-.07a14.769,14.769,0,0,0,.451-2.515c0-.025,0-.085.02-.074.006,0,0,.015,0,.022,0,.109,0,.219,0,.329,0,.723,0,1.447,0,2.171,0,.057-.021.935.079.4.208-1.119.328-2.255.442-3.387.04-.4.114-1.579.135-1.183.034.652,0,1.313,0,1.966,0,.2,0,.51.009.721a1.21,1.21,0,0,0,.057.495c.039.053.058-.12.071-.185.095-.465.16-.938.232-1.407.054-.349.1-.638.144-.984.015-.111.029-.223.044-.335.01-.075.017-.151.029-.226,0-.021,0-.077.017-.062s.008.057.009.086c0,.079,0,.158,0,.237,0,.38,0,.76,0,1.14,0,.892-.018,1.787.013,2.68,0,.082.006.164.013.246,0,.046.007.176.033.137a1.926,1.926,0,0,0,.078-.536c.11-.844.239-1.685.36-2.527.039-.275.118-1.1.139-.82.049.636-.056,1.284.034,1.918.016.11.037.135.082.006a9.647,9.647,0,0,0,.366-1.6c.028-.172.072-.691.075-.517.008.6,0,1.211,0,1.816,0,.5-.016,1.007,0,1.508,0,.079.014.28.071.226a.489.489,0,0,0,.069-.151,6.551,6.551,0,0,0,.163-.814,8.757,8.757,0,0,0,.121-1.292,3.565,3.565,0,0,0,0-.726c-.036-.169-.017.071-.006.128a2.15,2.15,0,0,1,.012.329,1.474,1.474,0,0,0,.06.277c.017.077,0,.169.013.249.02.166.028.343.032.51.007.264,0,.528,0,.792,0,.025.025.283.038.18a5.547,5.547,0,0,0,0-.686v-1.954c0-.015.011-.1-.021-.09s-.042.26-.046.284c-.031.207-.069.411-.093.619a9.327,9.327,0,0,1-.466,1.827,5.009,5.009,0,0,0-.15.526c-.016.073-.031.147-.053.219-.008.025-.019.08-.034.015a3.048,3.048,0,0,1-.058-.5c-.023-.36-.014-.722-.014-1.083a2.519,2.519,0,0,0-.038-.563c-.026-.117.044.033.058.06a1.568,1.568,0,0,1,.079.219A1.8,1.8,0,0,0,67,219.6a2.338,2.338,0,0,0,.173.205c.118.105.289.177.376.313s.323.232.466.334a1.751,1.751,0,0,0,.267.123c.076.037.041.021-.026.021a.612.612,0,0,1-.613-.373.918.918,0,0,1-.08-.162,1.674,1.674,0,0,0-.027-.225,2.214,2.214,0,0,1-.063-.657,1.008,1.008,0,0,0-.012-.177,1.146,1.146,0,0,0,.026.213,3.465,3.465,0,0,0,.135.407c.048.143.162.25.213.387a.414.414,0,0,0,.132.216c.059.04.144.077.208.111a.509.509,0,0,0,.256.09c.066,0,.27,0,.3.073a.818.818,0,0,1,0,.273c-.014.218-.083.436-.083.654" fill="none" stroke="#333" stroke-linecap="round" stroke-linejoin="round" stroke-width="1"/><path d="M73.2,221.294a3.665,3.665,0,0,0,.937.043h2.836c.124,0,.248,0,.372,0l.124-.007c.035,0,.125,0,.1-.024s-.222-.01-.245-.01H74.917c-.132,0-.519.046-.4,0a2.047,2.047,0,0,1,.714-.091c.4-.012.8-.012,1.193-.012.639,0,1.282.022,1.921-.012.4-.021-.054-.032-.172-.027-.627.027-1.248.127-1.873.183a19.992,19.992,0,0,1-2.12.048,3.226,3.226,0,0,1-.51-.045c-.019,0-.251-.032-.268-.083a6.051,6.051,0,0,1,.982-.159c.568-.063,1.135-.153,1.7-.205.338-.032.68-.019,1.019-.019h.655c.518,0-1.036-.022-1.554-.022H74.282c-.027,0-.086.012-.11-.011a.059.059,0,0,1,.013-.084.857.857,0,0,1,.318-.068q.3-.042.6-.09a8.259,8.259,0,0,1,1.284-.108,3.63,3.63,0,0,0,.944-.032.418.418,0,0,1,.117-.011,1.177,1.177,0,0,1-.167.021c-.34.03-.671.128-1.01.166a11.187,11.187,0,0,1-1.229-.017c-.083,0-.158-.042-.234-.042-.028,0,.2-.033.251-.04a1.121,1.121,0,0,1,.174,0c.094,0,.115-.006.161.085" fill="none" stroke="#333" stroke-linecap="round" stroke-linejoin="round" stroke-width="1"/><path d="M74.969,221.848a5.219,5.219,0,0,0-.892,1.228.927.927,0,0,0-.112.443c.033.179.355.232.486.245a2.693,2.693,0,0,0,2.089-.885c.1-.109.533-.654.173-.768a2.546,2.546,0,0,0-1.27.068,4.852,4.852,0,0,0-1.246.517c-.2.12-.465.283-.523.536a.363.363,0,0,0,.322.451,1.575,1.575,0,0,0,.863-.118,4.277,4.277,0,0,0,1.4-.913c.231-.227.614-.71.426-1.078-.205-.4-.873-.141-1.123.04a2.507,2.507,0,0,0-1,1.249c-.1.363-.1.783.376.755a1.224,1.224,0,0,0,.91-.488c.172-.23.183-.417-.137-.454a1.418,1.418,0,0,0-1.064.336c-.145.116-.53.521-.134.6.578.12,1.721-.276,1.685-1.013-.011-.217-.361-.132-.477-.1a3.882,3.882,0,0,0-1.98,1.519c-.085.129-.547.755-.2.876a.993.993,0,0,0,.553-.03,5.357,5.357,0,0,0,1.235-.6,7.416,7.416,0,0,0,.9-.641,1.305,1.305,0,0,0,.472-.619c.109-.535-1.013-.05-1.114,0a6.691,6.691,0,0,0-1.157.72,6.482,6.482,0,0,0-1.463,1.418c-.129.186-.312.5-.17.736s.494.141.7.1a3.569,3.569,0,0,0,1.841-.917c.1-.1.9-1,.341-.961a2.417,2.417,0,0,0-.642.155,7.739,7.739,0,0,0-1.668.841c-.176.115-.347.24-.511.372s-.484.381-.535.623c-.08.385.738.347.88.348a6.184,6.184,0,0,0,3.063-.756c.14-.077.607-.294.558-.552-.041-.217-.354-.292-.519-.309a5.657,5.657,0,0,0-1.173.039,5.072,5.072,0,0,0-2.2.712,2.515,2.515,0,0,0-.719.724.433.433,0,0,0,.352.674,2.467,2.467,0,0,0,1.295-.206,3.338,3.338,0,0,0,.756-.406c.14-.106.709-.612.5-.951a.56.56,0,0,0-.417-.183,2.77,2.77,0,0,0-1.284.263,2.509,2.509,0,0,0-1.2.894,1.1,1.1,0,0,0-.156.573c.032.347.329.492.637.539a6.706,6.706,0,0,0,2.222-.151,2.351,2.351,0,0,0,1-.349c.26-.215-.378-.167-.413-.167a7.4,7.4,0,0,0-1.559.118,1.739,1.739,0,0,0-1.029.516c-.443.6,1.206.718,1.389.726a4.81,4.81,0,0,0,1.719-.21c.144-.049.319-.121.341-.289.05-.388-.52-.563-.8-.62a2.839,2.839,0,0,0-1.308.076c-.307.086-.7.228-.764.6-.111.639.568,1.118,1.113,1.2a1.762,1.762,0,0,0,.9-.11.3.3,0,0,0,.222-.278c.029-.265-.116-.384-.369-.429a4.309,4.309,0,0,0-2.89.733c-.126.079-.483.328-.535.53-.1.391.6.489.777.508a7.672,7.672,0,0,0,2.352-.207,2.017,2.017,0,0,0,1.061-.46c.462-.5-.874-.716-1.106-.761a9.009,9.009,0,0,0-2.272-.124,5.494,5.494,0,0,0-.7.079c-.194.039-.586.127-.506.308s.751.323.788.331a9.441,9.441,0,0,0,2.34.215,11.265,11.265,0,0,0,2.336-.367,2.476,2.476,0,0,0,.446-.146c.207-.1.13-.149-.014-.218a1.7,1.7,0,0,0-.636-.131,11.8,11.8,0,0,0-2.79.164,7.615,7.615,0,0,0-.954.231c-.268.084-.872.308-.674.507a1.008,1.008,0,0,0,.507.206,18.574,18.574,0,0,0,2.387.258,15.732,15.732,0,0,0,1.961-.024c.826-.083-.117-.215-.229-.226a13.969,13.969,0,0,0-3.091.12c-.449.058-.9.133-1.342.211a8.924,8.924,0,0,0-1.637.395c-.2.134.457.185.7.211.955.1,1.919.128,2.879.153.2,0,.41.007.615.01.072,0,.654.009,0,0-1.179-.015-2.359-.035-3.538-.027a13.628,13.628,0,0,0-1.441.061c-.32.05.06.126.092.128a3.609,3.609,0,0,0,.712-.033c.043-.005.14,0,.153-.052.054-.233.288-.285.41-.456" fill="none" stroke="#333" stroke-linecap="round" stroke-linejoin="round" stroke-width="1"/><path d="M74.607,231.513a10.621,10.621,0,0,0,.024,1.088,7.445,7.445,0,0,0,.206,1.062,9.459,9.459,0,0,0,.395,1.279,3.8,3.8,0,0,0,.525.892.7.7,0,0,1,.128.191" fill="none" stroke="#333" stroke-linecap="round" stroke-linejoin="round" stroke-width="1"/><path d="M74.565,236.856a5.505,5.505,0,0,0,.841-.5,10.775,10.775,0,0,1,1.366-.749,3.6,3.6,0,0,0,1.6-1.092,2.38,2.38,0,0,1,.215-.316c.106-.1-.179.234-.284.336a13.947,13.947,0,0,1-2.622,2c-.086.051-.171.1-.259.148a1.558,1.558,0,0,1-.17.083c-.021.008-.065.032-.066.009s.038-.064.06-.094c.125-.167.263-.324.393-.486.789-.987,1.636-1.929,2.411-2.925.062-.08.122-.161.18-.244s.114-.159-.007-.069c-.562.416-1.09.882-1.645,1.308a12.948,12.948,0,0,1-1.222.862c-.219.13-.456.232-.672.369a.925.925,0,0,0,.167-.1,4.524,4.524,0,0,0,.635-.695c.317-.389.634-.778.937-1.178.183-.242.294-.395.458-.637a2.011,2.011,0,0,0,.175-.291c.027-.087-.183.04-.254.1-.382.3-.7.659-1.086.956-.533.416-1.1.8-1.647,1.185-.293.206-.518.365-.8.565-.145.1-.135.11-.059.024.667-.758,1.259-1.6,1.871-2.4.217-.284.436-.567.652-.852.294-.389-.075.039-.132.11-.82,1.01-1.7,1.979-2.478,3.025-.057.077-.231.306-.161.24a4.524,4.524,0,0,0,.555-.752,17.069,17.069,0,0,0,1.51-2.878c.017-.04.246-.468.2-.57-.022-.053-.108.048-.149.088-.127.123-.374.409-.471.52-.519.594-2.092,2.362-1.579,1.763.114-.133.205-.3.306-.438.45-.632.954-1.221,1.455-1.812.378-.446.758-.89,1.128-1.342.337-.413.016-.041-.012-.009-.182.215-.353.442-.55.644-.17.174-.373.315-.558.472-.121.1-.066.061.015-.056.3-.435.594-.874.9-1.3a6.208,6.208,0,0,0,.448-.676c-.044-.019-.084.05-.119.082-.109.1-.211.2-.314.309-.334.338-.5.537-.857.867-.623.576-1.306,1.083-1.981,1.6l-.471.356c-.077.059-.152.12-.229.179-.014.01-.039.043-.044.027a2.266,2.266,0,0,1,.278-.418c.212-.319.408-.645.6-.979.114-.2.228-.408.349-.608.032-.053.141-.243.105-.035a16.772,16.772,0,0,1-.558,1.925c-.014.048-.081.182.025.146a9.047,9.047,0,0,0,1.192-.628,10.376,10.376,0,0,1,.987-.471c.161-.065.144-.092.021.005-.195.152-.368.331-.557.49-.258.217-.573.388-.815.623-.111.107.03.241.1.322" fill="none" stroke="#333" stroke-linecap="round" stroke-linejoin="round" stroke-width="1"/><path d="M80.291,237.984a1.283,1.283,0,0,1-.18.831.351.351,0,0,0-.054.221c0,.115.191.17.3.181a.73.73,0,0,1,.315.077c.039.025.122.01.166.01.069,0,.113.039.18.042s-.024.068-.043.075-.167.031-.075.052a2.073,2.073,0,0,0,.446.022c.2,0,.388-.052.587-.064.156-.008.313-.021.473-.021.21,0,.415-.01.625-.02s.4-.044.6-.065c.18-.019.351-.074.531-.086a1.744,1.744,0,0,0,.6-.2,2.754,2.754,0,0,0,.53-.307c.091-.076.2-.2.021-.2-.246.005-.484.078-.729.086-.2.006-.387.06-.584.074a3.113,3.113,0,0,0-.482.044,1.02,1.02,0,0,1-.25.052H79.528a9.648,9.648,0,0,1-1.018-.083,1.759,1.759,0,0,1-.42-.08,1.209,1.209,0,0,1-.48-.339c-.129-.138-.263-.254-.4-.38-.221-.2-.438-.413-.665-.607-.111-.1-.269-.1-.349-.224a.291.291,0,0,1-.024-.25c.032-.061.126-.1.181-.119a6.768,6.768,0,0,1,.682-.217,2.3,2.3,0,0,0,.7-.223c.116-.086.236-.177.359-.253.024-.014.188-.092.073-.1-.273-.017-.4.337-.442.554a3.4,3.4,0,0,0-.018.352,1.557,1.557,0,0,1-.2.653,1.417,1.417,0,0,1-.3.392.741.741,0,0,0-.229.268c-.081.181.158-.365.221-.553a4.291,4.291,0,0,0,.21-.8c0-.02.02-.117-.009-.133-.11-.061-.483.778-.477.935.012.291.4.413.608.516a7.743,7.743,0,0,1,1.107.549c.06.043.109.1.168.142s.125.052.182.089a1.426,1.426,0,0,1,.226.235,1.892,1.892,0,0,1,.147.179c.028.035.058.032.084.057s.051.031.105.031a3.515,3.515,0,0,0,.672-.046,10.934,10.934,0,0,0,1.457-.508,5.732,5.732,0,0,1,.559-.17,2.6,2.6,0,0,0,.317-.068c.062-.023.107-.053.019-.06a2.466,2.466,0,0,1-.464-.137,12.516,12.516,0,0,0-1.381-.3c-.366-.061-.733-.115-1.1-.183a1.3,1.3,0,0,1-.421-.112c-.033-.021-.045-.068-.073-.1a.644.644,0,0,0-.253-.08,5.389,5.389,0,0,0-.714-.113,3.061,3.061,0,0,1-.71-.093,1.01,1.01,0,0,0,.021.212.639.639,0,0,0,.168.285c.112.091.364.045.49.045h.947a1.21,1.21,0,0,1,.423.064c.058.017.21.14.278.08s-.2-.613-.234-.707a.743.743,0,0,0-.409-.433,1.815,1.815,0,0,0-.892-.345c-.2,0-.4-.059-.6-.043a1.764,1.764,0,0,0,.248.234,3.7,3.7,0,0,0,1.031.461,7.223,7.223,0,0,1,.854.284,1.882,1.882,0,0,0,.388.085,1.97,1.97,0,0,0,.433.043" fill="none" stroke="#333" stroke-linecap="round" stroke-linejoin="round" stroke-width="1"/><path d="M86.464,237.558a4.777,4.777,0,0,1-1.052.665,4.725,4.725,0,0,0-.492.272c.036.049.247.035.3.038.124.007.249,0,.374,0a3.766,3.766,0,0,0,1.277-.244,2.46,2.46,0,0,0,.35-.177c.064-.036-.236.048-.274.061-.292.1-.558.257-.847.362a6.561,6.561,0,0,0-.7.3,1.086,1.086,0,0,1-.224.125,3.632,3.632,0,0,0-.5.166c-.221.082-.442.092-.667.161a5.3,5.3,0,0,1-.646.163c-.1.017-.054,0,.017-.048a2.338,2.338,0,0,1,.393-.156,2.538,2.538,0,0,1,.506-.129c.559-.106,1.1-.289,1.639-.434a7.985,7.985,0,0,0,.785-.224c.262-.1.48-.288.736-.4a8.944,8.944,0,0,1,.809-.383,2.493,2.493,0,0,0,.654-.338c.124-.089.276-.123.4-.209.093-.065.182-.126.276-.193s.172-.164.27-.235a2.211,2.211,0,0,0,.4-.259c.071-.088.187-.129.246-.23.079-.135.194-.251.284-.38a2.715,2.715,0,0,0,.428-.748" fill="none" stroke="#333" stroke-linecap="round" stroke-linejoin="round" stroke-width="1"/><path d="M84.761,238.005v.457a1.327,1.327,0,0,1-.047.288.84.84,0,0,0-.017.171c0,.1-.079.221-.063.318.008.047.228.024.266.02.168-.021.317-.141.483-.163.2-.028.4-.054.6-.1.32-.073.6-.229.906-.32a5.507,5.507,0,0,0,.577-.266,6.644,6.644,0,0,0,.788-.426,11.811,11.811,0,0,0,1.041-.7c.27-.2.578-.341.84-.558a3.217,3.217,0,0,0,.64-.6c.1-.142.214-.272.308-.416s.187-.328.289-.486a1.679,1.679,0,0,0,.2-.4c.01-.034.036-.187.092-.1a1.229,1.229,0,0,1,.059.575c0,.044.016.126-.012.162-.092.118-.165.255-.248.384a2.1,2.1,0,0,1-.485.5c-.285.228-.652.35-.927.586a2.84,2.84,0,0,1-.388.272,3.573,3.573,0,0,1-.344.2c-.086.038-.166.11-.249.157-.148.083-.319.123-.468.2-.32.167-.646.282-.979.417a2.661,2.661,0,0,0-.449.2c-.246.155-.484.312-.739.454a7.3,7.3,0,0,1-2.227.738,4.081,4.081,0,0,1-.736.1H82.438c-1.167,0-2.328-.043-3.495-.043a5.385,5.385,0,0,1-.907-.033,4.451,4.451,0,0,1-.89-.291c-.044-.018-.23-.034-.2-.085a.416.416,0,0,1,.163-.118,4.99,4.99,0,0,1,1.063-.38c.491-.136.981-.29,1.482-.384.912-.172,1.837-.267,2.74-.482.714-.169,1.409-.409,2.111-.621.558-.168,1.124-.306,1.684-.468.832-.24,1.668-.452,2.513-.641a7.735,7.735,0,0,0,1.472-.447,8.517,8.517,0,0,1,1.186-.4,1.673,1.673,0,0,0,.656-.312c.036-.032.021.078.021.1a.371.371,0,0,1-.1.21,1.865,1.865,0,0,1-.966.726,11.223,11.223,0,0,0-1.4.457c-.535.233-1.11.351-1.653.566-.825.328-1.7.51-2.548.77" fill="none" stroke="#333" stroke-linecap="round" stroke-linejoin="round" stroke-width="1"/><path d="M91.723,234.833c.16-.117.324-.232.473-.363,0,0,.06-.068.033-.032a.983.983,0,0,0-.082.109c-.049.09-.159.141-.207.232-.022.042-.112.195-.057.054a1.237,1.237,0,0,1,.213-.319c.011-.013.053-.078.049-.025a1.121,1.121,0,0,1-.2.441c-.042.067-.132.165-.132.25a1.052,1.052,0,0,1,.043-.219c.052-.083.112-.159.16-.245.03-.054.221-.318.168-.148-.075.241-.3.437-.348.686a.708.708,0,0,1,.084-.272,1.86,1.86,0,0,0,.234-.34.142.142,0,0,1,.092-.071.907.907,0,0,1-.059.184,1.218,1.218,0,0,1-.109.239c-.052.081-.265.471-.35.329" fill="none" stroke="#333" stroke-linecap="round" stroke-linejoin="round" stroke-width="1"/><path d="M91.935,234.365a1.328,1.328,0,0,1-.123.485c-.043.1.053-.107.085-.144a2.1,2.1,0,0,1,.42-.417c.063-.043.115-.092.082.046a1.012,1.012,0,0,1-.227.368c-.055.068-.1.138-.16.2-.076.084-.043.131-.141.033" fill="none" stroke="#333" stroke-linecap="round" stroke-linejoin="round" stroke-width="1"/><path d="M128.553,148.632c-.233-.787-.474-1.575-.759-2.345a2.7,2.7,0,0,0-.125-.3c-.008-.015-.039-.04-.046-.024-.019.038,0,.085,0,.128,0,.086,0,.173,0,.259,0,.171.009.345,0,.515,0,.015-.008.052-.018.042-.048-.048-.056-.174-.071-.234a3.5,3.5,0,0,0-.4-1,1.24,1.24,0,0,0-.264-.338c-.03-.022-.033-.008-.038.025a1.9,1.9,0,0,0-.007.292c0,.156,0,.311.01.466.021.241.064.481.1.72.032.209.042.415.054.625a1.5,1.5,0,0,0,.049.238,4.192,4.192,0,0,1,.078.5c0,.033.031.057.032.088a.16.16,0,0,0,0,.022c0,.005.016.012.011.012-.04,0-.041-.054-.048-.081-.014-.05-.038-.1-.053-.146-.025-.086-.059-.168-.091-.252-.042-.112-.052-.228-.083-.343s-.062-.244-.1-.362c-.082-.243-.129-.5-.226-.739-.059-.142-.075-.3-.143-.438a.389.389,0,0,0-.15-.2.728.728,0,0,0-.329-.033,1.877,1.877,0,0,0-.455.035.5.5,0,0,0-.166.088c-.075.052-.158.089-.235.138a1.556,1.556,0,0,0-.2.17,2.741,2.741,0,0,1-.257.185,1.927,1.927,0,0,0-.49.52,1.691,1.691,0,0,0-.124.209c-.03.059-.02-.025-.017-.045a.807.807,0,0,1,.137-.323.59.59,0,0,1,.085-.088c.08-.076.165-.143.252-.211s.167-.15.251-.224a.59.59,0,0,1,.227-.132,2.956,2.956,0,0,1,.468-.122.981.981,0,0,1,.507-.011.6.6,0,0,1,.338.354.328.328,0,0,1,.017.059c0,.032,0-.028-.008-.037-.019-.035-.046-.12-.081-.14a.612.612,0,0,0-.275-.042,3,3,0,0,0-.455.016.834.834,0,0,0-.237.054,1.16,1.16,0,0,0-.2.129,1.776,1.776,0,0,0-.452.665.509.509,0,0,0-.032.069.635.635,0,0,1,.338-.139,2.494,2.494,0,0,1,.448-.03h.747c.253,0,.505-.008.758-.008.076,0-.151-.007-.227-.012-.4-.027-.8-.026-1.194-.069-.313-.035-.625-.059-.938-.084-.013,0-.152,0-.156-.032-.008-.075.121-.194.162-.234a1.517,1.517,0,0,1,.513-.321,8.51,8.51,0,0,1,1.695-.407c.514-.083,1.027-.164,1.54-.253,1.388-.243-.472.082.19-.033.008,0,.032,0,.024,0-.071,0-.141.015-.211.022-.731.073-1.464.091-2.2.093-.3,0-1.078,0-1.386-.007-.188,0-.375-.006-.563-.011a5.91,5.91,0,0,1-.605-.034c-.01,0-.018-.024-.009-.027a.7.7,0,0,1,.158-.033,9.566,9.566,0,0,1,1.083-.077c.669-.03,1-.045,1.694-.087.77-.047,1.545-.088,2.312-.178.147-.017.312-.036.08-.045s-.738,0-.905,0c-.526.007-.813.015-1.335.036-.165.006-.329.015-.494.022-.024,0-.348.021-.117,0,.68-.072,1.359-.148,2.039-.213.084-.009.092-.022.086.039" fill="none" stroke="#333" stroke-linecap="round" stroke-linejoin="round" stroke-width="1"/><path d="M126.333,144.567c-.083.009-.356.067.049-.01.866-.164,1.724-.372,2.582-.574.668-.157,1.343-.305,2.007-.482.081-.022.18-.038.064-.046s-.365-.009-.449-.009c-.731-.005-1.464-.014-2.193.052a11.673,11.673,0,0,0-2.3.431c-.037.011-.075.023-.112.037-.007,0-.027.013-.02.013a.49.49,0,0,0,.084-.02,7.221,7.221,0,0,0,.8-.311c.461-.2.92-.395,1.386-.581.42-.169.566-.222.971-.389.109-.045.219-.09.326-.139a.728.728,0,0,0,.147-.075c.1-.073-.25-.006-.371.019a15.139,15.139,0,0,0-1.559.461c-.4.129-.806.257-1.2.407-.141.053-.226.088-.355.146-.049.022-.1.051-.037.012.778-.485,1.537-1.005,2.268-1.558a3.892,3.892,0,0,0,.6-.514.275.275,0,0,0,.036-.053c0-.008.017-.021.009-.026s-.027,0-.041,0a1.112,1.112,0,0,0-.108.033,15.6,15.6,0,0,0-1.867.837c-.031.016-.062.032-.092.049-.09.05-.009.009-.007.007.327-.2.642-.408.973-.6.145-.083.292-.163.438-.244.039-.022.482-.257.572-.331.012-.01.022-.043.006-.047a1.249,1.249,0,0,0-.354.074,7.262,7.262,0,0,0-.9.373,13.315,13.315,0,0,0-1.711.926c-.309.207.039.071.149.029.824-.312,1.641-.641,2.471-.938.3-.108.624-.2.918-.339.024-.011.06-.023.036-.041" fill="none" stroke="#333" stroke-linecap="round" stroke-linejoin="round" stroke-width="1"/><path d="M128,140.721a2.629,2.629,0,0,0,.787-.309c.442-.223.877-.457,1.323-.672l.23-.107a1.185,1.185,0,0,0,.162-.074c.01-.006-.023-.008-.035-.009a1.187,1.187,0,0,0-.191.01,8.252,8.252,0,0,0-1.056.2,11.508,11.508,0,0,0-2.025.7c-.309.14-.611.3-.908.46-.028.016-.057.03-.084.048-.005,0-.014.01-.01.013.032.031.09,0,.133-.016a7.74,7.74,0,0,0,.954-.375c.578-.247,1.156-.494,1.737-.734.336-.139.675-.27,1.012-.408.187-.076-.382.137-.568.218a11.686,11.686,0,0,0-1.173.589c-.2.119-.372.225-.561.36a1.683,1.683,0,0,0-.158.12.14.14,0,0,0-.053.068c0,.014.015.031.03.034a2.864,2.864,0,0,0,.4-.008,11.516,11.516,0,0,0,1.282-.176c.009,0,.244-.046.025-.014-.385.058-.767.131-1.146.212-.172.037-.344.077-.514.118-.131.031-.262.063-.392.1a.738.738,0,0,0-.173.06c-.08.047.185.028.277.022.37-.021.675-.058,1.049-.108.592-.079,1.183-.173,1.769-.285.085-.016.169-.033.253-.053a.255.255,0,0,0,.1-.033c.011-.009-.021-.021-.034-.025a.775.775,0,0,0-.135-.03,7.814,7.814,0,0,0-1.506-.033,14.907,14.907,0,0,0-2.294.344c-.222.048-.239.051-.046-.065.434-.259.866-.518,1.293-.79a15.205,15.205,0,0,0,1.6-1.137,7.523,7.523,0,0,0,.637-.6,1.436,1.436,0,0,0,.119-.151c.014-.022.047-.052.031-.073s-.064-.013-.1-.012a4.5,4.5,0,0,0-.681.113,5.728,5.728,0,0,0-.924.279,1.3,1.3,0,0,0-.41.233c-.114.134.355.046.527.012a12.03,12.03,0,0,0,2.642-.862,2.927,2.927,0,0,0,.327-.174c.106-.068.2-.133.028-.178a1.188,1.188,0,0,0-.284-.035,5.594,5.594,0,0,0-1.185.147,5.236,5.236,0,0,0-1.887.848c-.089.066-.4.295-.431.478-.024.165.258.13.3.127a2.841,2.841,0,0,0,1.087-.329,3.137,3.137,0,0,0,.473-.3c.059-.051.078-.1-.028-.065a2.191,2.191,0,0,0-.268.116,12,12,0,0,0-1.06.6,3.838,3.838,0,0,0-.844.622c-.027.042-.02.13.027.146a.911.911,0,0,0,.406.007,5.432,5.432,0,0,0,.7-.129,15.228,15.228,0,0,0,1.617-.518,1.176,1.176,0,0,0,.364-.192.09.09,0,0,0-.022-.124.977.977,0,0,0-.335-.089,2.824,2.824,0,0,0-1.349.043.707.707,0,0,0-.23.118c-.032.026-.074.075-.055.112.052.1.461.144.479.146.14.016.281.021.421.027a2.371,2.371,0,0,0,.6-.024c.111-.036.094-.1.1-.2a1.4,1.4,0,0,0-.017-.31c-.023-.117-.073-.253-.207-.284a.3.3,0,0,0-.21.048.264.264,0,0,0-.066.059c-.012.014-.037.034-.026.049s.038,0,.054-.011a2.633,2.633,0,0,0,.416-.326c.235-.216.537-.491.522-.847A.992.992,0,0,0,130,136.6a.928.928,0,0,0-.663-.05c-.139.04-.269.115-.283.274-.021.238.285.413.47.466a1.463,1.463,0,0,0,.752-.013,2.624,2.624,0,0,0,.8-.386c.175-.136.4-.4.272-.642-.083-.161-.213-.158-.383-.127a3.015,3.015,0,0,0-.917.393,6.179,6.179,0,0,0-.548.355,3.708,3.708,0,0,0-.793.77.866.866,0,0,0-.135.306c-.045.213.042.283.254.274a1.509,1.509,0,0,0,.408-.087,5.068,5.068,0,0,0,1-.489c.025-.017.368-.246.315-.4-.037-.106-.335-.106-.375-.1a3.162,3.162,0,0,0-.918.213c-.1.035-.365.17-.269.14a2.217,2.217,0,0,0,.277-.125,1.083,1.083,0,0,0,.122-.063" fill="none" stroke="#333" stroke-linecap="round" stroke-linejoin="round" stroke-width="1"/><path d="M132.464,134.972c-.02-.379-.011-.765-.065-1.141a.9.9,0,0,0-.379-.647,1.933,1.933,0,0,0-1.206-.242,1.474,1.474,0,0,0-.684.224,4.318,4.318,0,0,0-.833.633,1.986,1.986,0,0,0-.614,1.222,3.785,3.785,0,0,0-.009.439,1.152,1.152,0,0,0,.055.421c.075.183.249.218.432.239a3.8,3.8,0,0,0,.929-.01,2.591,2.591,0,0,0,1.182-.493,1.492,1.492,0,0,0,.31-.289,1.731,1.731,0,0,0,.328-.773,4.977,4.977,0,0,0,.077-.976c0-.165,0-.332-.168-.423a1.164,1.164,0,0,0-.463-.1,2.113,2.113,0,0,0-1.137.468,3.751,3.751,0,0,0-1.187,1.355,1.265,1.265,0,0,0-.041,1.227,1.155,1.155,0,0,0,.7.49,2.982,2.982,0,0,0,1.593.039,1.294,1.294,0,0,0,.873-.565,1.089,1.089,0,0,0,.007-.874,1.579,1.579,0,0,0-.6-.818.8.8,0,0,0-.772,0,2.047,2.047,0,0,0-.782.909,3.52,3.52,0,0,0-.176.4,1.7,1.7,0,0,0-.114.578c.051.492.868.078,1.052-.034a1.773,1.773,0,0,0,.76-.86,1.935,1.935,0,0,0,.032-1.192,1.506,1.506,0,0,0-.361-.677.6.6,0,0,0-.677-.209.812.812,0,0,0-.215.168,3.471,3.471,0,0,0-.519.755c-.089.162-.174.327-.247.5a2.456,2.456,0,0,0-.207.771.5.5,0,0,0,.159.382.536.536,0,0,0,.215.075,1.94,1.94,0,0,0,.671-.03c.225-.041.559-.1.687-.329a.631.631,0,0,0,0-.466,1.909,1.909,0,0,0-.354-.611c-.086-.1-.226-.261-.376-.269-.123-.007-.176.146-.21.235a3.321,3.321,0,0,0-.182.715.805.805,0,0,0,0,.362c.059.152.248.086.351.033a1.635,1.635,0,0,0,.853-1.489,1.618,1.618,0,0,0-.1-.481c-.023-.059-.082-.186-.17-.149s-.093.185-.106.253c-.037.21-.069.423-.091.635a1.967,1.967,0,0,0-.015.264c0,.074.015.127.02,0a2.945,2.945,0,0,0-.082-.931c-.037-.121-.02.053-.02.053a1.918,1.918,0,0,1-.011.448c-.049.28-.14.555-.207.832" fill="none" stroke="#333" stroke-linecap="round" stroke-linejoin="round" stroke-width="1"/><path d="M134.562,130.118a1.191,1.191,0,0,0-.318-.274,4.057,4.057,0,0,0-1-.381c-.5-.139-1.019-.224-1.516-.38-.1-.033-.12-.042-.211-.075a.162.162,0,0,0-.132-.014.7.7,0,0,0-.24.278,3.885,3.885,0,0,0-.316.756,12.311,12.311,0,0,0-.3,1.361,3.717,3.717,0,0,1-.244.875c-.01.02-.187.316-.162.332a.675.675,0,0,0,.213.009c.174,0,.35,0,.524.006.2.011.334.03.545.055.51.06,1.018.12,1.531.134a4.68,4.68,0,0,0,.642-.02c.031,0,.205-.011.245-.056.014-.015,0-.057-.007-.066a1.539,1.539,0,0,1-.089-.274,3.969,3.969,0,0,1-.029-.636c0-.31,0-.621,0-.932,0-.168,0-.395,0-.565a1,1,0,0,0-.1-.542.531.531,0,0,0-.274-.176,3.726,3.726,0,0,0-.989-.054c-.308,0-.6,0-.9.035a2.235,2.235,0,0,0-.97.267.442.442,0,0,0-.228.356.555.555,0,0,0,.081.256,1.631,1.631,0,0,1,.117.39,6.25,6.25,0,0,1,.085,1.058c0,.212,0,.367-.013.575-.009.16-.035.316-.051.474,0,.049.006.038.029,0a5.743,5.743,0,0,0,.284-.624,10.446,10.446,0,0,0,.66-2.57c0-.021.06-.495.078-.593.006-.026,0-.092.026-.077s.01.069.01.1c0,.095-.005.19-.013.284-.06.755-.2,1.495-.327,2.241-.032.195-.048.314-.074.5-.007.053-.016.1-.021.158s-.008.09.033.032a5.693,5.693,0,0,0,.359-.624c.232-.439.441-.89.649-1.341.1-.213.19-.428.29-.639s.059-.006.037.108c-.151.781-.391,1.541-.559,2.318a2.423,2.423,0,0,0-.049.3c-.005.062,0,.058.035,0,.2-.343.382-.7.558-1.06q.166-.341.329-.684c.147-.311.276-.631.434-.937.089-.173.047.013.037.087a9.411,9.411,0,0,1-.219,1.05c-.052.205-.137.5-.2.711a5.941,5.941,0,0,1-.179.568c-.022.054-.022.035-.021-.014a5.3,5.3,0,0,1,.063-.6c.065-.437.161-.87.241-1.3" fill="none" stroke="#333" stroke-linecap="round" stroke-linejoin="round" stroke-width="1"/><path d="M138.131,125a3.506,3.506,0,0,0-.847-.509,10.682,10.682,0,0,0-2.159-.51c-.25-.047-.481-.092-.726-.149,0,0-.239-.084-.28-.057s-.078.166-.08.171c-.116.316-.235.628-.381.933a15.066,15.066,0,0,1-.833,1.461c-.275.442-.565.873-.882,1.286-.1.132-.119.148-.218.269a.824.824,0,0,0-.133.187c-.021.05.018.052.06.064a2.665,2.665,0,0,1,.456.163c.1.049.208.1.313.153a2.374,2.374,0,0,0,.465.2c.07.015.085.006.132-.048a3.025,3.025,0,0,0,.326-.525c.418-.747.784-1.523,1.173-2.286.327-.64.345-.668.662-1.252a2.381,2.381,0,0,0,.334-.756,2.312,2.312,0,0,0,0-.251c0-.061.022-.157-.054-.067-.112.135-.357.48-.417.563-.473.659-.936,1.325-1.4,1.987a18.124,18.124,0,0,1-1.426,1.861,6,6,0,0,1-.539.519c-.011.01-.3.256-.357.31s-.036.061.047.055c.3-.023.6-.082.894-.109a3.223,3.223,0,0,1,.546-.014c.151.01.3.05.447.065a.257.257,0,0,0,.14-.008c.063-.034.126-.155.162-.207a3.969,3.969,0,0,0,.435-.875,10.01,10.01,0,0,1,.414-1.077c.021-.043.122-.239.074-.041a10.455,10.455,0,0,1-.69,1.785c-.09.2-.072.156-.146.325a1.27,1.27,0,0,1-.075.16c-.024.038-.036.043-.083.049a1.22,1.22,0,0,1-.408-.032,1.176,1.176,0,0,1-.65-.473.414.414,0,0,1,.013-.4c.007-.015.029-.08.066-.052a.391.391,0,0,1,.064.071c.15.182.094.132.279.341a5.1,5.1,0,0,0,.407.411,1.877,1.877,0,0,1,.332.352c.03.048.044.162.091.069a1.431,1.431,0,0,0,.1-.271" fill="none" stroke="#333" stroke-linecap="round" stroke-linejoin="round" stroke-width="1"/><path d="M134.765,118.067c.209.482.382.981.609,1.455.121.253.225.515.33.775a3.484,3.484,0,0,1,.147.579,2.418,2.418,0,0,1,.051.472,3.713,3.713,0,0,1-.095.779.83.83,0,0,1-.209.518,3.96,3.96,0,0,1-.407.267,2.564,2.564,0,0,1-.547.279.467.467,0,0,1-.291.014c-.037-.011-.072-.056-.11-.056a.7.7,0,0,1-.194,0c-.03-.009-.007-.063,0-.079.116-.4.336-.777.468-1.178.07-.216.116-.443.176-.663a4.462,4.462,0,0,0,.133-.548c.014-.1.016-.2.031-.294a1.937,1.937,0,0,0,.04-.3.235.235,0,0,1,0-.046c.008-.038.013.076.014.115,0,.213.006.425.029.637.016.146.01.294.03.439a2.676,2.676,0,0,1,.032.309c0,.131-.006.263,0,.393a.71.71,0,0,1-.021.22c-.032.143-.085.28-.116.423a1.3,1.3,0,0,1-.038.161c-.009.025-.034.058.01.056a1.293,1.293,0,0,1,.483.041c.088.028.263.068.316.158.007.011,0,.024.011.035a.156.156,0,0,0,.076.04,2.325,2.325,0,0,0,.373.051.378.378,0,0,0,.214-.058.828.828,0,0,0,.322-.329,1.806,1.806,0,0,0,.1-.4c.026-.109.04-.219.056-.33s.045-.249.054-.376c.017-.262.024-.52.024-.784a.706.706,0,0,1,.008-.138.758.758,0,0,0,.024-.133,1.058,1.058,0,0,0-.02-.323.872.872,0,0,0-.075-.191c-.053-.089-.11-.176-.156-.269a1.686,1.686,0,0,0-.208-.338c-.027-.033-.064-.059-.089-.092s-.026-.048-.042-.071-.058-.062-.083-.1c-.035-.051-.074-.1-.113-.145a2.141,2.141,0,0,1-.142-.214c-.037-.058-.083-.112-.119-.17-.005-.008-.038-.03-.045-.018a.245.245,0,0,0-.015.089.972.972,0,0,0-.015.121c-.005.308,0,.616,0,.925a.9.9,0,0,0,.025.264,1.625,1.625,0,0,0,.183.408c.081.131.154.266.234.4.048.081.062.167.1.251a.958.958,0,0,1,.045.123c.005.012.02.049.013.037a.335.335,0,0,1-.031-.094c-.059-.21-.027-.112-.092-.354" fill="none" stroke="#333" stroke-linecap="round" stroke-linejoin="round" stroke-width="1"/><path d="M134.936,115.091a3.072,3.072,0,0,0-.074.661.994.994,0,0,0,.015.256c.009.036.013.076.025.111a1.25,1.25,0,0,1,.059.169c.012.055.03.109.043.165s.044.109.052.166a3.225,3.225,0,0,0,.131.468c.024.087.057.171.085.257.039.121.065.241.114.359a1.74,1.74,0,0,1,.07.247c.023.088.055.173.085.258a3.839,3.839,0,0,0,.161.418c.039.082.085.159.132.237.067.113.1.241.166.357a1.935,1.935,0,0,0,.217.413c.033.035.066.069.1.1a1.121,1.121,0,0,1,.145.119c.056.07.078.134.17.168.022.009.071.056.1.044s.034-.034.046-.061a.773.773,0,0,1,.088-.112.37.37,0,0,0,.036-.208.194.194,0,0,0-.011-.083c-.014-.033-.013-.07-.029-.1a.591.591,0,0,1-.029-.167c-.008-.044.007,0,.014.019a.282.282,0,0,1,.023.04c-.008,0-.037-.027-.044-.036s-.017-.043-.031-.059c-.035-.039-.033-.1-.067-.139a.283.283,0,0,1-.035-.111c-.009-.031-.02-.063-.031-.094a.676.676,0,0,0-.1-.17c-.018-.021-.014-.056-.017-.081a.409.409,0,0,0-.032-.1.664.664,0,0,1-.057-.2.305.305,0,0,0-.02-.079c-.014-.041-.021-.081-.037-.121s-.028-.059-.044-.09-.03-.094-.057-.106-.036-.075-.037-.1-.027-.048-.033-.075a.473.473,0,0,0-.032-.089c-.016-.035-.012-.078-.028-.114a3.45,3.45,0,0,0-.156-.423c-.049-.081-.057-.183-.1-.264a1.284,1.284,0,0,1-.058-.161c-.019-.045-.027-.093-.044-.138s-.029-.127-.045-.188-.046-.126-.067-.188c-.033-.1-.07-.208-.093-.313a1.3,1.3,0,0,0-.113-.26,1.413,1.413,0,0,1-.081-.264.884.884,0,0,0-.04-.147.391.391,0,0,1-.057-.125c-.007-.093-.065-.183-.065-.277" fill="none" stroke="#333" stroke-linecap="round" stroke-linejoin="round" stroke-width="1"/><path d="M159.555,227.078c-.666-.322-1.325-.659-1.985-.992" fill="none" stroke="#333" stroke-linecap="round" stroke-linejoin="round" stroke-width="1"/><path d="M156.9,225.328c.071.226.248.783.318,1.038a1.713,1.713,0,0,1,.055.233c0,.013-.009.044-.018.035a.467.467,0,0,1-.077-.125c-.129-.23-.241-.472-.351-.713a.681.681,0,0,0-.054-.116c-.024-.034.011.083.021.123a.619.619,0,0,0,.065.179" fill="none" stroke="#333" stroke-linecap="round" stroke-linejoin="round" stroke-width="1"/><path d="M156.051,226.923c.159.077.174.3.207.453a.812.812,0,0,1,.028.128c.005.122,0,.245,0,.368a.82.82,0,0,0,.029.37.193.193,0,0,1,.012.041c0,.024.036.036.042.066a1.433,1.433,0,0,0,.032.161,1.926,1.926,0,0,0,.09.254c.021.044.062.075.081.117.007.017.027.021.032.037s.01.065.03.079-.023.024-.028.02a.113.113,0,0,1-.033-.058c-.007-.022-.021-.028-.021-.057a.188.188,0,0,0-.022-.072c-.017-.033-.061-.036-.075-.061s.077-.01.089,0c.1.061.187.143.286.206.039.025.086.028.129.054a1.311,1.311,0,0,0,.3.163c.056.014.116.024.173.033a.669.669,0,0,0,.281.016c.072-.027-.066-.26-.082-.287-.058-.093-.133-.175-.2-.263a.9.9,0,0,0-.221-.246,1.455,1.455,0,0,1-.2-.178.815.815,0,0,1-.156-.247c-.06-.121-.128-.238-.186-.36a1.146,1.146,0,0,1-.12-.32,1.732,1.732,0,0,1-.021-.249c0-.132-.036-.257-.041-.388,0-.048-.029-.088-.031-.138a1.05,1.05,0,0,1-.005-.137c0-.027.087.069.091.075.081.1.154.216.234.323.144.194.273.4.434.584.125.141.209.309.337.447.08.085.179.157.265.236s.2.223.32.244a1.874,1.874,0,0,0,.359.008c.065,0,.134.008.141-.069a2.543,2.543,0,0,0,0-.445,1.006,1.006,0,0,0-.081-.245.778.778,0,0,0-.058-.095c-.059-.1-.11-.209-.168-.312a1.079,1.079,0,0,0-.423-.452.226.226,0,0,0-.272.041c-.062.066-.089.275-.012.342a.517.517,0,0,1,.116.2c.057.119.1.247.153.365.071.146.177.274.256.418" fill="none" stroke="#333" stroke-linecap="round" stroke-linejoin="round" stroke-width="1"/><path d="M156.665,228.569c-.044.111-.084.221-.121.334-.012.037-.048-.011-.059-.025-.034-.04-.059-.089-.1-.128-.009-.01-.011-.029-.011-.009,0,.067.036.1.06.151.016.035.02.077.037.113a5.46,5.46,0,0,0,.343.634,1.32,1.32,0,0,1,.124.239,1.546,1.546,0,0,0,.131.217,2.17,2.17,0,0,1,.153.275.967.967,0,0,0,.081.148c.032.051.044.113.073.167.062.114.091.243.149.359a3.376,3.376,0,0,1,.2.425,1.2,1.2,0,0,0,.1.216c.023.039.031.083.051.123.067.131.166.24.229.372s.135.284.213.423.14.3.225.443a2.088,2.088,0,0,0,.373.567,1.068,1.068,0,0,1,.195.245c.068.1.15.195.221.3.031.044.046.1.073.143a.761.761,0,0,0,.169.2,1.187,1.187,0,0,0,.156.125.521.521,0,0,0,.369.1.236.236,0,0,0,.14-.138.813.813,0,0,0,.047-.281,2.716,2.716,0,0,0-.017-.477,4.573,4.573,0,0,0-.428-1.141,8.511,8.511,0,0,0-.46-.934c-.148-.255-.3-.506-.465-.754-.134-.211-.3-.4-.442-.6a8.7,8.7,0,0,0-.7-.9c-.085-.094-.176-.18-.254-.279-.06-.076.05.186.088.275a.556.556,0,0,0,.2.284c.023.011.024.035.03.057.019.068.041.134.062.2a1.615,1.615,0,0,1,.064.489.775.775,0,0,0,.01.2c.027.1.085.182.11.278.006.02,0,.045.005.064s.075-.1.079-.105" fill="none" stroke="#333" stroke-linecap="round" stroke-linejoin="round" stroke-width="1"/><path d="M159.048,227.751a15.426,15.426,0,0,0-.264-2.771c-.049-.234-.164-.686-.249-.933-.046-.133-.1-.3-.248-.337a.221.221,0,0,0-.2.026,2.111,2.111,0,0,0-.57.613,2.4,2.4,0,0,0-.293.542.715.715,0,0,0-.015.53.444.444,0,0,0,.407.188.5.5,0,0,0,.225-.046c.171-.075.184-.229.19-.4a2.791,2.791,0,0,0-.214-1.288c-.025-.053-.175-.4-.273-.21a1.679,1.679,0,0,0-.1.387c-.029.191-.063.53-.071.717-.01.267-.075.946.326,1a.6.6,0,0,0,.615-.36c.03-.083.05-.317-.05-.374-.074-.043,0,.176.037.253a.556.556,0,0,0,.745.213.617.617,0,0,0,.3-.257.715.715,0,0,0-.132-.669,1.093,1.093,0,0,0-.287-.333.458.458,0,0,0-.457,0,1.312,1.312,0,0,0-.475.4,1.092,1.092,0,0,0-.191.716.856.856,0,0,0,.633.573,2.4,2.4,0,0,0,.691.069,3.327,3.327,0,0,0,1.575-.419,1.477,1.477,0,0,0,.831-.893,1.758,1.758,0,0,0-.5-1.5,2.689,2.689,0,0,0-.831-.659c-.258-.115-.581-.114-.669.2-.067.239.064.649.35.69a.208.208,0,0,0,.23-.151.513.513,0,0,0-.181-.6,1.1,1.1,0,0,0-.791-.142c-.442.076-1.118.37-1.188.893-.048.349.217.521.5.631a2.3,2.3,0,0,0,.608.135,4.821,4.821,0,0,0,1.243-.089c.163-.044.379-.132.206-.331a1.889,1.889,0,0,0-.748-.4.919.919,0,0,0-.839.2.672.672,0,0,0-.037,1.018,1.716,1.716,0,0,0,.93.2c.17,0,.865.036.6-.371a2.455,2.455,0,0,0-.637-.555c-.214-.123-.578-.27-.818-.109-.092.061-.057.117.032.147a1.3,1.3,0,0,0,.476.017c.028,0,.326-.018.359-.126.047-.155-.35-.349-.437-.386a.374.374,0,0,0-.331-.018.177.177,0,0,0,0,.3.738.738,0,0,0,.373.09" fill="none" stroke="#333" stroke-linecap="round" stroke-linejoin="round" stroke-width="1"/><path d="M160.776,222.587c.264-.176.531-.347.787-.534a3.474,3.474,0,0,0,.821-.741,1.473,1.473,0,0,0,.221-.85c0-.158.006-.319,0-.477a.889.889,0,0,0-.1-.47,1.061,1.061,0,0,0-.838-.347,1.9,1.9,0,0,0-.452.01.744.744,0,0,0-.493.389c-.186.309-.273.668-.463.975a3.927,3.927,0,0,1-.856.861,2.352,2.352,0,0,0-.4.475c-.01.014-.188.227-.176.249s.177,0,.2-.005c.106-.02.208-.058.312-.085a4.694,4.694,0,0,1,.513-.1c.374-.055.75-.1,1.123-.152.135-.021.272-.039.405-.071a.3.3,0,0,0,.15-.077,1.89,1.89,0,0,0,.533-1.049c.041-.249.076-.5.12-.749a1.151,1.151,0,0,0,.047-.483c-.028-.093-.175-.026-.223,0a2.109,2.109,0,0,0-.5.433c-.239.257-.466.526-.7.791-.2.23-.4.459-.592.694a3.476,3.476,0,0,1-.4.468c-.053.044-.14.108-.2.147-.006,0-.155.089-.157.11s.013,0,.019,0c.05-.023.135-.071.177-.1.173-.1.341-.21.521-.3.4-.2.814-.356,1.221-.534.048-.021.139-.046.17-.1a.393.393,0,0,0,.026-.2c0-.028,0-.057-.027-.073s-.132.057-.148.068c-.168.12-.33.25-.495.375-.053.04-.138.1-.2.146-.016.011-.061.037-.058.017a.416.416,0,0,1,.067-.137" fill="none" stroke="#333" stroke-linecap="round" stroke-linejoin="round" stroke-width="1"/><path d="M162.31,219.683a5.271,5.271,0,0,0,.714-.383,3.644,3.644,0,0,1,.86-.463,9.217,9.217,0,0,1,1.256-.22,6.889,6.889,0,0,0,.783-.15c.245-.067.484-.156.724-.237a5.857,5.857,0,0,1,.919-.248c.05-.008.08-.03.091.033a5.954,5.954,0,0,1-.17,1.3.9.9,0,0,1-.061.443.428.428,0,0,1-.23.182,9.327,9.327,0,0,1-1.17.227c-.338.074-.682.118-1.016.2a8.61,8.61,0,0,0-1.31.534c-.246.106-.495.2-.749.282-.1.034-.208.062-.31.1-.019.006-.059.036-.063,0a3.458,3.458,0,0,1,.027-.487c0-.073-.023-.183.024-.248a.63.63,0,0,1,.256-.17c.149-.066.289-.137.432-.216.178-.1.369-.182.541-.292.124-.08.242-.17.369-.245a3.18,3.18,0,0,1,.52-.223c.248-.092.483-.219.726-.324a4.035,4.035,0,0,1,.57-.175,4.089,4.089,0,0,1,.592-.111c.125-.014.251-.01.377-.014.07,0,.1,0,.169-.009a.409.409,0,0,1,.1,0c.058.025-.167.284-.188.307a1.41,1.41,0,0,1-.731.4c-.415.1-.851.131-1.256.27a3.589,3.589,0,0,0-.377.165c-.021.011-.068.045-.088.034" fill="none" stroke="#333" stroke-linecap="round" stroke-linejoin="round" stroke-width="1"/><path d="M167.781,218.026c.106.009.211.009.317.01.337,0,.67.009,1,.043a6.633,6.633,0,0,0,1.3.078c.3-.03.6-.064.908-.07.149,0,.295-.035.443-.041.173-.006.345-.02.519-.02a.86.86,0,0,0,.227-.008c.065-.019.215-.012.249.057.008.014.036.016.039.029a.212.212,0,0,0,0,.05c.014.031.029.065.046.095a3.656,3.656,0,0,1,.141.388,1.606,1.606,0,0,0,.083.172.812.812,0,0,1,.083.191,2.847,2.847,0,0,1,.093.274.574.574,0,0,0,.06.155.744.744,0,0,1,.057.214.887.887,0,0,1,.025.153.4.4,0,0,0,.006.125c.011.034-.015.018-.052.032a1.007,1.007,0,0,1-.351.026h-4.763a6.519,6.519,0,0,0-.893.085c-.01,0-.094.02-.1,0-.02-.058.021-.135.037-.189a4.5,4.5,0,0,0,.113-.644c.005-.042-.013-.067.037-.07s.129-.024.194-.034c.117-.019.236-.031.354-.041a6.194,6.194,0,0,1,1.072-.022c.467.04.942.015,1.411.015h1.213c.1,0,.189.023.285.032.144.013.288.009.433.009h.444c.013,0,.049.007.06,0,.046-.038-.086-.175-.108-.192a.61.61,0,0,0-.22-.1,3.973,3.973,0,0,0-.469-.094c-.217-.033-.434-.061-.65-.093s-.445-.079-.668-.092c-.355-.019-.714-.011-1.069-.012-.607,0-1.214.007-1.821.035-.041,0-.307.015-.384.02a.19.19,0,0,0-.083.009c-.011.007.082.067.083.067" fill="none" stroke="#333" stroke-linecap="round" stroke-linejoin="round" stroke-width="1"/><path d="M171.463,219.059a2.135,2.135,0,0,1,.249.174,2.018,2.018,0,0,0,.313.171,1.425,1.425,0,0,1,.289.166,2.058,2.058,0,0,0,.28.19,3.948,3.948,0,0,1,.358.221,2.193,2.193,0,0,0,.435.213,2.9,2.9,0,0,0,.892.236.869.869,0,0,1,.276.06c.035.014-.075,0-.112,0a2.333,2.333,0,0,1-.313-.012,1.362,1.362,0,0,1-.515-.151.6.6,0,0,1-.142-.1.42.42,0,0,0-.143-.122c-.058-.024-.12-.016-.178-.035a.284.284,0,0,1-.118-.082c-.075-.08.157-.044.193-.028a.54.54,0,0,1,.125.082c.039.034.063.078.1.115a.163.163,0,0,0,.139.067c.01,0,.092-.033.074-.046s-.058,0-.08-.006c-.055,0-.093-.119-.112-.165a.413.413,0,0,1-.037-.149s-.034-.128-.014-.122a1.071,1.071,0,0,1,.055.1.7.7,0,0,0,.1.137,1.477,1.477,0,0,0,.306.23.614.614,0,0,0,.19.121c.14.039.261.11.4.14a4.236,4.236,0,0,0,.725.089c.2.008.4.043.6.069" fill="none" stroke="#333" stroke-linecap="round" stroke-linejoin="round" stroke-width="1"/><path d="M183.244,217.7a.3.3,0,0,1,.03.126.128.128,0,0,0,.005.052c.008.018-.077-.043-.068-.007s-.012.1.008.114a.092.092,0,0,1,.037.065.717.717,0,0,1,.039.187,1.353,1.353,0,0,0,.043.23,2.312,2.312,0,0,0,.09.29c.052.171.087.344.143.514.087.265.2.528.3.786.055.152,0-.325.044-.481a1.438,1.438,0,0,0,.036-.346.914.914,0,0,0-.016-.338c-.017-.041-.036-.081-.055-.121-.011-.023-.03-.029-.047-.045a.192.192,0,0,1-.041-.1,1.374,1.374,0,0,1-.035-.294c0-.031-.009-.05.024-.058.054-.014.11-.017.164-.029a2.748,2.748,0,0,0,.4-.126c.014-.005.135-.069.16-.033.05.074-.026.282-.043.35a4.315,4.315,0,0,0-.2.99c0,.03.021.151-.006.177s0-.015.005-.021c.1-.1.214-.186.314-.287a.934.934,0,0,0,.293-.46c.011-.071.019-.143.028-.215a.274.274,0,0,1,.021-.113c.011-.015.012.035.01.054a5.255,5.255,0,0,1-.106.568,4.9,4.9,0,0,0-.088.9c0,.042.017-.081.027-.122.1-.436.185-.874.259-1.317a13.225,13.225,0,0,1,.279-1.323,1.142,1.142,0,0,1,.048-.185c.019-.04,0,.09,0,.135-.012.256-.034.512-.062.768-.022.2-.053.407-.056.612,0,.111,0,.445-.005.334a.824.824,0,0,1,.02-.222,6.36,6.36,0,0,1,.307-.819c.111-.291.153-.409.255-.7.022-.062.042-.125.066-.187.006-.016.017-.065.022-.048s0,.061-.008.092c-.008.068-.015.135-.024.2-.031.262-.062.5-.1.76-.061.466-.135.933-.163,1.4a3.988,3.988,0,0,0,0,.741c.023.165.066-.007.075-.061.043-.243.061-.491.082-.736,0-.027.045-.719.038-.719-.042,0-.094.2-.1.207a3.807,3.807,0,0,0-.144.9,3.162,3.162,0,0,0,0,.515c.006.058.02.042.042,0s.083-.208.1-.251a5.742,5.742,0,0,0,.13-.7,10.052,10.052,0,0,1,.285-1.064c.048-.164.1-.327.135-.493.009-.039.005-.029,0,.037-.013.122-.023.221-.032.347a6.87,6.87,0,0,0-.025,1.024c0,.042.033.342.108.352.01,0,.016-.014.02-.023.014-.034.023-.07.035-.106.057-.169.118-.348.173-.516.144-.436.294-.876.4-1.323a.283.283,0,0,0,.016-.1c0-.014-.018.023-.023.036a2.351,2.351,0,0,0-.107.376c-.092.413-.153.833-.241,1.247-.033.157-.074.314-.1.473a.883.883,0,0,0,0,.177,1.2,1.2,0,0,0,.11-.2c.08-.154.183-.367.249-.521a11.189,11.189,0,0,0,.642-1.912c.033-.141.059-.284.083-.428.015-.1.028-.192.034-.289,0-.032.016-.078-.011-.1s-.034.037-.043.06c-.033.077-.058.158-.084.238a9.176,9.176,0,0,0-.246.923c-.11.495-.174.866-.249,1.369-.043.289-.1.674-.112.98-.005.1-.022.345.112.408a.162.162,0,0,0,.131-.007.307.307,0,0,0,.077-.141c.034-.1.082-.3.1-.4a6.235,6.235,0,0,0,.125-.768.84.84,0,0,0,0-.125c0-.012-.027.005-.032.016a1.8,1.8,0,0,0-.116.65c0,.061-.012.257-.011.331,0,.028,0,.1.018.08a.644.644,0,0,0,.1-.262.974.974,0,0,0,.017-.106" fill="none" stroke="#333" stroke-linecap="round" stroke-linejoin="round" stroke-width="1"/><path d="M187.447,219.366V219.3" fill="none" stroke="#333" stroke-linecap="round" stroke-linejoin="round" stroke-width="1"/><path d="M187.365,218.466c.45-.027.889-.132,1.341-.141.567-.012,1.135,0,1.7,0,.13,0,.261-.005.391,0,.074,0,.2-.008.261.047a.1.1,0,0,1,.026.073c.011.087.014.177.017.265.009.238.006.478,0,.716a2.2,2.2,0,0,1-.017.3c-.006.035-.009.054-.046.066a2.263,2.263,0,0,1-.667.05c-.861.005-1.72.031-2.581.031-.06,0-.2.031-.231-.026-.155-.262-.378-.476-.532-.738-.025-.042-.036-.069.019-.06a1.542,1.542,0,0,0,.263.016h2.741a1.554,1.554,0,0,0,.193-.015,2.773,2.773,0,0,1,.353-.005" fill="none" stroke="#333" stroke-linecap="round" stroke-linejoin="round" stroke-width="1"/><path d="M190.975,218.128c.171.022.343.021.515.027.255.01.511.027.767.028.722,0,1.444-.014,2.167-.014h.947c.064,0,.183-.036.176.058-.013.181-.063.358-.08.539-.014.155-.012.309-.013.464,0,.06,0,.073-.059.1a2.053,2.053,0,0,1-.546.177,5.774,5.774,0,0,1-1.041.109c-.252.006-.506-.007-.758.009-.1.006-.2.024-.3.024-.309,0-.619.01-.927,0a1.544,1.544,0,0,1-.236-.008c-.026-.005-.045-.038-.06-.057a3.229,3.229,0,0,0-.269-.3,2.4,2.4,0,0,0-.242-.22c-.014-.011-.089-.045-.047-.065a1.234,1.234,0,0,1,.286-.083,4.5,4.5,0,0,1,.86-.066c.957-.007,1.914.019,2.87,0,.042,0,.077-.019.12-.02a.253.253,0,0,0,.072-.017,2.813,2.813,0,0,1,.314-.075" fill="none" stroke="#333" stroke-linecap="round" stroke-linejoin="round" stroke-width="1"/><path d="M196.446,218.486c-.979.054-1.962,0-2.942.033-.407.014-.813.018-1.22.018" fill="none" stroke="#333" stroke-linecap="round" stroke-linejoin="round" stroke-width="1"/><path d="M195.014,220.122c.314-.033.622-.091.938-.1.336-.009.678-.014,1.013.007.387.024.771.046,1.158.058a1.76,1.76,0,0,0,.348.01c.494-.081.576-.639.583-1.053,0-.138,0-.275,0-.413a.942.942,0,0,0,0-.339.244.244,0,0,0-.1-.1,1.238,1.238,0,0,1-.225-.215,1.085,1.085,0,0,0-.107-.136c-.106-.1-.317-.076-.447-.078-.363-.006-.727,0-1.09,0-.176,0-.353,0-.529,0a.745.745,0,0,0-.408.091c-.128.1-.114.358-.138.5-.033.2-.1.41-.115.616a.57.57,0,0,0,.174.535.514.514,0,0,0,.331.089c.408.007.822-.02,1.229-.047a2.757,2.757,0,0,0,.71-.126,1.132,1.132,0,0,0,.513-.279c.011-.012.087-.118.029-.137a2.425,2.425,0,0,0-.736.015,9.314,9.314,0,0,0-1.916.485c-.5.195-1.2.52-1.38,1.088-.122.377.274.5.564.435a1.633,1.633,0,0,0,.819-.49,1.4,1.4,0,0,0,.3-.806,4.782,4.782,0,0,0,.039-.727,1.015,1.015,0,0,0-.147-.635.2.2,0,0,0-.314-.04,1,1,0,0,0-.354.818.924.924,0,0,0,.631.7,2.146,2.146,0,0,0,1.018.156,1.667,1.667,0,0,0,.781-.21.891.891,0,0,0,.427-.775.379.379,0,0,0-.416-.4.964.964,0,0,0-.581.218c-.086.07-.261.292-.143.413s.339.031.446-.008a.8.8,0,0,0,.568-.543c.118-.65-.841-.758-1.269-.641-.177.048-.441.164-.507.358-.1.283.4.387.568.421a1.093,1.093,0,0,0,.643,0c.148-.077.114-.271.029-.377a.742.742,0,0,0-.319-.221c-.113-.038-.168.049-.207.144-.03.073-.063.179.011.242a.7.7,0,0,0,.556.058.2.2,0,0,0,.151-.258.435.435,0,0,0-.157-.215" fill="none" stroke="#333" stroke-linecap="round" stroke-linejoin="round" stroke-width="1"/><path d="M198.911,219.56a1.988,1.988,0,0,0,.4.207c.174.08.35.158.52.247.23.121.435.28.665.4a9.179,9.179,0,0,0,1.407.5,1,1,0,0,0,.3.071c.055,0,.065-.047.077-.092a5.318,5.318,0,0,1,.3-.78c.088-.191.181-.378.275-.566.074-.151.24-.418.11-.585a.719.719,0,0,0-.381-.178c-.187-.044-.379-.065-.567-.1a8.46,8.46,0,0,1-1.1-.313c-.13-.046-.25-.094-.374-.15-.067-.029-.128-.071-.2-.1-.044-.016-.061,0-.091.031-.082.1-.145.221-.217.327-.162.242-.364.447-.534.681a.9.9,0,0,1-.094.14c-.029.026,0-.079.012-.117a6.062,6.062,0,0,0,.247-.922c0-.006.02-.172,0-.058-.089.437-.2.871-.305,1.305-.032.135-.064.266-.1.4l-.021.07c0,.01,0,.034-.011.029s0-.025,0-.037c0-.038,0-.076,0-.114,0-.13,0-.26,0-.39,0-.2,0-.393,0-.59,0-.041,0-.083,0-.125,0-.021,0-.045.009-.062.026-.035.03.082.04.125.1.416.218.823.346,1.23.06.19.107.384.184.566.035.083.062.124.125.034a3.941,3.941,0,0,0,.174-.36c.039-.09.074-.179.1-.272.051-.165.1-.333.146-.5.018-.061-.03.123-.048.185-.091.317-.206.625-.321.934-.047.126-.176.508-.122.385a3.868,3.868,0,0,0,.128-.475c.157-.558.325-1.114.464-1.677.076-.308.121-.615.176-.926a5.279,5.279,0,0,1-.07.715c-.071.569-.171,1.135-.225,1.706a2.044,2.044,0,0,0-.014.235c0,.018.005.056.024.051s.035-.046.048-.072c.025-.048.045-.1.067-.149.123-.276.245-.552.353-.833.083-.217.138-.442.218-.659.021-.055.019-.012.02.025,0,.065,0,.257,0,.3v.531c0,.078.007.084.054.011a3.309,3.309,0,0,0,.276-.548c.061-.148.057-.146.1-.273,0-.012,0-.038.014-.037s0,.025,0,.038c0,.036,0,.072,0,.107v.364c0,.055.016.179.064.152a1.516,1.516,0,0,0,.218-.291c.067-.109.175-.3.238-.42.044-.078.088-.156.13-.234.025-.047,0-.015-.017.014-.173.265-.323.544-.476.82a3.684,3.684,0,0,0-.242.472,2.391,2.391,0,0,0-.09.342c-.018.08-.048.16-.06.241h0a.528.528,0,0,1,.087-.168c.2-.3.439-.571.642-.87a1.152,1.152,0,0,0,.246-.455c0-.052-.079.07-.105.116a2.389,2.389,0,0,0-.195.47,1.113,1.113,0,0,0-.05.236c0,.024,0,.062.03.027a1.873,1.873,0,0,0,.187-.317c.059-.1.123-.194.18-.293" fill="none" stroke="#333" stroke-linecap="round" stroke-linejoin="round" stroke-width="1"/><path d="M203.41,218.742a.3.3,0,0,1,.062.126,3.1,3.1,0,0,0,.1.323,1.061,1.061,0,0,1,.093.22,1.76,1.76,0,0,0,.132.4,2.816,2.816,0,0,1,.176.373c.007.022.03.071.039.03.006-.024,0-.123.02-.135.049-.025.11.043.142.068a.3.3,0,0,1,.094.128c0,.009.024.025.03.034s.006.029.013.046c.016.046.036.1.054.141,0,.006.045.087.033.087s-.008-.075-.008-.087a.61.61,0,0,0,0-.148c0-.007-.027-.014-.018-.024s.026.043.026.047c.016.106.032.213.043.32,0,.026,0,.052,0,.079a.621.621,0,0,0,.029.1,1.3,1.3,0,0,1,.033.172,1.835,1.835,0,0,1-.106,1.063c-.028.049-.076-.039-.089-.058a.407.407,0,0,0-.246-.17.993.993,0,0,1-.269-.152.511.511,0,0,1-.119-.2c-.051-.115-.117-.221-.172-.333-.041-.081-.072-.166-.119-.244-.1-.17-.186-.348-.271-.526a.378.378,0,0,1-.031-.175c0-.027-.014-.1.007-.121s.1,0,.116.025a.518.518,0,0,1,.094.224,1.873,1.873,0,0,1,.11.492.323.323,0,0,0,.1.248c.081.088-.05.179-.135.2a2.369,2.369,0,0,1-.646.039c-.048,0-.074.007-.054-.046a.474.474,0,0,1,.092-.154.49.49,0,0,1,.329-.176c.146-.02.295-.013.441-.029.08-.008.162-.024.242-.025.01,0,.116,0,.064-.01" fill="none" stroke="#333" stroke-linecap="round" stroke-linejoin="round" stroke-width="1"/><path d="M203.472,220.45c.1.006.182.118.25.188a2.275,2.275,0,0,1,.175.274c.039.054.064.118.107.17a1.547,1.547,0,0,1,.111.119c.031.047.066.088.1.133a1.994,1.994,0,0,1,.15.258c.033.057.079.1.107.164s.033.092.056.137c.118.232.174.489.27.73.163.411.265.841.412,1.258.069.2.149.385.226.577.085.211.195.41.281.621.069.168.117.343.178.515.067.191.167.371.243.56.069.171.139.339.217.506.029.064.019.068.019.007v-.373c0-.13-.012-.254-.02-.383a.57.57,0,0,0-.034-.1.831.831,0,0,1-.025-.132c-.016-.1.006-.2-.008-.3a2.262,2.262,0,0,0-.148-.569c-.029-.067-.069-.128-.1-.195s-.06-.119-.082-.183a1.026,1.026,0,0,1-.064-.167c-.011-.068-.035-.127-.051-.195a3.29,3.29,0,0,0-.09-.323,5.122,5.122,0,0,1-.2-.5c-.027-.117-.091-.224-.12-.342-.033-.135-.121-.251-.155-.386a1.89,1.89,0,0,0-.084-.247,2.732,2.732,0,0,0-.163-.351c-.062-.109-.093-.238-.147-.351a1.951,1.951,0,0,0-.1-.223,1.719,1.719,0,0,1-.075-.17c-.165-.33-.325-.661-.49-.99" fill="none" stroke="#333" stroke-linecap="round" stroke-linejoin="round" stroke-width="1"/><path d="M203.86,220.828a.5.5,0,0,0-.02.133" fill="none" stroke="#333" stroke-linecap="round" stroke-linejoin="round" stroke-width="1"/><path d="M128.03,42.363c-.084.458-.154.92-.252,1.375a7.4,7.4,0,0,1-.55,1.778c-.071.174-.167.338-.222.517a5.672,5.672,0,0,0-.186,1.434c-.036.708-.055,1.42-.074,2.128-.007.286.058.04.1-.058a6.213,6.213,0,0,0,.36-1.763" fill="none" stroke="#333" stroke-linecap="round" stroke-linejoin="round" stroke-width="1"/><path d="M127.153,45.243V42.853c0-.05.011-.2,0-.15a7.7,7.7,0,0,0-.163.765c-.234,1.061-.493,2.114-.79,3.159-.025.086-.049.173-.074.259-.008.028,0,.065-.026.083s.008-.048.011-.072c.042-.252.062-.34.1-.616a17.864,17.864,0,0,0,.107-2.23,6.146,6.146,0,0,0,0-.826c0-.007-.013-.019-.017-.013a4.568,4.568,0,0,0-.249.673c-.389,1.165-.71,2.349-1.043,3.53-.017.059-.059.229-.07.169a2.044,2.044,0,0,1,.068-.615,28.054,28.054,0,0,0,.326-3.047c.026-.49.029-.98.029-1.471,0-.017,0-.067,0-.051-.022.14-.042.278-.072.417-.07.316-.162.627-.243.94-.042.161-.029-.235-.029-.236,0-.392,0-.783,0-1.175" fill="none" stroke="#333" stroke-linecap="round" stroke-linejoin="round" stroke-width="1"/><path d="M128.923,42.86a2.437,2.437,0,0,1,.052-.474c0-.01.014-.038.014-.028,0,.064,0,.129,0,.193,0,.306,0,.612,0,.917a1.875,1.875,0,0,0,.066.684c.032.075.092.145.109.011a7.969,7.969,0,0,0,.009-1.364,2.144,2.144,0,0,0-.145-.71c-.065-.162-.091.055-.109.132-.2.866-.3,1.75-.5,2.618-.147.66-.266,1.1-.438,1.737a5.078,5.078,0,0,0-.147.566c-.014.1.066-.185.079-.281.076-.55.133-1.108.166-1.662.049-.829.029-3.322.029-2.491,0,.474-.006.945-.044,1.417-.032.409-.066.642-.11,1.041-.012.107-.024.214-.033.321-.006.061-.011.122-.011.183,0,.017-.007.042.008.051s.019-.019.025-.031c.029-.059.052-.12.078-.18l.388-.908c.338-.79.68-1.578.957-2.392.088-.259.131-.4.2-.645.029-.1.038-.18.039-.032a21.191,21.191,0,0,1-.106,2.267c-.049.494-.133.985-.165,1.481,0,.058-.046.14,0,.174.009.006.016-.016.02-.027.019-.052.033-.106.048-.16.183-.631.357-1.264.534-1.9.417-1.482-.057.2.238-.853.037-.132.079-.3.051-.041-.067.61-.174,1.214-.3,1.815s-.3,1.22-.4,1.839c0,0-.044.307-.011.316s.031-.042.041-.066c.033-.085.089-.265.11-.336a22.668,22.668,0,0,0,.55-2.721c.007-.045,0-.171.029-.134.012.017.005.042.006.063,0,.061,0,.123,0,.184a11.3,11.3,0,0,0,.187,2.158c.022.1.011.246.1.293.065.033.086-.12.108-.189a11.675,11.675,0,0,0,.366-1.835c.034-.22.108-.74.145-.986a3.6,3.6,0,0,1,.061-.388c.046-.175.007.361.007.541a13.661,13.661,0,0,0,.106,1.9,6.764,6.764,0,0,0,.148.766,1.366,1.366,0,0,0,.08.249c.013.019.036-.034.041-.056.024-.107.054-.324.067-.405.114-.723.248-1.443.365-2.166.1-.6.045-.3.117-.769.014-.084.023-.24.039-.068.082.894.128,1.788.252,2.679a11.635,11.635,0,0,0,.237,1.283,1.856,1.856,0,0,0,.152.449c.032.042.07-.084.081-.136.047-.224.089-.552.117-.761.113-.824.223-1.65.3-2.477.016-.17.025-.342.043-.512.012-.112.02.007.03.073.111.7.215,1.4.373,2.091a6.6,6.6,0,0,0,.212.77c.089.246.115.065.141-.1.131-.811.2-1.638.264-2.456.036-.44.023-.318.041-.638,0-.065,0,.131,0,.2v2.182c0,.039.012.153,0,.116-.074-.221-.135-.437-.225-.656-.228-.558-.464-1.116-.72-1.662-.08-.17-.175-.362-.265-.529-.036-.068-.055-.152-.116-.2-.036-.028-.044.081-.053.125-.07.348-.115.7-.166,1.054q-.082.579-.148,1.16c-.005.047-.009.112-.011.029s0-.4,0-.411V41.861c0-.669.015,1.339-.018,2.008,0,.059.029.358-.111.271a3.665,3.665,0,0,0-.9-.337" fill="none" stroke="#333" stroke-linecap="round" stroke-linejoin="round" stroke-width="1"/><path d="M125.266,45.9c-.007.036-.137.717-.162.811-.032.125-.056.187-.091.026-.063-.285-.091-.576-.133-.864-.088-.61-.131-.925-.217-1.554-.129-.948-.249-1.9-.424-2.84-.069-.367-.045-.1-.048.042-.022.856-.114,1.711-.179,2.565-.031.414-.056.749-.075,1.155,0,.083-.006.166-.007.248,0,.034-.021.076,0,.1s0-.063.006-.095c0-.086.007-.171.01-.257,0-.131.032-.944.033-1.013a15.908,15.908,0,0,0-.062-2.3c-.011-.092-.052-.351-.072-.465-.006-.037,0-.139-.022-.112-.06.062-.044.168-.064.252-.1.4-.154.649-.267,1.063a17.52,17.52,0,0,1-.7,2.168c-.154.366-.107-.245-.107-.289a20.67,20.67,0,0,0-.127-3.078c0-.007-.029-.194-.035-.055-.01.231,0,.462,0,.693a26.96,26.96,0,0,1-.228,2.923c-.029.232-.02.176-.034.339l0,.025c0-.023,0-.045,0-.068.034-.426.084-.851.143-1.274a13.819,13.819,0,0,1,.4-1.943c.069-.236.23-.9.316-.666a2.629,2.629,0,0,1,.067.548c.017.29.038.954.05,1.215a16.01,16.01,0,0,0,.257,2.3c.049.249.079.385.143.618a.613.613,0,0,0,.079.235c.04.047-.007-.123-.018-.184-.039-.219-.073-.369-.132-.591a10.961,10.961,0,0,0-.434-1.284c-.018-.042-.034-.086-.054-.127-.005-.011-.012-.035-.022-.029s-.006.032-.007.049c0,.045,0,.09,0,.134a5.137,5.137,0,0,1-.076.654c0,.01-.031.238-.035.073,0-.062.032-.2-.107-.18-.364.043-.414.326-.869.17-.656-.225-.827-.845-1.021-1.431a6.8,6.8,0,0,1-.161-.85c.055.355.082.715.132,1.071.009.065.014.241.054.189a.352.352,0,0,0,.035-.174" fill="none" stroke="#333" stroke-linecap="round" stroke-linejoin="round" stroke-width="1"/><path d="M121.643,41.4c.04,1.061,0,2.123.02,3.184,0,.017-.01.234.029.265s.037-.124.044-.187a8.763,8.763,0,0,0,.048-1.587,2.467,2.467,0,0,0-.076-.435.849.849,0,0,0-.088-.28s-.007.011-.008.017a2.688,2.688,0,0,0,0,.269c0,.308,0,.615-.007.923a6.963,6.963,0,0,1-.059,1.12,18.179,18.179,0,0,0-.281-2.114" fill="none" stroke="#333" stroke-linecap="round" stroke-linejoin="round" stroke-width="1"/><path d="M120.865,39.732a.775.775,0,0,1-.014.215,7.3,7.3,0,0,0-.214.745c-.036.2-.024.4-.063.6a2.814,2.814,0,0,0-.04.542v2.826c0,.023-.007.088-.017.067a.339.339,0,0,1-.016-.138c0-.189,0-.377,0-.566a7.7,7.7,0,0,0-.059-.845,2.75,2.75,0,0,0-.423-1.163c-.114-.177-.161-.382-.279-.558a1.064,1.064,0,0,1-.181-.3c-.008-.033-.017-.108-.018-.026,0,.289-.056.574-.07.862-.018.384-.029.765-.029,1.149a2.423,2.423,0,0,0,.049.4,1.5,1.5,0,0,0,.182.625.767.767,0,0,0,.175.239,1.076,1.076,0,0,0-.084-.208c-.053-.08-.128-.136-.174-.221a.681.681,0,0,0-.239-.287c-.1-.055-.159-.148-.273-.191-.2-.076-.283-.348-.456-.467a.441.441,0,0,1-.07-.132.772.772,0,0,0-.127-.22,1.243,1.243,0,0,1-.145-.227,1.318,1.318,0,0,0-.136-.186c-.071-.11-.188-.189-.254-.3-.038-.062,0,.134,0,.165,0,.065-.035-.134-.086-.174s-.145-.328-.145-.165c0,.065.029.159-.026.07a.528.528,0,0,1-.041-.127.277.277,0,0,0-.029-.059c-.011-.026,0-.057-.007-.083a.546.546,0,0,1-.046-.141.544.544,0,0,0-.05-.177.31.31,0,0,1-.032-.112c-.005-.041-.027-.072-.033-.109-.012-.076-.02-.151-.032-.227a.505.505,0,0,0-.009-.11.542.542,0,0,1-.059-.153.771.771,0,0,0-.083-.228,1.344,1.344,0,0,1-.079-.235c-.021-.064-.019-.134-.04-.2s-.049-.139-.071-.211a4.1,4.1,0,0,0-.143-.524,1.466,1.466,0,0,1-.114-.58,2.546,2.546,0,0,0-.066-.393c-.019-.118-.037-.237-.053-.355a2.8,2.8,0,0,0-.072-.408,3.113,3.113,0,0,1-.032-.34,1.864,1.864,0,0,1-.042-.206,2.019,2.019,0,0,0,0-.206c-.01-.075-.05-.142-.061-.215a1.829,1.829,0,0,1,0-.256V35.39a1.79,1.79,0,0,1,.043-.386.764.764,0,0,1,.053-.162c.067-.143.1.127.112.18a9.887,9.887,0,0,1,.2,1.048c.039.432.144.852.2,1.281a4.077,4.077,0,0,0,.26.97c.094.238.142.5.222.742a3.551,3.551,0,0,0,.135.431,1.744,1.744,0,0,1,.1.266,6.178,6.178,0,0,0,.244.582c.057.14.092.281.156.419.133.287.228.592.357.88a2.024,2.024,0,0,0,.226.363c.067.091.159.151.228.237a.348.348,0,0,0,.045.045c.012-.018,0-.1,0-.112a4.47,4.47,0,0,0-.084-.459,4.963,4.963,0,0,1-.028-1,3.361,3.361,0,0,0-.034-.511c-.012-.074-.051-.136-.066-.208" fill="none" stroke="#333" stroke-linecap="round" stroke-linejoin="round" stroke-width="1"/><path d="M136.283,46.578c-.028-.258-.041-.508-.089-.764-.1-.536-.284-1.052-.389-1.586-.057-.29-.07-.59-.144-.876-.019-.07-.013,0-.016.031-.045.484-.13.966-.214,1.444-.039.221-.064.344-.107.553-.008.042-.017.083-.026.125-.005.026-.007.1-.016.078a.319.319,0,0,1,0-.1,5.189,5.189,0,0,0-.023-.529c-.053-.527-.141-1.052-.225-1.575-.03-.19-.065-.38-.09-.57,0-.021,0-.041-.007-.062s0-.041,0-.011c0,.626.009,1.252-.038,1.877,0,.038,0,.041,0,.005a1.726,1.726,0,0,1,0-.176c.009-.09.083-.077.159-.091" fill="none" stroke="#333" stroke-linecap="round" stroke-linejoin="round" stroke-width="1"/><path d="M135.741,42.487a1.611,1.611,0,0,1,.064-.292c.022.009.022.043.027.066.016.065.026.132.036.2a11.654,11.654,0,0,1,.092,1.307c.009.375,0,.7.009,1.076a6.334,6.334,0,0,0,.044.892c0,.007.022.177.055.107a1.95,1.95,0,0,0,.13-.607c.074-.675.043-1.357.066-2.035a6.189,6.189,0,0,1,.091-.943c.013,0,.013.024.015.038.008.055.013.11.017.165.036.429.05.859.077,1.288a8.873,8.873,0,0,0,.155,1.445c.006.026.074.317.085.134.062-1.029.024-2.063.03-3.094,0-.024-.007-.36.041-.1.12.664.183,1.341.287,2.008a7.269,7.269,0,0,0,.288,1.363c.01.026.018.053.03.078,0,.008.007.023.016.022s.009-.016.011-.026c.009-.045.033-.252.034-.267.071-.685.034-1.371.054-2.058,0-.059-.006-.195.041-.055a11.717,11.717,0,0,1,.354,1.743,7.945,7.945,0,0,0,.244,1.154c.012.036.024.073.039.108.006.013.01.031.024.035s.013-.013.016-.022a1.777,1.777,0,0,0,.025-.186c.022-.271.009-.546.009-.818,0-.462.009-.926,0-1.388a2.07,2.07,0,0,0-.013-.222c0-.047.01.009.017.031.164.539.322,1.082.447,1.631.075.327.1.657.163.986,0,.015.022.09.024.027a2.5,2.5,0,0,0-.112-.718c-.153-.6-.34-1.192-.522-1.784-.075-.242-.164-.481-.235-.724-.052-.178-.1-.356-.153-.535-.018-.063-.01-.093.041-.023a2.662,2.662,0,0,1,.218.369,1.8,1.8,0,0,1,.171.4c.032.132.037.269.071.4.017.064.051.119.07.182a2.011,2.011,0,0,0,.088.3,3.711,3.711,0,0,1,.129.451,1.155,1.155,0,0,0,.072.182c.026.049.02.1.041.145.037.087.058.177.1.261s.1.16.144.249c.007.016.063.147.065.1,0-.068-.035-.131-.035-.2,0-.036,0-.072,0-.109s-.025-.054-.038-.082c-.075-.152-.1-.327-.166-.481a3.039,3.039,0,0,1-.121-.442c-.041-.148-.072-.3-.112-.445-.023-.083-.048-.166-.069-.25-.03-.12-.05-.236-.073-.357a1.519,1.519,0,0,1-.034-.242c0-.02-.029-.137-.018-.062a1.3,1.3,0,0,0,.109.292c.033.079.059.158.088.238.039.106.044.225.076.335.026.086.044.177.062.265s.04.145.053.219a.975.975,0,0,0,.073.169,1.162,1.162,0,0,1,.024.117.732.732,0,0,1,.034.122.461.461,0,0,0,.049.166.915.915,0,0,1,.038.139,6.226,6.226,0,0,0,.169.662c.024.05.026.1.048.153.033.073,0,.025-.016-.023a.726.726,0,0,1-.022-.192c0-.024-.025-.05-.035-.071a.42.42,0,0,1-.027-.2c0-.045.021-.133-.041-.133" fill="none" stroke="#333" stroke-linecap="round" stroke-linejoin="round" stroke-width="1"/><path d="M151.153,42.559c0,.172,0,.343,0,.515a.782.782,0,0,0,.067.245,3.48,3.48,0,0,0,.167.4c.063.126.129.249.193.375a2.54,2.54,0,0,1,.15.4,1.555,1.555,0,0,1,.08.266,2.52,2.52,0,0,1,.038.284c0,.005-.03-.082-.038-.11s.012-.086-.013-.116a.483.483,0,0,1-.051-.064.5.5,0,0,1-.023-.074,1.084,1.084,0,0,1-.036-.112c0-.012-.023-.062-.031-.023a.468.468,0,0,0,.041.151c.01.032.028.038.028.077,0,.063.041.11.041.172s-.041-.029-.041-.045-.026-.053-.035-.081-.011-.08-.027-.12a.984.984,0,0,1-.061-.212.348.348,0,0,0-.035-.114c-.02-.041-.007-.085-.026-.125a.369.369,0,0,0-.041-.075c-.028-.03-.016-.077-.031-.113a1.241,1.241,0,0,1-.071-.222,2.1,2.1,0,0,0-.079-.217c-.027-.088-.071-.167-.1-.256s-.025-.159-.056-.237c-.016-.041-.014-.084-.033-.125s-.041-.07-.054-.1a.582.582,0,0,0-.087-.165.33.33,0,0,1-.059-.09c-.006-.017.036,0,.051.013.068.044.133.088.2.128.135.077.264.161.392.248a2.267,2.267,0,0,1,.239.193,2.05,2.05,0,0,1,.437.49,1.409,1.409,0,0,1,.12.4c.029.148.053.3.086.444a3.228,3.228,0,0,0,.218.64,1.632,1.632,0,0,1,.1.22c0,.008,0,.045,0-.023-.014-.136-.02-.273-.027-.41a14.649,14.649,0,0,0-.192-2.656,1.2,1.2,0,0,0-.041-.143c-.04-.075.02.169.04.252.115.479.268.951.4,1.425a8,8,0,0,0,.388,1.191,1.491,1.491,0,0,0,.081.151c.023.037.019.021.019-.02V42.862c0-.036,0,.008.013.085.064.352.147.7.216,1.052a19.019,19.019,0,0,0,.407,1.953,1.155,1.155,0,0,0,.078.2c.028.039.021-.1.022-.144,0-.51,0-1.021,0-1.531,0-.41,0-.821,0-1.232,0,0,0-.054,0-.018.039.24.073.481.113.721.072.421.129.734.211,1.158a10.3,10.3,0,0,0,.225,1.04c.01.033.015.078.046.092.006,0,.012-.007.015-.013a.754.754,0,0,0,.034-.189,7.792,7.792,0,0,0,0-1.512,8.888,8.888,0,0,0-.335-1.448c-.187-.686.064.226-.066-.249-.006-.021-.013-.043-.018-.064a.9.9,0,0,1,.043.125c.158.489.288.985.444,1.474.036.11.135.429.144.314a10.616,10.616,0,0,0-.043-1.358c-.04-.649-.1-1.3-.109-1.949,0-.025-.011-.052,0-.074,0,0,.006.007.008.01a1.447,1.447,0,0,1,.074.2c.247.8.386,1.632.572,2.447.132.579.275,1.157.446,1.725.014.046.014.056.015.005,0-.235,0-.471,0-.706-.005-.689-.061-1.369-.133-2.054-.019-.18-.057-.718-.061-.538a9.717,9.717,0,0,0,.1,1.456c.047.358.1.66.16,1.013a5.132,5.132,0,0,0,.177.783.335.335,0,0,0,.057.1c.03.021.024-.07.026-.107.021-.432,0-.864.026-1.3" fill="none" stroke="#333" stroke-linecap="round" stroke-linejoin="round" stroke-width="1"/><path d="M155.765,42.845c.118.156.262.426.475.469a3.226,3.226,0,0,0,.464.056c.23.013.463.007.694.007a1.364,1.364,0,0,0,.486-.059c.152-.056.3-.125.452-.177.08-.027.171-.028.248-.057.252-.093.494-.208.744-.3a3.969,3.969,0,0,0,.6-.265c.123-.073.228-.166.355-.232a.942.942,0,0,1,.249-.105c.109-.021.169.168.213.236.271.424.571.834.863,1.244a2.969,2.969,0,0,1,.3.435.66.66,0,0,1,.075.232c0,.044-.061.058-.092.068-.215.065-.431.117-.641.2a6.467,6.467,0,0,1-1.615.285c-.811.085-1.613.251-2.423.343a2.521,2.521,0,0,1-.422.014c-.093-.005-.149-.1-.19-.172a1.657,1.657,0,0,1-.173-.581c-.015-.1-.024-.2-.046-.305a.244.244,0,0,0-.015-.065c-.049-.074.11-.11.149-.114.351-.041.714-.005,1.067-.011a1.9,1.9,0,0,0,.7-.184c.257-.1.515-.216.766-.333.163-.076.333-.139.494-.219.125-.061.247-.127.374-.183a.5.5,0,0,0,.195-.141c.04-.045.1-.134.155-.158.076-.031.2.164.229.207a5.348,5.348,0,0,1,.477.973c.036.082.071.164.1.248.011.028.062.107,0,.107a1.066,1.066,0,0,1-.212-.044,1.871,1.871,0,0,0-.329-.019c-.2-.008-.4-.028-.6-.029a3.987,3.987,0,0,0-.783.034c-.224.044-.442.127-.661.192-.337.1-.666.22-1.007.3a8.234,8.234,0,0,1-.816.147c-.108.015-.217.03-.325.047-.006,0-.022.007-.018,0a.327.327,0,0,1,.08-.038,2.929,2.929,0,0,1,.7-.267c.427-.1.871-.138,1.294-.258.157-.044.306-.111.463-.152.208-.054.4-.136.6-.209a1.933,1.933,0,0,1,.434-.114,3.125,3.125,0,0,0,1-.2" fill="none" stroke="#333" stroke-linecap="round" stroke-linejoin="round" stroke-width="1"/><path d="M162.924,38.929c.348.1.691.211,1.037.319.607.191,1.224.355,1.827.559a6.929,6.929,0,0,1,.668.263,1.361,1.361,0,0,1,.422.249c.076.08.158.2.069.3a1.8,1.8,0,0,1-.268.206c-.286.2-.568.411-.849.621s-.557.415-.836.622a4.788,4.788,0,0,0-.724.637,2.945,2.945,0,0,0-.295.384s-.079.139-.08.123c-.007-.092,0-.187,0-.279a1.92,1.92,0,0,0-.234-.76,5,5,0,0,0-.465-.787c-.116-.157-.259-.291-.375-.447a.626.626,0,0,1-.118-.319.53.53,0,0,1,.106-.367.432.432,0,0,1,.395-.184c.345-.01.7-.017,1.044.005a1.379,1.379,0,0,1,.775.253,1.514,1.514,0,0,0,.153.113c.028.017.066.027.075.064a.846.846,0,0,1-.128.522,9.087,9.087,0,0,1-.8,1.206c-.068.1-.127.2-.187.3-.041.071-.075-.051-.1-.084-.218-.368-.468-.716-.719-1.062q-.2-.279-.408-.555c-.02-.028-.1-.107-.106-.151,0-.027,0-.077.025-.089a.471.471,0,0,1,.171-.007,2.182,2.182,0,0,1,.427.065,6.228,6.228,0,0,0,1,.139,1.186,1.186,0,0,0,.6-.083c.041-.021.047-.041.1-.041a.119.119,0,0,0,.1-.034,1.217,1.217,0,0,1,.606-.183.671.671,0,0,1,.264-.014c.027.011.019.075.016.1-.013.088-.107.121-.179.152-.35.152-.722.27-1.082.393a4.168,4.168,0,0,1-1.016.2c-.037,0-.186-.016-.2.031" fill="none" stroke="#333" stroke-linecap="round" stroke-linejoin="round" stroke-width="1"/><path d="M162.5,41.485c-.666.356-.034.019-.724.384a7.79,7.79,0,0,0-.972.555c-.141.1-.728.622-.314.744a1.844,1.844,0,0,0,.442.05c.282.01.567.01.849.005a.879.879,0,0,0,.4-.072.871.871,0,0,0,.328-.27,1.256,1.256,0,0,0,.2-.774c-.008-.17-.128-.6-.387-.445a1.188,1.188,0,0,0-.345.44,4.089,4.089,0,0,0-.376.935c-.044.168-.246.845.124.853a.739.739,0,0,0,.317-.09,3.76,3.76,0,0,0,.721-.435.875.875,0,0,0,.351-.424.838.838,0,0,0-.033-.465c-.035-.112-.14-.322-.3-.266a.493.493,0,0,0-.243.311,2.089,2.089,0,0,0-.11.6c-.007.107-.063.416.095.459.233.063.513-.175.612-.36a.9.9,0,0,0,.086-.569c-.007-.035-.024-.026-.056-.026" fill="none" stroke="#333" stroke-linecap="round" stroke-linejoin="round" stroke-width="1"/><path d="M167.73,39.092c-.094-.534-.158-.951-.285-1.475a9.849,9.849,0,0,0-.467-1.412,10.161,10.161,0,0,0-.527-1.116c-.106-.187-.211-.376-.332-.554-.014-.021-.036-.066-.07-.07-.074-.01-.178.093-.219.139a2.541,2.541,0,0,0-.251.381c-.183.314-.359.632-.54.948a10.33,10.33,0,0,0-.7,1.62c-.187.512-.34,1.036-.478,1.563a.978.978,0,0,0-.048.252c.012.085.161.021.2.011a3.826,3.826,0,0,1,.968-.157,3.314,3.314,0,0,1,1.213.217,2.357,2.357,0,0,0,.409.147c.052.009.1,0,.128-.051a.618.618,0,0,0,.032-.148,3.136,3.136,0,0,0,.016-.635,6.232,6.232,0,0,0-.486-1.658,10.108,10.108,0,0,1-.429-1.324c-.061-.264-.085-.532-.137-.8-.005-.025,0-.059-.016-.073,0,0,0,.008,0,.013-.011.056-.017.113-.025.169a10.084,10.084,0,0,1-.219,1.1c-.172.636-.413,1.254-.57,1.894-.013.055-.057.166,0,.212a1.4,1.4,0,0,0,.338.171,3.639,3.639,0,0,0,.738.181c.029,0,.162.047.175,0a2.1,2.1,0,0,0,.017-.7,3.036,3.036,0,0,0-.146-.878c0-.009-.015-.058-.034-.041-.058.051-.072.166-.09.233-.073.263-.15.526-.211.792-.029.124-.039.25-.062.375-.005.03-.033.032-.042,0" fill="none" stroke="#333" stroke-linecap="round" stroke-linejoin="round" stroke-width="1"/><path d="M166.8,33.549c-.09-.358-.205-.712-.28-1.073-.027-.13-.053-.258-.091-.386a1.027,1.027,0,0,1-.048-.187" fill="none" stroke="#333" stroke-linecap="round" stroke-linejoin="round" stroke-width="1"/><path d="M167.505,35.513v.072" fill="none" stroke="#333" stroke-linecap="round" stroke-linejoin="round" stroke-width="1"/><path d="M167.178,35.554c.124.269.231.546.36.812a.963.963,0,0,0,.134.249c.018.019.035.017.048.045s.04.148.026.112a3.062,3.062,0,0,0-.148-.3.857.857,0,0,1-.088-.3c-.006-.035-.014-.085.015-.112s.019-.1.049-.145c.053-.074.169.13.182.156s.015.036.022.054.006.064.013.049,0-.051,0-.076v-.2c0-.316.024-.643,0-.958a3.9,3.9,0,0,0-.106-.753,1.41,1.41,0,0,0-.532-.911c-.039-.024-.176-.121-.233-.086-.032.02-.042.074-.048.107a1.561,1.561,0,0,0-.024.4,1.237,1.237,0,0,0,.3.664c.018.024.069.091.069.061a.471.471,0,0,0-.065-.19,1.57,1.57,0,0,0-.43-.474c-.207-.166-.449-.292-.647-.468a1.225,1.225,0,0,1-.127-.177c-.037-.048-.076-.1-.114-.143,0,0-.062-.088-.042-.034a4.234,4.234,0,0,0,.4.7,7.742,7.742,0,0,1,.492.886c.078.178.112.376.2.548.036.068.093.118.133.182.009.014.044.116.025.12s-.071-.034-.086-.047a.914.914,0,0,1-.208-.334,4.518,4.518,0,0,1-.265-.964,2.511,2.511,0,0,0-.12-.516" fill="none" stroke="#333" stroke-linecap="round" stroke-linejoin="round" stroke-width="1"/><path d="M167.454,33.856a.891.891,0,0,0-.069-.386.411.411,0,0,1-.036-.133c0-.011-.033-.133-.013-.143.065-.035.1.159.11.192.016.061.065.062.047-.017a.76.76,0,0,1-.039-.147c0-.022,0-.045,0-.067-.006-.046,0-.108-.03-.143a.248.248,0,0,1-.051-.107.5.5,0,0,0-.025-.125.2.2,0,0,1-.016-.11.386.386,0,0,0-.028-.125.757.757,0,0,0-.14-.187.321.321,0,0,1-.046-.1.417.417,0,0,0-.08-.118c-.056-.075-.083-.157-.131-.236-.037-.061-.085-.114-.123-.169a.622.622,0,0,0-.086-.1.1.1,0,0,1-.028-.034c-.012-.029-.042-.035-.062-.059a1.81,1.81,0,0,1-.133-.191.37.37,0,0,0-.058-.084c-.018-.018-.024-.046-.038-.062s-.028-.009-.037-.021,0-.017-.013-.025a.658.658,0,0,1-.154-.189,1.006,1.006,0,0,0-.221-.261c-.021-.015-.02-.035-.034-.056s-.037-.031-.054-.049-.017-.045-.037-.064a.5.5,0,0,1-.076-.106c-.058-.093-.128-.176-.19-.268a2.05,2.05,0,0,1-.147-.225c-.022-.045-.054-.078-.08-.123s-.086-.107-.123-.167a.742.742,0,0,0-.12-.135,1.966,1.966,0,0,1-.241-.215,2.642,2.642,0,0,0-.264-.232,1.558,1.558,0,0,0-.231-.2c-.142-.1-.264-.212-.414-.3-.055-.031-.1-.077-.158-.107a1.414,1.414,0,0,1-.186-.131,1.606,1.606,0,0,0-.161-.118c-.045-.028-.094-.044-.14-.068a3.091,3.091,0,0,1-.3-.221.932.932,0,0,1-.132-.092c-.049-.049-.114-.055-.171-.089a2.756,2.756,0,0,0-.317-.151.41.41,0,0,0-.074-.034c-.032,0,.06.228.065.238.055.11.1.219.144.333a2.067,2.067,0,0,0,.228.4c.055.08.111.16.168.239a1.784,1.784,0,0,0,.4.386c.147.11.266.246.4.369.167.153.346.293.521.436a1.7,1.7,0,0,1,.265.322,2.765,2.765,0,0,0,.327.381,1.168,1.168,0,0,1,.162.154c.066.09.128.185.195.275.055.074.086.161.137.238.06.092.119.183.171.28s.122.2.169.307.109.177.145.273c.057.151.1.3.166.45a1.483,1.483,0,0,1,.085.23" fill="none" stroke="#333" stroke-linecap="round" stroke-linejoin="round" stroke-width="1"/><path d="M162.044,28.007a.84.84,0,0,0-.161-.427.163.163,0,0,1-.044-.058c-.011-.033-.043-.041-.06-.071-.031-.053,0-.049.048-.047a.252.252,0,0,1,.12.031l.063.04c.029.017.092.053.015.021s-.128-.113-.2-.148a.815.815,0,0,1-.077-.035,1.683,1.683,0,0,0-.251-.111.658.658,0,0,1-.118-.055.336.336,0,0,0-.114-.041,6.381,6.381,0,0,1-.656-.266c-.062-.026-.132-.044-.2-.065-.1-.033-.206-.07-.31-.1-.135-.035-.266-.057-.4-.081a4.746,4.746,0,0,0-.823-.043,2.984,2.984,0,0,0-.374.015,1.673,1.673,0,0,0-.322.066c-.057.018-.127.018-.16.073" fill="none" stroke="#333" stroke-linecap="round" stroke-linejoin="round" stroke-width="1"/></g></svg>